<?xml version="1.0" encoding="utf-8"?>
<!-- Generator: Adobe Illustrator 21.1.0, SVG Export Plug-In . SVG Version: 6.00 Build 0)  -->
<svg version="1.1" id="Слой_1" xmlns="http://www.w3.org/2000/svg" xmlns:xlink="http://www.w3.org/1999/xlink" x="0px" y="0px"
	 viewBox="0 0 186 186" style="enable-background:new 0 0 186 186;" xml:space="preserve">
<style type="text/css">
	.st0{fill:#565555;}
	.st1{fill:#FFFFFF;}
</style>
<g>
	<circle class="st0" cx="93" cy="93" r="93"/>
	<circle class="st1" cx="93" cy="93" r="89"/>
	<circle class="st0" cx="93" cy="93" r="84.5"/>
	<path class="st1" d="M125.1,68.7c7.5,2.6,18.5,8.2,17.6,9.1c-0.2,0.3-4-0.2-8.3-1.1c-18.6-3.6-21.6-3.4-68.3,5.8
		c-12.4,2.4-22.6,4.3-22.8,4.1c-0.2-0.2,0.4-2.8,1.4-5.9c2.1-6.6,0.4-5.9,24.9-10.6C99.2,64.4,111.3,64.1,125.1,68.7z"/>
	<path class="st1" d="M97.6,91.5c0.1,1.9,0.7,3.4,1.7,3.8c2.4,0.9,3.3-0.1,4-4.5c1-5.8,2.8-4.9,2.1,1c-0.5,4.4-0.4,5.1,1.4,5.6
		c2.6,0.9,2.8,0.6,4.5-5.2l1.4-4.8l-0.4,6.2c-0.3,4.2,0,6.6,0.9,7.3c1.5,1.3,2.6,0.1,5.5-6l2-4.5l-0.6,4c-0.3,2.2-1.2,5.2-1.9,6.8
		c-1.2,2.5-1.2,2.8,0.7,3.8c2.5,1.3,3.2,0.7,6.4-5.7c2.4-4.6,2.4-4.7,1.8-1.4c-0.3,1.9-1.5,5-2.6,6.9c-1.6,2.9-1.7,3.6-0.6,4.8
		c1.2,1.1,1.8,1,3.6-1c1.2-1.3,3.1-4.1,4.2-6.3c1-2.1,1.9-3.2,1.9-2.4c0.1,6.6-13.6,21.8-24,26.8c-17.3,8.3-36.7,5.8-51.3-6.4
		c-6.3-5.3-6.9-6.7-4.8-10.3c0.9-1.7,2.4-3.3,3.3-3.6c1.2-0.4,1.5-1.3,1.1-2.8c-0.5-1.9-0.3-2,1-0.9c2.1,1.7,3.9-0.5,3.1-3.9
		c-0.5-2.3-0.5-2.3,0.9-0.5c2.4,3,4.9,1.4,4.2-2.6l-0.6-3.3l1.8,2.5c0.9,1.4,1.8,2.6,1.9,2.8c0.1,0.1,1,0,1.9-0.4
		c1.3-0.5,1.5-1.4,1.1-4.3l-0.6-3.6l1.7,3c0.9,1.6,1.8,3.1,1.9,3.3c0.1,0.1,0.9,0,1.8-0.4c1-0.4,1.7-2.1,1.9-4.7l0.3-4.2l1.4,4.3
		c1,3,1.9,4.1,2.9,3.7c0.7-0.3,1.8-0.5,2.3-0.5s0.9-1.9,0.9-4.3c0-3.1,0.3-3.8,1-2.7c0.5,0.8,1,2.5,1,3.7s0.9,2.7,2,3.3
		c1.7,0.9,2.2,0.7,3-1.5c0.6-1.5,1-3.8,1.1-5.3c0-2.4,0.1-2.5,0.9-0.7C97.2,87.5,97.6,89.8,97.6,91.5z"/>
	<circle class="st0" cx="88.2" cy="113.4" r="13.3"/>
</g>
</svg>
