<?xml version="1.0" encoding="utf-8"?>
<!-- Generator: Adobe Illustrator 19.2.0, SVG Export Plug-In . SVG Version: 6.00 Build 0)  -->
<svg version="1.1" id="Слой_1" xmlns="http://www.w3.org/2000/svg" xmlns:xlink="http://www.w3.org/1999/xlink" x="0px" y="0px"
	 viewBox="0 0 340.9 348.9" style="enable-background:new 0 0 340.9 348.9;" xml:space="preserve">
<style type="text/css">
	.st0{fill:#545555;}
	.st1{fill:#41474A;}
	.st2{font-family:'Arizonia-Regular';}
	.st3{font-size:36.6612px;}
	.st4{fill:none;stroke:#000000;stroke-miterlimit:10;}
</style>
<path class="st0" d="M196.9,259.9c46.7,9.1,39.7-3.4,47.2-1.9c7.6,1.4,22.7,5,26.4,14.4c1.4,4.6,1.4,4.6,1.4,4.6s-5.2-5.8-18.4-3.8
	c-13.2,1.9-46.5-2.6-46.5-2.6s-43,0.5-66.3,6.2c-23.4,5.8-28.3-0.7-30.5-5C93.5,237.6,191.9,258.9,196.9,259.9L196.9,259.9z"/>
<path class="st0" d="M79.4,238.1c0,0,42.4-20.1,51.1-49c8.7-28.8,4.5-42.7,12.9-43.8s38.8,43.4,56.9,64c18.2,20.6,14.7-10,8.4-19.6
	s-17.5-33.8-17.5-39.5c-7.7-2.1-11.5-9.6-11.5-9.6s-3.1-53,9.5-49s22.3,8.8,21.9-7.6c-0.3-16.4-8.7-8.9-16.8-17.1
	c-8-8.2-7.3-26,7.3-21c14.7,5,19.2,13.2,21.7,30.9c2.4,17.8,6.3,16.4,14.3,13.5c8-2.8,18.5,2.8,13.3,36.3
	c-5.2,33.4-4.2,43.4,0.3,58.7s15.4,38.8,15,46.6c-0.3,7.8-16.8-23.5-17.1-25.3s-5.6-18.1-5.6-18.1s-1.7-12.8,0-30.6
	c0.7-19.9-18.2-5.7-21.3,5.3s5.2,32.7,24.5,60.1c19.2,27.4,9.4,33.8,9.4,33.8s-6.3,1.4-16.1-6.7c-0.9-0.8-3.2-1.1-4.4-0.1
	c-2.8,2.2-4.7,8.3-4.7,8.3s-3.5,6.8-27.4-4.1c-4.2-1.9-9.6-2.8-15.2-5.8c-9.4-27.4-35.6-82.5-39.5-76.5
	C145.2,178.5,145,221.8,79.4,238.1L79.4,238.1z"/>
<path class="st1" d="M229,122.3c0,0,9.9,26.6-17.5,22.6c12,6.1,17.2,2.1,17.2,2.1S239.8,139.6,229,122.3L229,122.3z"/>
<path class="st1" d="M180.9,42.9c1.2,7.2-4.3,11.8-4.3,11.8s0.4,1.7,2.8,2.4c2.4,0.8,2.7,2.8,1.8,4.3c-0.8,1.5,2.2,2.3,2.2,2.3
	s-0.5,1.5,1.2,2.3s2,3.5,2.4,5.8c2.4,13.9,25.6-8.2,27.7-12.5c-5.8,6.9-23.1,20.4-25.2,11.2c-1.1-4.7-8.5-14-5.2-21.2
	c4.3-9.2-10-12.2-1.2-29.9C177.6,24.8,175.4,32.1,180.9,42.9L180.9,42.9z"/>
<path class="st1" d="M176.8,45c0,0,3.2,3.5,7.6,2c0.4-1.8,0.2-2.3,0.2-2.3S182.6,46.2,176.8,45L176.8,45z"/>
<path class="st1" d="M206,70.3c0,0,6.3,5.7,1.5,20.7C212.5,88.3,213.3,71.9,206,70.3L206,70.3z"/>
<path class="st1" d="M184.8,93c-10,4.3-8.2,60.7-12.9,61.9c-4.6,1.2-20.4-26.4-38.6-23.1c16.4,0,25.4,14.7,33.4,23.3
	c2,2.2,3.8,3,5.5,2.4C177.3,155.7,174.3,126.6,184.8,93L184.8,93z"/>
<path class="st1" d="M191.1,150.6c0.3,3.2,0.6,8.2,4.9,19.8c4.3,11.6,1.3,20.5,1.3,20.5s3.1-6.3,2.2-15.1c-0.9-8.1-3.5-9.5-5.3-14.5
	c-2.7-7.7,0.5-14.6-1.2-15.4c-1.7-0.8-12.3,2.4-11.8-11.6c1.1-7.4,7.5-17.3,7.4-17.3c0,0-9,13.7-9.9,19.2
	C177.9,141.7,179,147.3,191.1,150.6L191.1,150.6z"/>
<path class="st1" d="M233.2,232.5c0,0-78.9-87.9-85.1-89.3c-6.2-1.4-10.8,4.5-10.8,4.5s8.3-5.4,12.9-0.7
	C154.8,151.6,232.9,232.5,233.2,232.5L233.2,232.5z"/>
<path class="st1" d="M134.2,150.5C117.3,181.5,99,208,74,232.4c-10.9,10.7-19.4,19.9-23.5,26c-5.8,8.5-12.5,8.5-12.5,8.5
	s-2.3,3.3,7.6,3.3c-3.5-2.6-7.2-1.2,2.5-6.8c9.7-5.6,8.8-14.1,23.8-26.6C86.9,224.3,114.6,198.6,134.2,150.5L134.2,150.5z"/>
<path class="st1" d="M57.6,268.7c0,0,2.3,2.1,9.4-4.5c3.6-3.4,15.5-2.8,14.6-8c-0.9-5.6-6.5-10.6,2.3-16.7
	c-5.8,5.6-3.7,7.1-1.4,12.5c5.6,13.1-8.1,6.9-15.3,13.2C64,268.1,61.4,270.7,57.6,268.7L57.6,268.7z"/>
<path class="st1" d="M87.2,236.8c1.6-0.7,35.6-15.7,44.8-29.4s12.1-26.4,14.5-28c2.2-1.5,22,30.2,26,64.1
	c-4.5-13.6-17.9-55.9-24.8-54.3C145.6,189.7,146.5,215.7,87.2,236.8L87.2,236.8z"/>
<path class="st1" d="M210.2,144.3c0,0,4.6,5.8,14.8,2.3s7.9-15.2,5.4-20.8c-2.5-5.6-2.8-6-2.8-6s12.7,14.7,4.1,25.8
	C223.3,156.7,212.6,147.5,210.2,144.3L210.2,144.3z"/>
<path class="st1" d="M216.8,104.4c0,0,6.8-8.4,19.5-9.1c-9.2-1.2-18.5,4.3-20.2,6.5C214.3,104,217,104.4,216.8,104.4L216.8,104.4z"
	/>
<path class="st1" d="M243.4,84.1c0,0,9.4-3.2,12.8,6.4s-1.3,76.1-0.3,81.7c1,5.6,14.2,54.3,16.8,75.3c-3.6-22.8-21.3-73.7-21-78.4
	c0.2-3.8,3.4-42.8,3.4-62.3C255.1,98.4,254.5,84.1,243.4,84.1L243.4,84.1z"/>
<path class="st1" d="M109.4,257.5c-8.2,28.6,23.2,22.1,27.9,21.2c28.8-5.6,56.3-7.9,86-5.4c15.1,1.3,27.5,1.6,34.7,0.7
	c10-1.2,14.5,3.9,14.5,3.9s3.9-0.4-2.6-8c0.4,4.4,3.9,6.2-6.7,2.6c-10.6-3.7-16.2,2.7-35.3-0.5c-16.9-2.8-48.2-6.3-88.7,4.7
	C133.9,278.1,105.4,285.3,109.4,257.5L109.4,257.5z"/>
<path class="st1" d="M260.8,261.7c0,0,0-0.1,0-0.2c-0.2-0.7-1.3-3.1-9.5-4c-4.9-0.5-12.3-9.9-15.5-5.8c-3.5,4.4-3.5,11.9-13.8,9.3
	c8,0.7,7.6-1.9,10.1-7.2c5.9-12.9,10.4,1.7,19.8,2.9C256,257.2,259.7,257.5,260.8,261.7L260.8,261.7z"/>
<path class="st1" d="M113.3,252.1c28.6-28.1,93.4,3.3,101.7,7c-12.6-3.6-39.1-15.3-71.6-14.6C132.2,244.7,121.7,247.2,113.3,252.1
	L113.3,252.1z"/>
<path class="st1" d="M246.1,146.9c0,0-4.3,23.7-1.3,40c2.9,16.3,18.3,40,19,53.4c0.7,13.3-4.3,16.3-4.3,16.3s9.2-16.3-9.2-42.4
	C232,188.2,246.1,146.9,246.1,146.9L246.1,146.9z"/>
<path class="st1" d="M107.6,159.7c5.9-5.8,7.6-13,7.6-13l15.5-13.8c-4.1,4.3-10.8,10.9-14.2,13.8C115.2,150,112.3,156.1,107.6,159.7
	L107.6,159.7z M140.9,135.6c0,0,1.1,4.6-2.6,8c-3.7,3.4-5.1,3.5-8.1,7.5c-3,3.9-6.3,4.4-6.3,4.4s-1-0.4,1.2-2.7s5.1-7.3,4.1-8.3
	s-11.4,4.9-11.9,5.6c-0.5,0.7-4.5,8.5-8.2,9.9c-1.4,0.4-1.4,0.4-1.4,0.4s2.9,1.3,8.2-5.1c2-3.3,2.5-3.5,2.5-3.5l1.7-0.6l-2.8,4.3
	l-4.9,8.2c0,0,3.8-1.4,7.1-8.7c1.2-1.7,2.7-3.4,2.7-3.4l-2.3,3.8l0.1,8.2c0,0,2.1-5.2,1.1-7.9c2.7-2.8,3-3,3-3s-1.9,2.8-0.7,3.2
	c1.2,0.5,4.3,0.1,9.5-7.2C138.3,145.7,144.7,141.6,140.9,135.6L140.9,135.6z"/>
<path class="st1" d="M305.9,259.3c-7.9-2.1-12.8-7.5-12.8-7.5l-20.1-4.3c5.7,1.7,14.7,4.1,19,5C294.6,254.6,300,258.5,305.9,259.3
	L305.9,259.3z M265.3,254.8c0,0,1.2,4.5,6.1,5.6s6.1,0.5,10.6,2.5s7.6,0.7,7.6,0.7s0.7-0.8-2.3-1.7c-3-0.9-8-3.8-7.6-5.1
	c0.4-1.3,12.3-1.4,13-1.1c0.7,0.3,8,5.2,11.9,4.5c1.4-0.3,1.4-0.3,1.4-0.3s-1.9,2.6-9.6-0.4c-3.4-1.9-3.9-1.9-3.9-1.9l-1.8,0.3
	l4.5,2.4l8.2,4.7c0,0-3.9,0.7-10.4-4.1c-1.8-0.9-4-1.7-4-1.7l3.9,2.2l3.8,7.2c0,0-4.4-3.5-4.8-6.3c-3.7-1.1-4.1-1.1-4.1-1.1
	s3,1.5,2.2,2.5s-3.7,2.2-11.7-1.5C272.4,262.4,264.8,262,265.3,254.8L265.3,254.8z"/>
<path class="st1" d="M184.4,18.1c0,0,8.9-13.2,27.8-13s34.6,17.4,38,40.8c3.3,23.4,3.3,34.2,20.6,33.4c-8.5,2.1-20.4,1.3-23-18.7
	s-3.3-47.7-31.9-52.8C207.3,6.6,199.9,5.1,184.4,18.1L184.4,18.1z"/>
<path class="st1" d="M183.7,20.6c0,0-8.3,18,16.8,25.3s21.2,39.8,14.9,49c8.3-12.1,8.9-21,6.5-29.4
	C213.3,34.2,179.2,50.9,183.7,20.6L183.7,20.6z"/>
<text transform="matrix(0.982 0 0 1 -3.4092 334.4277)" class="st1 st2 st3"> WAXING &amp; BROWS</text>
<text transform="matrix(0.982 0 0 1 -3.4092 334.4277)" class="st4 st2 st3"> WAXING &amp; BROWS</text>
</svg>
