<?xml version="1.0" encoding="utf-8"?>
<!-- Generator: Adobe Illustrator 19.2.0, SVG Export Plug-In . SVG Version: 6.00 Build 0)  -->
<svg version="1.1" id="Слой_1" xmlns="http://www.w3.org/2000/svg" xmlns:xlink="http://www.w3.org/1999/xlink" x="0px" y="0px"
	 viewBox="0 0 200 200" style="enable-background:new 0 0 200 200;" xml:space="preserve">
<style type="text/css">
	.st0{fill:#565555;}
	.st1{fill:#FFFFFF;}
</style>
<circle class="st0" cx="100" cy="100" r="100"/>
<circle class="st1" cx="100" cy="100" r="95"/>
<circle class="st0" cx="100" cy="100" r="88.8"/>
<path class="st1" d="M135.8,132.2l0.3,2.3h-36c-34.3,0-36.1-0.1-36.1-1.8c0-1,0.3-2.2,0.7-2.5c0.4-0.4,16.4-0.6,35.7-0.5l35.1,0.3
	L135.8,132.2z"/>
<path class="st1" d="M133.6,139.8c-3,10.3-10.5,19.1-20.2,23.5c-6.8,3.1-17.2,3.5-25.1,0.9c-9.3-3.1-19.4-14.2-21.7-23.9l-0.7-2.7
	h34.2h34.1L133.6,139.8z"/>
<path class="st1" d="M138.1,51.8c0.7,0.8,1.1,2.7,0.9,4.2c-0.3,2.3-3.1,4.4-22.8,16c-12.4,7.3-22.9,13.5-23.5,13.7
	c-0.5,0.2,0,3.3,1.2,7.3c2.2,7.3,1.9,9.9-1.3,12.1c-1.7,1.1-2.4,1-4.3-0.3c-1.9-1.4-2.2-2.3-1.7-5.3c1.8-11.8,1.8-12.2,0.1-14.1
	c-0.9-1-1.5-3-1.3-4.6c0.3-2.5,2.8-4.3,23.3-16.6C131.4,50.7,135.7,48.9,138.1,51.8z"/>
</svg>
