<?xml version="1.0" standalone="no"?>
<!DOCTYPE svg PUBLIC "-//W3C//DTD SVG 1.1//EN" "http://www.w3.org/Graphics/SVG/1.1/DTD/svg11.dtd" >
<svg xmlns="http://www.w3.org/2000/svg" xmlns:xlink="http://www.w3.org/1999/xlink" version="1.1">
<metadata></metadata>
<defs>
<font id="droid_sans_monoregular" horiz-adv-x="1229" >
<font-face units-per-em="2048" ascent="1638" descent="-410" />
<missing-glyph horiz-adv-x="500" />
<glyph unicode="&#xd;" />
<glyph unicode=" " />
<glyph unicode="!" d="M487 111q0 139 127 139t127 -139q0 -140 -127 -140t-127 140zM504 1462h223l-51 -1048h-121z" />
<glyph unicode="&#x22;" d="M285 1462h237l-41 -528h-155zM707 1462h237l-41 -528h-155z" />
<glyph unicode="#" d="M45 428v137h244l65 328h-233v137h258l82 432h147l-82 -432h293l84 432h144l-84 -432h221v-137h-248l-64 -328h240v-137h-266l-82 -428h-148l84 428h-290l-82 -428h-144l78 428h-217zM436 565h291l64 328h-291z" />
<glyph unicode="$" d="M182 172v172q196 -92 365 -92v434q-193 64 -270.5 145.5t-77.5 219.5q0 131 92 217t256 106v180h137v-176q187 -9 336 -78l-66 -145q-140 62 -270 72v-422q199 -68 279.5 -148.5t80.5 -210.5q0 -280 -360 -335v-230h-137v221q-228 0 -365 70zM375 1049q0 -78 40.5 -121 t131.5 -74v369q-172 -29 -172 -174zM684 262q184 28 184 184q0 127 -184 189v-373z" />
<glyph unicode="%" d="M0 1133q0 164 79 255t216 91q129 0 210 -93t81 -253q0 -162 -78.5 -255.5t-216.5 -93.5q-131 0 -211 94.5t-80 254.5zM152 1133q0 -230 141 -230q139 0 139 230q0 225 -139 225q-141 0 -141 -225zM170 0l729 1462h158l-729 -1462h-158zM643 330q0 164 79 255t216 91 q129 0 210 -93t81 -253q0 -161 -78.5 -254.5t-216.5 -93.5q-130 0 -210.5 94.5t-80.5 253.5zM795 330q0 -230 141 -230q139 0 139 230q0 225 -139 225q-141 0 -141 -225z" />
<glyph unicode="&#x26;" d="M61 381q0 131 63.5 228.5t235.5 199.5q-163 192 -163 356q0 148 95.5 234t274.5 86q168 0 260.5 -85.5t92.5 -234.5q0 -203 -318 -389l281 -348q71 121 104 266h184q-53 -234 -178 -403l234 -291h-217l-131 166q-174 -186 -412 -186q-189 0 -297.5 107t-108.5 294z M252 387q0 -105 67 -175.5t160 -70.5q160 0 299 146l-323 401q-203 -123 -203 -301zM375 1165q0 -118 133 -268q134 79 183.5 138.5t49.5 133.5t-49.5 120t-130.5 46q-87 0 -136.5 -44.5t-49.5 -125.5z" />
<glyph unicode="'" d="M496 1462h237l-41 -528h-155z" />
<glyph unicode="(" d="M295 567q0 532 444 895h193q-449 -376 -449 -893q0 -521 447 -893h-191q-444 353 -444 891z" />
<glyph unicode=")" d="M297 1462h192q445 -361 445 -895q0 -540 -445 -891h-190q446 371 446 893q0 518 -448 893z" />
<glyph unicode="*" d="M133 1081l29 193l391 -111l-43 393h205l-43 -393l397 111l27 -193l-379 -28l246 -326l-179 -96l-176 358l-157 -358l-185 96l242 326z" />
<glyph unicode="+" d="M152 647v150h387v389h149v-389h387v-150h-387v-385h-149v385h-387z" />
<glyph unicode="," d="M440 -289q76 323 111 551h219l16 -24q-57 -224 -194 -527h-152z" />
<glyph unicode="-" d="M285 465v168h659v-168h-659z" />
<glyph unicode="." d="M463 135q0 166 151 166q152 0 152 -166t-152 -166q-151 0 -151 166z" />
<glyph unicode="/" d="M211 0l627 1462h178l-627 -1462h-178z" />
<glyph unicode="0" d="M147 733q0 752 465 752q232 0 350.5 -193.5t118.5 -558.5q0 -753 -469 -753q-229 0 -347 193.5t-118 559.5zM332 733q0 -318 67.5 -458t212.5 -140q147 0 216 140.5t69 457.5q0 315 -69 455.5t-216 140.5q-145 0 -212.5 -139.5t-67.5 -456.5z" />
<glyph unicode="1" d="M225 1163l383 299h150v-1462h-176v913q0 122 8 361q-39 -43 -121 -113l-147 -121z" />
<glyph unicode="2" d="M158 0v156l350 381q195 213 257 317.5t62 230.5q0 113 -63.5 178.5t-171.5 65.5q-160 0 -318 -137l-102 119q192 172 422 172q194 0 306 -106t112 -285q0 -119 -59 -244t-291 -375l-281 -299v-8h688v-166h-911z" />
<glyph unicode="3" d="M131 59v170q184 -96 383 -96q354 0 354 289q0 258 -381 258h-133v151h133q160 0 248 76t88 201q0 102 -68 161.5t-182 59.5q-178 0 -344 -121l-92 125q187 150 436 150q206 0 321.5 -99t115.5 -264q0 -138 -82 -231t-234 -119v-6q361 -47 361 -348q0 -203 -138 -319.5 t-399 -116.5q-242 0 -387 79z" />
<glyph unicode="4" d="M61 328v159l664 983h188v-976h213v-166h-213v-328h-176v328h-676zM240 494h497v356q0 176 13 432h-9q-36 -102 -90 -180z" />
<glyph unicode="5" d="M172 59v172q144 -96 360 -96q336 0 336 314q0 294 -344 294q-89 0 -231 -26l-90 57l55 688h690v-166h-532l-39 -419q107 20 209 20q210 0 339.5 -114.5t129.5 -313.5q0 -234 -138 -361.5t-389 -127.5q-224 0 -356 79z" />
<glyph unicode="6" d="M154 625q0 858 639 858q104 0 172 -19v-155q-71 24 -166 24q-224 0 -336.5 -141t-122.5 -447h12q95 170 307 170q195 0 305.5 -119t110.5 -325q0 -228 -120.5 -359.5t-323.5 -131.5q-218 0 -347.5 168.5t-129.5 476.5zM336 506q0 -152 81 -262.5t212 -110.5 q127 0 198.5 88t71.5 250q0 145 -68.5 223t-195.5 78t-213 -81t-86 -185z" />
<glyph unicode="7" d="M143 1296v166h940v-145l-555 -1317h-194l563 1296h-754z" />
<glyph unicode="8" d="M156 373q0 257 282 393q-235 146 -235 369q0 161 116.5 255.5t294.5 94.5q184 0 298 -95t114 -257q0 -230 -262 -359q309 -160 309 -393q0 -181 -126 -291t-333 -110q-216 0 -337 103.5t-121 289.5zM334 371q0 -240 276 -240q136 0 210.5 65.5t74.5 182.5q0 90 -63 159.5 t-214 143.5l-30 14q-254 -121 -254 -325zM381 1126q0 -90 49.5 -152.5t185.5 -125.5q232 103 232 278q0 101 -63 154t-173 53q-106 0 -168.5 -53t-62.5 -154z" />
<glyph unicode="9" d="M154 991q0 228 120.5 360t323.5 132q220 0 348.5 -171t128.5 -474q0 -858 -639 -858q-105 0 -172 18v156q67 -25 166 -25q224 0 336.5 141t122.5 447h-12q-96 -170 -308 -170q-194 0 -304.5 118t-110.5 326zM330 991q0 -145 68.5 -223t195.5 -78t213 81.5t86 184.5 q0 151 -80 262t-213 111q-128 0 -199 -87t-71 -251z" />
<glyph unicode=":" d="M487 111q0 139 127 139t127 -139q0 -140 -127 -140t-127 140zM487 987q0 139 127 139t127 -139t-127 -139t-127 139z" />
<glyph unicode=";" d="M410 -264q62 255 100 502h199l14 -23q-51 -197 -176 -479h-137zM494 987q0 139 127 139t127 -139t-127 -139t-127 139z" />
<glyph unicode="&#x3c;" d="M152 672v102l923 451v-160l-715 -342l715 -342v-160z" />
<glyph unicode="=" d="M152 442v150h923v-150h-923zM152 852v149h923v-149h-923z" />
<glyph unicode="&#x3e;" d="M152 221v160l714 342l-714 342v160l923 -451v-102z" />
<glyph unicode="?" d="M168 1386q209 97 426 97q214 0 339.5 -97.5t125.5 -261.5q0 -133 -53.5 -216t-196.5 -191q-118 -87 -151 -141t-33 -144v-18h-160v37q0 120 46 195t161 157q130 97 171.5 155t41.5 158q0 92 -74.5 149.5t-206.5 57.5q-174 0 -371 -90zM426 111q0 139 127 139t127 -139 q0 -140 -127 -140t-127 140z" />
<glyph unicode="@" d="M31 602q0 397 167 628.5t455 231.5q248 0 396.5 -196t148.5 -535q0 -231 -64 -370.5t-178 -139.5q-128 0 -157 180h-4q-74 -180 -230 -180q-120 0 -190 104.5t-70 280.5q0 206 97 332.5t255 126.5q137 0 256 -47l-22 -416q-2 -38 -2 -69v-7q0 -176 72 -176q100 0 100 383 q0 278 -111 436t-299 158q-226 0 -352.5 -192t-126.5 -527q0 -312 129.5 -482.5t368.5 -170.5q181 0 346 78v-133q-158 -82 -352 -82q-298 0 -465.5 207t-167.5 577zM465 602q0 -252 127 -252q131 0 145 312l15 253q-54 21 -103 21q-89 0 -136.5 -93.5t-47.5 -240.5z" />
<glyph unicode="A" d="M33 0l483 1468h195l485 -1468h-192l-144 453h-491l-146 -453h-190zM422 618h385l-133 424q-39 124 -62 226q-20 -99 -46 -183z" />
<glyph unicode="B" d="M135 0v1462h440q274 0 397.5 -87.5t123.5 -282.5q0 -128 -78.5 -213t-212.5 -103v-10q332 -54 332 -342q0 -198 -127.5 -311t-347.5 -113h-527zM322 158h307q311 0 311 274q0 254 -324 254h-294v-528zM322 842h284q156 0 227.5 55t71.5 182q0 120 -76.5 172t-242.5 52 h-264v-461z" />
<glyph unicode="C" d="M129 733q0 346 179 548t489 202q220 0 383 -86l-78 -156q-154 78 -305 78q-215 0 -343 -158.5t-128 -429.5q0 -287 120 -437.5t351 -150.5q130 0 327 58v-162q-146 -59 -358 -59q-309 0 -473 196t-164 557z" />
<glyph unicode="D" d="M135 0v1462h342q317 0 493.5 -189t176.5 -528q0 -361 -183 -553t-528 -192h-301zM322 160h96q532 0 532 579q0 564 -493 564h-135v-1143z" />
<glyph unicode="E" d="M217 0v1462h842v-164h-656v-452h617v-162h-617v-520h656v-164h-842z" />
<glyph unicode="F" d="M244 0v1462h841v-164h-655v-516h617v-164h-617v-618h-186z" />
<glyph unicode="G" d="M117 733q0 351 162 550.5t446 199.5q192 0 346 -86l-72 -162q-146 84 -280 84q-192 0 -299 -155.5t-107 -432.5q0 -588 394 -588q97 0 202 29v436h-237v164h422v-717q-195 -75 -420 -75q-262 0 -409.5 199.5t-147.5 553.5z" />
<glyph unicode="H" d="M135 0v1462h187v-616h585v616h187v-1462h-187v682h-585v-682h-187z" />
<glyph unicode="I" d="M225 0v123l295 20v1176l-295 20v123h776v-123l-294 -20v-1176l294 -20v-123h-776z" />
<glyph unicode="J" d="M137 39v166q162 -62 309 -62q161 0 254 79.5t93 226.5v1013h186v-1011q0 -216 -140.5 -343.5t-377.5 -127.5q-217 0 -324 59z" />
<glyph unicode="K" d="M211 0v1462h186v-731l121 168l453 563h209l-521 -637l539 -825h-211l-450 698l-140 -114v-584h-186z" />
<glyph unicode="L" d="M233 0v1462h187v-1296h635v-166h-822z" />
<glyph unicode="M" d="M113 0v1462h247l248 -1192h6l250 1192h252v-1462h-153v887q0 102 14 391h-8l-283 -1278h-154l-278 1280h-8q18 -266 18 -406v-874h-151z" />
<glyph unicode="N" d="M135 0v1462h213l578 -1204h6q-14 303 -14 404v800h174v-1462h-215l-580 1210h-8q18 -277 18 -417v-793h-172z" />
<glyph unicode="O" d="M84 735q0 750 534 750q256 0 392.5 -195.5t136.5 -556.5t-138 -557t-393 -196q-532 0 -532 755zM281 733q0 -590 335 -590q173 0 253.5 145t80.5 445q0 303 -81.5 445.5t-250.5 142.5q-337 0 -337 -588z" />
<glyph unicode="P" d="M176 0v1462h404q514 0 514 -428q0 -219 -138.5 -342t-402.5 -123h-191v-569h-186zM362 727h170q198 0 283.5 72t85.5 225q0 279 -338 279h-201v-576z" />
<glyph unicode="Q" d="M84 735q0 750 534 750q256 0 392.5 -195.5t136.5 -556.5q0 -526 -285 -694q85 -180 279 -311l-121 -142q-236 171 -328 400q-36 -6 -76 -6q-532 0 -532 755zM281 733q0 -590 335 -590q173 0 253.5 145t80.5 445q0 303 -81.5 445.5t-250.5 142.5q-337 0 -337 -588z" />
<glyph unicode="R" d="M186 0v1462h357q520 0 520 -415q0 -287 -289 -392l397 -655h-219l-350 604h-229v-604h-187zM373 762h164q171 0 252 66t81 210q0 141 -80 203t-258 62h-159v-541z" />
<glyph unicode="S" d="M141 49v178q211 -86 414 -86q350 0 350 240q0 104 -70.5 160t-285.5 133q-208 73 -298.5 174.5t-90.5 263.5q0 174 128.5 272.5t352.5 98.5q229 0 416 -78l-64 -164q-193 78 -360 78q-293 0 -293 -209q0 -102 65.5 -164t270.5 -133q246 -88 328.5 -181.5t82.5 -240.5 q0 -192 -138.5 -301.5t-393.5 -109.5q-265 0 -414 69z" />
<glyph unicode="T" d="M102 1298v164h1022v-164h-417v-1298h-187v1298h-418z" />
<glyph unicode="U" d="M125 520v942h186v-932q0 -387 307 -387q295 0 300 389v932h186v-948q0 -260 -126 -398t-370 -138q-483 0 -483 540z" />
<glyph unicode="V" d="M33 1462h196l295 -927q41 -127 88 -334q31 145 93 340l292 921h199l-489 -1462h-187z" />
<glyph unicode="W" d="M2 1462h170l88 -663q23 -176 40 -378t17 -241q24 151 70 312l141 516h177l145 -521q61 -219 72 -307q2 53 65 619l70 663h170l-187 -1462h-190l-168 580q-40 138 -66 282q-32 -173 -65 -284l-156 -578h-190z" />
<glyph unicode="X" d="M53 0l453 764l-422 698h199l331 -559l334 559h191l-422 -692l457 -770h-211l-355 635l-366 -635h-189z" />
<glyph unicode="Y" d="M33 1462h203l376 -739l381 739h201l-487 -893v-569h-187v559z" />
<glyph unicode="Z" d="M102 0v145l793 1151h-772v166h981v-145l-793 -1151h813v-166h-1022z" />
<glyph unicode="[" d="M412 -324v1786h528v-149h-346v-1487h346v-150h-528z" />
<glyph unicode="\" d="M211 1462h178l627 -1462h-178z" />
<glyph unicode="]" d="M289 -174h346v1487h-346v149h528v-1786h-528v150z" />
<glyph unicode="^" d="M111 549l424 924h102l481 -924h-162l-368 735l-318 -735h-159z" />
<glyph unicode="_" d="M-16 -184h1259v-140h-1259v140z" />
<glyph unicode="`" d="M418 1548v21h219q86 -178 174 -301v-27h-121q-166 142 -272 307z" />
<glyph unicode="a" d="M135 307q0 332 510 348l203 7v69q0 236 -244 236q-147 0 -328 -82l-63 137q196 96 383 96q227 0 328.5 -87t101.5 -279v-752h-131l-37 152h-8q-77 -97 -158 -134.5t-209 -37.5q-163 0 -255.5 86t-92.5 241zM324 305q0 -178 200 -178q147 0 234.5 81.5t87.5 229.5v99 l-162 -7q-196 -8 -278 -61.5t-82 -163.5z" />
<glyph unicode="b" d="M158 0v1556h182v-376q0 -81 -8 -226h8q107 164 322 164q201 0 315.5 -149.5t114.5 -417.5q0 -270 -115 -420.5t-315 -150.5q-207 0 -322 159h-12l-37 -139h-133zM340 551q0 -227 69.5 -323.5t221.5 -96.5q272 0 272 422q0 414 -274 414q-155 0 -222 -94t-67 -322z" />
<glyph unicode="c" d="M172 543q0 281 145 428t408 147q178 0 336 -59l-62 -158q-150 57 -268 57q-371 0 -371 -413q0 -406 361 -406q157 0 321 62v-160q-134 -61 -329 -61q-257 0 -399 145.5t-142 417.5z" />
<glyph unicode="d" d="M137 547q0 270 115 420.5t315 150.5q206 0 322 -160h12q-12 129 -12 162v436h182v-1556h-147l-27 147h-8q-113 -167 -322 -167q-201 0 -315.5 149.5t-114.5 417.5zM326 545q0 -414 274 -414q152 0 218.5 88.5t70.5 286.5v41q0 227 -69.5 323.5t-221.5 96.5 q-272 0 -272 -422z" />
<glyph unicode="e" d="M133 541q0 266 135.5 421.5t362.5 155.5q212 0 338.5 -134t126.5 -357v-113h-774q8 -375 344 -375q195 0 370 76v-160q-166 -75 -364 -75q-245 0 -392 149.5t-147 411.5zM326 662h573q0 305 -272 305q-275 0 -301 -305z" />
<glyph unicode="f" d="M156 961v110l317 33v96q0 193 90 280t299 87q129 0 252 -35l-41 -143q-104 28 -207 28q-123 0 -167 -50t-44 -165v-104h389v-137h-389v-961h-182v961h-317z" />
<glyph unicode="g" d="M102 -186q0 212 240 270q-96 47 -96 154q0 112 133 192q-89 37 -140 122.5t-51 186.5q0 182 106.5 280.5t303.5 98.5q86 0 150 -20h378v-113l-196 -27q65 -85 65 -213q0 -161 -106.5 -256.5t-296.5 -95.5q-55 0 -86 6q-100 -56 -100 -133q0 -84 161 -84h187 q174 0 266 -77t92 -220q0 -377 -565 -377q-218 0 -331.5 80.5t-113.5 225.5zM274 -180q0 -174 271 -174q395 0 395 223q0 88 -50 118.5t-198 30.5h-188q-230 0 -230 -198zM367 745q0 -227 227 -227q223 0 223 230q0 239 -225 239t-225 -242z" />
<glyph unicode="h" d="M160 0v1556h182v-462l-8 -144h10q103 168 336 168q389 0 389 -401v-717h-182v707q0 260 -238 260q-307 0 -307 -398v-569h-182z" />
<glyph unicode="i" d="M197 0v123l344 20v811l-269 21v123h451v-955l352 -20v-123h-878zM526 1436q0 114 107 114q106 0 106 -114q0 -58 -31.5 -86.5t-74.5 -28.5q-107 0 -107 115z" />
<glyph unicode="j" d="M135 -303q134 -39 289 -39q117 0 182.5 57t65.5 158v1081l-420 21v123h602v-1215q0 -180 -113 -277.5t-319 -97.5q-164 0 -287 35v154zM637 1436q0 114 106 114q107 0 107 -114q0 -115 -107 -115q-106 0 -106 115z" />
<glyph unicode="k" d="M215 0v1556h180v-714l-16 -289h4l135 152l395 393h222l-494 -475l522 -623h-213l-426 504l-129 -82v-422h-180z" />
<glyph unicode="l" d="M188 0v123l344 20v1270l-268 21v122h451v-1413l352 -20v-123h-879z" />
<glyph unicode="m" d="M92 0v1098h127l27 -148h10q67 168 201 168q163 0 213 -182h6q76 182 219 182q128 0 186 -92.5t58 -308.5v-717h-162v707q0 146 -26.5 203t-88.5 57q-87 0 -126.5 -83t-39.5 -278v-606h-161v707q0 260 -125 260q-84 0 -120 -79.5t-36 -318.5v-569h-162z" />
<glyph unicode="n" d="M160 0v1098h147l27 -148h10q103 168 336 168q389 0 389 -401v-717h-182v707q0 260 -238 260q-307 0 -307 -398v-569h-182z" />
<glyph unicode="o" d="M115 551q0 263 135.5 415t365.5 152q218 0 357 -155t139 -412q0 -265 -137 -418t-365 -153q-216 0 -355.5 155.5t-139.5 415.5zM303 551q0 -420 311 -420q310 0 310 420q0 416 -312 416q-309 0 -309 -416z" />
<glyph unicode="p" d="M158 -492v1590h147l27 -148h8q110 168 322 168q201 0 315.5 -149.5t114.5 -417.5q0 -270 -115 -420.5t-315 -150.5q-207 0 -322 159h-12q12 -129 12 -162v-469h-182zM340 551q0 -227 69.5 -323.5t221.5 -96.5q272 0 272 422q0 414 -274 414q-152 0 -218.5 -88t-70.5 -287 v-41z" />
<glyph unicode="q" d="M137 547q0 270 115 420.5t315 150.5q207 0 322 -168h8l27 148h147v-1590h-182v469q0 41 12 170h-12q-113 -167 -322 -167q-201 0 -315.5 149.5t-114.5 417.5zM326 545q0 -414 274 -414q152 0 218.5 88.5t70.5 286.5v41q0 227 -69.5 323.5t-221.5 96.5q-272 0 -272 -422z " />
<glyph unicode="r" d="M264 0v1098h148l22 -201h8q76 119 163 170t214 51q118 0 240 -45l-49 -166q-123 45 -224 45q-163 0 -251.5 -92.5t-88.5 -267.5v-592h-182z" />
<glyph unicode="s" d="M203 49v166q193 -86 370 -86q275 0 275 162q0 57 -49 99t-226 106q-233 87 -293.5 159.5t-60.5 171.5q0 136 111.5 213.5t308.5 77.5q198 0 369 -74l-60 -149q-182 72 -319 72q-236 0 -236 -133q0 -61 50.5 -97.5t232.5 -101.5q211 -77 280.5 -151.5t69.5 -182.5 q0 -150 -117 -235.5t-331 -85.5q-248 0 -375 69z" />
<glyph unicode="t" d="M139 961v94l267 49l77 287h105v-293h438v-137h-438v-637q0 -195 192 -195q93 0 240 21v-138q-130 -32 -252 -32q-362 0 -362 344v637h-267z" />
<glyph unicode="u" d="M160 381v717h182v-707q0 -260 236 -260q161 0 235 92.5t74 304.5v570h182v-1098h-147l-27 147h-10q-105 -167 -334 -167q-391 0 -391 401z" />
<glyph unicode="v" d="M82 1098h188l240 -652q85 -231 100 -325h6q7 44 101 325l239 652h189l-416 -1098h-231z" />
<glyph unicode="w" d="M-4 1098h162l98 -543q34 -186 57 -393h6q31 185 68 358l133 578h193l127 -578q43 -195 67 -358h6q31 242 60 393l102 543h158l-225 -1098h-195l-131 596l-68 330h-6l-65 -334l-135 -592h-189z" />
<glyph unicode="x" d="M96 0l414 563l-393 535h207l290 -410l291 410h207l-395 -535l413 -563h-206l-310 436l-311 -436h-207z" />
<glyph unicode="y" d="M82 1098h188l262 -654q82 -205 89 -290h6q23 112 90 292l239 652h189l-475 -1241q-67 -174 -156 -261.5t-246 -87.5q-86 0 -168 17v145q62 -12 136 -12q96 0 149.5 41t95.5 141l58 150z" />
<glyph unicode="z" d="M182 0v125l660 836h-627v137h811v-146l-647 -815h665v-137h-862z" />
<glyph unicode="{" d="M225 492v155q338 0 338 189v333q0 287 438 293v-149q-144 -2 -200 -39.5t-56 -118.5v-332q0 -207 -233 -248v-12q233 -41 233 -248v-331q0 -81 56 -118.5t200 -39.5v-150q-438 6 -438 293v334q0 189 -338 189z" />
<glyph unicode="|" d="M539 -492v2048h149v-2048h-149z" />
<glyph unicode="}" d="M227 -174q143 1 199.5 39t56.5 119v331q0 207 234 248v12q-234 41 -234 248v332q0 81 -56.5 119t-199.5 39v149q439 -6 439 -293v-333q0 -189 338 -189v-155q-338 0 -338 -189v-334q0 -287 -439 -293v150z" />
<glyph unicode="~" d="M152 586v162q99 108 247 108q100 0 248 -63q130 -56 201 -56q108 0 227 121v-162q-99 -108 -248 -108q-100 0 -247 63q-131 56 -201 56q-108 0 -227 -121z" />
<glyph unicode="&#xa0;" />
<glyph unicode="&#xa1;" d="M487 979q0 139 127 139t127 -139t-127 -139t-127 139zM502 -373l51 1049h121l51 -1049h-223z" />
<glyph unicode="&#xa2;" d="M172 743q0 494 434 568v172h137v-164q162 -3 318 -59l-62 -158q-150 57 -268 57q-371 0 -371 -414q0 -405 361 -405q153 0 321 61v-159q-122 -59 -299 -62v-200h-137v206q-434 69 -434 557z" />
<glyph unicode="&#xa3;" d="M119 0v154q200 49 200 284v213h-198v137h198v324q0 168 108.5 268.5t289.5 100.5q192 0 346 -80l-66 -144q-141 72 -272 72q-223 0 -223 -246v-295h377v-137h-377v-211q0 -196 -140 -274h748v-166h-991z" />
<glyph unicode="&#xa4;" d="M174 1065l98 98l127 -129q101 68 215 68t213 -68l129 129l99 -96l-129 -129q67 -101 67 -215q0 -120 -67 -215l127 -127l-97 -96l-129 127q-99 -66 -213 -66q-118 0 -215 68l-127 -127l-96 96l127 127q-65 95 -65 213q0 114 65 213zM375 723q0 -100 70.5 -170t168.5 -70 q100 0 172 70t72 170q0 101 -71.5 172.5t-172.5 71.5q-99 0 -169 -71t-70 -173z" />
<glyph unicode="&#xa5;" d="M78 1462h192l342 -739l346 739h191l-385 -768h240v-137h-302v-158h302v-137h-302v-262h-178v262h-301v137h301v158h-301v137h234z" />
<glyph unicode="&#xa6;" d="M539 289h149v-781h-149v781zM539 776v780h149v-780h-149z" />
<glyph unicode="&#xa7;" d="M244 55v158q171 -82 323 -82q240 0 240 141q0 57 -43 97t-195 102q-197 84 -253 159t-56 179q0 179 160 258q-160 80 -160 236q0 120 104 192t277 72q162 0 326 -72l-56 -139q-156 67 -276 67q-201 0 -201 -116q0 -54 49.5 -93t196.5 -100q157 -62 231 -139.5t74 -190.5 q0 -182 -145 -270q145 -80 145 -225q0 -138 -110.5 -218.5t-307.5 -80.5q-204 0 -323 65zM414 831q0 -73 56.5 -126.5t207.5 -116.5l35 -15q114 76 114 185q0 89 -73.5 144.5t-206.5 103.5q-133 -48 -133 -175z" />
<glyph unicode="&#xa8;" d="M330 1395q0 102 96 102t96 -102q0 -103 -96 -103t-96 103zM705 1395q0 102 96 102t96 -102q0 -103 -96 -103t-96 103z" />
<glyph unicode="&#xa9;" d="M6 731q0 343 160.5 547.5t447.5 204.5q286 0 447.5 -204t161.5 -548q0 -345 -162 -548t-447 -203q-286 0 -447 203.5t-161 547.5zM115 731q0 -301 129.5 -472t369.5 -171t370 170.5t130 472.5t-130 472.5t-370 170.5t-369.5 -171t-129.5 -472zM248 733q0 209 110 332 t301 123q128 0 254 -62l-61 -127q-110 54 -193 54q-121 0 -186 -85.5t-65 -236.5q0 -323 251 -323q94 0 215 45v-131q-107 -50 -221 -50q-195 0 -300 123.5t-105 337.5z" />
<glyph unicode="&#xaa;" d="M276 989q0 116 85 167.5t276 57.5l125 5v10q0 133 -152 133q-112 0 -245 -51l-41 110q138 58 294 58q291 0 291 -238v-444h-110l-33 118q-104 -131 -268 -131q-222 0 -222 205zM428 987q0 -90 104 -90q105 0 167.5 55t62.5 146v20l-100 -2q-114 -2 -174 -28t-60 -101z " />
<glyph unicode="&#xab;" d="M197 526v27l309 414l117 -78l-238 -348l238 -348l-117 -78zM604 526v27l309 414l117 -78l-237 -348l237 -348l-117 -78z" />
<glyph unicode="&#xac;" d="M152 647v150h923v-535h-149v385h-774z" />
<glyph unicode="&#xad;" d="M285 465v168h659v-168h-659z" />
<glyph unicode="&#xae;" d="M6 731q0 343 160.5 547.5t447.5 204.5q286 0 447.5 -204t161.5 -548q0 -345 -162 -548t-447 -203q-286 0 -447 203.5t-161 547.5zM115 731q0 -301 129.5 -472t369.5 -171t370 170.5t130 472.5t-130 472.5t-370 170.5t-369.5 -171t-129.5 -472zM348 285v893h234 q325 0 325 -265q0 -163 -159 -233l237 -395h-178l-207 352h-94v-352h-158zM506 768h72q170 0 170 141q0 74 -42 103.5t-131 29.5h-69v-274z" />
<glyph unicode="&#xaf;" d="M-20 1556v140h1269v-140h-1269z" />
<glyph unicode="&#xb0;" d="M299 1167q0 129 92.5 222.5t222.5 93.5q129 0 222.5 -93.5t93.5 -222.5t-93 -221t-223 -92q-131 0 -223 92.5t-92 220.5zM422 1167q0 -78 56 -134t136 -56q79 0 136 56t57 134q0 81 -57.5 138t-135.5 57q-79 0 -135.5 -57.5t-56.5 -137.5z" />
<glyph unicode="&#xb1;" d="M152 0v150h923v-150h-923zM152 647v150h387v389h149v-389h387v-150h-387v-385h-149v385h-387z" />
<glyph unicode="&#xb2;" d="M348 672v102l187 199q111 118 141.5 168.5t30.5 107.5q0 115 -111 115q-81 0 -164 -76l-78 86q117 103 248 103q118 0 183 -60t65 -164q0 -66 -35 -134t-164 -197l-135 -136h363v-114h-531z" />
<glyph unicode="&#xb3;" d="M342 705v124q110 -65 203 -65q149 0 149 137q0 125 -147 125h-72v104h70q123 0 123 127q0 111 -97 111q-71 0 -161 -70l-66 86q111 93 238 93q109 0 173 -54.5t64 -148.5q0 -139 -149 -189q176 -39 176 -186q0 -116 -74.5 -180t-214.5 -64q-131 0 -215 50z" />
<glyph unicode="&#xb4;" d="M418 1241v27q94 133 174 301h219v-21q-112 -173 -272 -307h-121z" />
<glyph unicode="&#xb5;" d="M180 -492v1590h182v-707q0 -260 218 -260q148 0 217 91t69 306v570h183v-1098h-148l-27 147h-10q-96 -167 -295 -167q-139 0 -213 88q6 -153 6 -240v-320h-182z" />
<glyph unicode="&#xb6;" d="M66 1042q0 259 108.5 386.5t341.5 127.5h563v-1816h-121v1657h-206v-1657h-121v819q-61 -18 -146 -18q-419 0 -419 501z" />
<glyph unicode="&#xb7;" d="M487 723q0 139 127 139t127 -139t-127 -139t-127 139z" />
<glyph unicode="&#xb8;" d="M428 -375q33 -6 80 -6q151 0 151 92q0 74 -172 113l91 176h120l-57 -115q160 -37 160 -172q0 -205 -291 -205q-34 0 -82 9v108z" />
<glyph unicode="&#xb9;" d="M367 1309l219 151h135v-788h-146v465q0 69 9 200q-41 -44 -74 -65l-70 -51z" />
<glyph unicode="&#xba;" d="M281 1133q0 162 90 254t245 92q145 0 238.5 -92.5t93.5 -253.5q0 -165 -92 -257t-244 -92q-144 0 -237.5 93t-93.5 256zM432 1133q0 -230 182 -230q181 0 181 230q0 225 -181 225q-182 0 -182 -225z" />
<glyph unicode="&#xbb;" d="M197 193l237 348l-237 348l116 78l310 -414v-27l-310 -411zM604 193l238 348l-238 348l117 78l309 -414v-27l-309 -411z" />
<glyph unicode="&#xbc;" d="M22 1309l219 151h135v-788h-146v465q0 69 9 200q-41 -44 -74 -65l-70 -51zM170 0l729 1462h158l-729 -1462h-158zM606 175v98l377 523h141v-508h84v-113h-84v-174h-143v174h-375zM751 288h230v176q0 82 6 172q-40 -73 -80 -131z" />
<glyph unicode="&#xbd;" d="M3 1309l219 151h135v-788h-146v465q0 69 9 200q-41 -44 -74 -65l-70 -51zM105 0l729 1462h158l-729 -1462h-158zM694 1v102l187 199q111 118 141.5 168.5t30.5 107.5q0 115 -111 115q-81 0 -164 -76l-78 86q117 103 248 103q118 0 183 -60t65 -164q0 -66 -35 -134 t-164 -197l-135 -136h363v-114h-531z" />
<glyph unicode="&#xbe;" d="M21 705v124q110 -65 203 -65q149 0 149 137q0 125 -147 125h-72v104h70q123 0 123 127q0 111 -97 111q-71 0 -161 -70l-66 86q111 93 238 93q109 0 173 -54.5t64 -148.5q0 -139 -149 -189q176 -39 176 -186q0 -116 -74.5 -180t-214.5 -64q-131 0 -215 50zM223 0l729 1462 h158l-729 -1462h-158zM627 175v98l377 523h141v-508h84v-113h-84v-174h-143v174h-375zM772 288h230v176q0 82 6 172q-40 -73 -80 -131z" />
<glyph unicode="&#xbf;" d="M168 -35q0 134 53.5 217t196.5 191q119 87 151.5 140.5t32.5 143.5v19h160v-37q0 -119 -44.5 -193.5t-162.5 -158.5q-129 -97 -171 -155t-42 -159q0 -93 74.5 -149.5t206.5 -56.5q181 0 370 90l62 -144q-219 -106 -422 -106q-217 0 -341 97.5t-124 260.5zM547 979 q0 139 127 139t127 -139t-127 -139t-127 139z" />
<glyph unicode="&#xc0;" d="M33 0l483 1468h195l485 -1468h-192l-144 453h-491l-146 -453h-190zM341 1886v21h219q86 -178 174 -301v-27h-121q-166 142 -272 307zM422 618h385l-133 424q-39 124 -62 226q-20 -99 -46 -183z" />
<glyph unicode="&#xc1;" d="M33 0l483 1468h195l485 -1468h-192l-144 453h-491l-146 -453h-190zM422 618h385l-133 424q-39 124 -62 226q-20 -99 -46 -183zM520 1579v27q94 133 174 301h219v-21q-112 -173 -272 -307h-121z" />
<glyph unicode="&#xc2;" d="M33 0l483 1468h195l485 -1468h-192l-144 453h-491l-146 -453h-190zM283 1579v27q25 29 59 67q139 155 176 234h193q37 -79 176 -234l59 -67v-27h-121q-85 56 -211 186q-133 -136 -211 -186h-120zM422 618h385l-133 424q-39 124 -62 226q-20 -99 -46 -183z" />
<glyph unicode="&#xc3;" d="M33 0l483 1468h195l485 -1468h-192l-144 453h-491l-146 -453h-190zM253 1579q25 264 211 264q58 0 161 -56q102 -56 136 -56q80 0 106 114h105q-27 -264 -211 -264q-57 0 -157 57q-100 56 -140 56q-82 0 -107 -115h-104zM422 618h385l-133 424q-39 124 -62 226 q-20 -99 -46 -183z" />
<glyph unicode="&#xc4;" d="M33 0l483 1468h195l485 -1468h-192l-144 453h-491l-146 -453h-190zM330 1733q0 102 96 102t96 -102q0 -103 -96 -103t-96 103zM422 618h385l-133 424q-39 124 -62 226q-20 -99 -46 -183zM705 1733q0 102 96 102t96 -102q0 -103 -96 -103t-96 103z" />
<glyph unicode="&#xc5;" d="M33 0l483 1468h195l485 -1468h-192l-144 453h-491l-146 -453h-190zM387 1581q0 99 60.5 157t162.5 58q101 0 165.5 -59t64.5 -154q0 -98 -63.5 -157.5t-166.5 -59.5q-102 0 -162.5 58t-60.5 157zM422 618h385l-133 424q-39 124 -62 226q-20 -99 -46 -183zM498 1581 q0 -113 112 -113q50 0 81.5 30t31.5 83t-31.5 83t-81.5 30q-49 0 -80.5 -30t-31.5 -83z" />
<glyph unicode="&#xc6;" d="M0 0l338 1462h872v-164h-477v-452h438v-162h-438v-520h477v-164h-653v453h-289l-96 -453h-172zM305 618h252v680h-106z" />
<glyph unicode="&#xc7;" d="M129 733q0 346 179 548t489 202q220 0 383 -86l-78 -156q-154 78 -305 78q-215 0 -343 -158.5t-128 -429.5q0 -287 120 -437.5t351 -150.5q130 0 327 58v-162q-146 -59 -358 -59q-309 0 -473 196t-164 557zM508 -375q33 -6 80 -6q151 0 151 92q0 74 -172 113l91 176h120 l-57 -115q160 -37 160 -172q0 -205 -291 -205q-34 0 -82 9v108z" />
<glyph unicode="&#xc8;" d="M217 0v1462h842v-164h-656v-452h617v-162h-617v-520h656v-164h-842zM345 1886v21h219q86 -178 174 -301v-27h-121q-166 142 -272 307z" />
<glyph unicode="&#xc9;" d="M217 0v1462h842v-164h-656v-452h617v-162h-617v-520h656v-164h-842zM481 1579v27q94 133 174 301h219v-21q-112 -173 -272 -307h-121z" />
<glyph unicode="&#xca;" d="M217 0v1462h842v-164h-656v-452h617v-162h-617v-520h656v-164h-842zM318 1579v27q25 29 59 67q139 155 176 234h193q37 -79 176 -234l59 -67v-27h-121q-85 56 -211 186q-133 -136 -211 -186h-120z" />
<glyph unicode="&#xcb;" d="M217 0v1462h842v-164h-656v-452h617v-162h-617v-520h656v-164h-842zM355 1733q0 102 96 102t96 -102q0 -103 -96 -103t-96 103zM730 1733q0 102 96 102t96 -102q0 -103 -96 -103t-96 103z" />
<glyph unicode="&#xcc;" d="M225 0v123l295 20v1176l-295 20v123h776v-123l-294 -20v-1176l294 -20v-123h-776zM310 1886v21h219q86 -178 174 -301v-27h-121q-166 142 -272 307z" />
<glyph unicode="&#xcd;" d="M225 0v123l295 20v1176l-295 20v123h776v-123l-294 -20v-1176l294 -20v-123h-776zM537 1579v27q94 133 174 301h219v-21q-112 -173 -272 -307h-121z" />
<glyph unicode="&#xce;" d="M225 0v123l295 20v1176l-295 20v123h776v-123l-294 -20v-1176l294 -20v-123h-776zM283 1579v27q25 29 59 67q139 155 176 234h193q37 -79 176 -234l59 -67v-27h-121q-85 56 -211 186q-133 -136 -211 -186h-120z" />
<glyph unicode="&#xcf;" d="M225 0v123l295 20v1176l-295 20v123h776v-123l-294 -20v-1176l294 -20v-123h-776zM332 1733q0 102 96 102t96 -102q0 -103 -96 -103t-96 103zM707 1733q0 102 96 102t96 -102q0 -103 -96 -103t-96 103z" />
<glyph unicode="&#xd0;" d="M0 659v162h135v641h342q317 0 493.5 -189t176.5 -528q0 -361 -183 -553t-528 -192h-301v659h-135zM322 160h96q532 0 532 579q0 564 -493 564h-135v-482h380v-162h-380v-499z" />
<glyph unicode="&#xd1;" d="M135 0v1462h213l578 -1204h6q-14 303 -14 404v800h174v-1462h-215l-580 1210h-8q18 -277 18 -417v-793h-172zM258 1579q25 264 211 264q58 0 161 -56q102 -56 136 -56q80 0 106 114h105q-27 -264 -211 -264q-57 0 -157 57q-100 56 -140 56q-82 0 -107 -115h-104z" />
<glyph unicode="&#xd2;" d="M84 735q0 750 534 750q256 0 392.5 -195.5t136.5 -556.5t-138 -557t-393 -196q-532 0 -532 755zM281 733q0 -590 335 -590q173 0 253.5 145t80.5 445q0 303 -81.5 445.5t-250.5 142.5q-337 0 -337 -588zM337 1886v21h219q86 -178 174 -301v-27h-121q-166 142 -272 307z " />
<glyph unicode="&#xd3;" d="M84 735q0 750 534 750q256 0 392.5 -195.5t136.5 -556.5t-138 -557t-393 -196q-532 0 -532 755zM281 733q0 -590 335 -590q173 0 253.5 145t80.5 445q0 303 -81.5 445.5t-250.5 142.5q-337 0 -337 -588zM508 1579v27q94 133 174 301h219v-21q-112 -173 -272 -307h-121z " />
<glyph unicode="&#xd4;" d="M84 735q0 750 534 750q256 0 392.5 -195.5t136.5 -556.5t-138 -557t-393 -196q-532 0 -532 755zM281 733q0 -590 335 -590q173 0 253.5 145t80.5 445q0 303 -81.5 445.5t-250.5 142.5q-337 0 -337 -588zM283 1579v27q25 29 59 67q139 155 176 234h193q37 -79 176 -234 l59 -67v-27h-121q-85 56 -211 186q-133 -136 -211 -186h-120z" />
<glyph unicode="&#xd5;" d="M84 735q0 750 534 750q256 0 392.5 -195.5t136.5 -556.5t-138 -557t-393 -196q-532 0 -532 755zM262 1579q25 264 211 264q58 0 161 -56q102 -56 136 -56q80 0 106 114h105q-27 -264 -211 -264q-57 0 -157 57q-100 56 -140 56q-82 0 -107 -115h-104zM281 733 q0 -590 335 -590q173 0 253.5 145t80.5 445q0 303 -81.5 445.5t-250.5 142.5q-337 0 -337 -588z" />
<glyph unicode="&#xd6;" d="M84 735q0 750 534 750q256 0 392.5 -195.5t136.5 -556.5t-138 -557t-393 -196q-532 0 -532 755zM281 733q0 -590 335 -590q173 0 253.5 145t80.5 445q0 303 -81.5 445.5t-250.5 142.5q-337 0 -337 -588zM332 1733q0 102 96 102t96 -102q0 -103 -96 -103t-96 103z M707 1733q0 102 96 102t96 -102q0 -103 -96 -103t-96 103z" />
<glyph unicode="&#xd7;" d="M190 1042l105 105l317 -318l322 318l104 -103l-321 -321l319 -320l-102 -102l-322 317l-317 -315l-102 103l315 317z" />
<glyph unicode="&#xd8;" d="M80 2l121 197q-117 184 -117 536q0 750 534 750q186 0 310 -105l92 152l137 -78l-125 -201q115 -188 115 -520q0 -361 -138 -557t-393 -196q-189 0 -307 94l-92 -150zM281 733q0 -212 38 -342l515 836q-80 94 -216 94q-337 0 -337 -588zM403 229q80 -86 213 -86 q173 0 253.5 145t80.5 445q0 209 -35 328z" />
<glyph unicode="&#xd9;" d="M125 520v942h186v-932q0 -387 307 -387q295 0 300 389v932h186v-948q0 -260 -126 -398t-370 -138q-483 0 -483 540zM349 1886v21h219q86 -178 174 -301v-27h-121q-166 142 -272 307z" />
<glyph unicode="&#xda;" d="M125 520v942h186v-932q0 -387 307 -387q295 0 300 389v932h186v-948q0 -260 -126 -398t-370 -138q-483 0 -483 540zM494 1579v27q94 133 174 301h219v-21q-112 -173 -272 -307h-121z" />
<glyph unicode="&#xdb;" d="M125 520v942h186v-932q0 -387 307 -387q295 0 300 389v932h186v-948q0 -260 -126 -398t-370 -138q-483 0 -483 540zM283 1579v27q25 29 59 67q139 155 176 234h193q37 -79 176 -234l59 -67v-27h-121q-85 56 -211 186q-133 -136 -211 -186h-120z" />
<glyph unicode="&#xdc;" d="M125 520v942h186v-932q0 -387 307 -387q295 0 300 389v932h186v-948q0 -260 -126 -398t-370 -138q-483 0 -483 540zM332 1733q0 102 96 102t96 -102q0 -103 -96 -103t-96 103zM707 1733q0 102 96 102t96 -102q0 -103 -96 -103t-96 103z" />
<glyph unicode="&#xdd;" d="M33 1462h203l376 -739l381 739h201l-487 -893v-569h-187v559zM494 1579v27q94 133 174 301h219v-21q-112 -173 -272 -307h-121z" />
<glyph unicode="&#xde;" d="M176 0v1462h186v-252h218q514 0 514 -428q0 -219 -138.5 -342t-402.5 -123h-191v-317h-186zM362 475h170q198 0 283.5 72t85.5 225q0 279 -338 279h-201v-576z" />
<glyph unicode="&#xdf;" d="M164 0v1200q0 367 424 367q194 0 302.5 -79.5t108.5 -227.5q0 -132 -133 -249q-84 -74 -108.5 -105t-24.5 -64q0 -39 29 -69t151 -111q144 -95 191 -173t47 -176q0 -162 -100 -247.5t-283 -85.5q-182 0 -289 69v166q143 -86 277 -86q213 0 213 174q0 81 -45.5 132 t-143.5 112q-123 78 -173 139t-50 148q0 117 129 223t129 196q0 164 -227 164q-242 0 -242 -215v-1202h-182z" />
<glyph unicode="&#xe0;" d="M135 307q0 332 510 348l203 7v69q0 236 -244 236q-147 0 -328 -82l-63 137q196 96 383 96q227 0 328.5 -87t101.5 -279v-752h-131l-37 152h-8q-77 -97 -158 -134.5t-209 -37.5q-163 0 -255.5 86t-92.5 241zM324 305q0 -178 200 -178q147 0 234.5 81.5t87.5 229.5v99 l-162 -7q-196 -8 -278 -61.5t-82 -163.5zM333 1548v21h219q86 -178 174 -301v-27h-121q-166 142 -272 307z" />
<glyph unicode="&#xe1;" d="M135 307q0 332 510 348l203 7v69q0 236 -244 236q-147 0 -328 -82l-63 137q196 96 383 96q227 0 328.5 -87t101.5 -279v-752h-131l-37 152h-8q-77 -97 -158 -134.5t-209 -37.5q-163 0 -255.5 86t-92.5 241zM324 305q0 -178 200 -178q147 0 234.5 81.5t87.5 229.5v99 l-162 -7q-196 -8 -278 -61.5t-82 -163.5zM502 1241v27q94 133 174 301h219v-21q-112 -173 -272 -307h-121z" />
<glyph unicode="&#xe2;" d="M135 307q0 332 510 348l203 7v69q0 236 -244 236q-147 0 -328 -82l-63 137q196 96 383 96q227 0 328.5 -87t101.5 -279v-752h-131l-37 152h-8q-77 -97 -158 -134.5t-209 -37.5q-163 0 -255.5 86t-92.5 241zM291 1241v27q25 29 59 67q139 155 176 234h193q37 -79 176 -234 l59 -67v-27h-121q-85 56 -211 186q-133 -136 -211 -186h-120zM324 305q0 -178 200 -178q147 0 234.5 81.5t87.5 229.5v99l-162 -7q-196 -8 -278 -61.5t-82 -163.5z" />
<glyph unicode="&#xe3;" d="M135 307q0 332 510 348l203 7v69q0 236 -244 236q-147 0 -328 -82l-63 137q196 96 383 96q227 0 328.5 -87t101.5 -279v-752h-131l-37 152h-8q-77 -97 -158 -134.5t-209 -37.5q-163 0 -255.5 86t-92.5 241zM264 1241q25 264 211 264q58 0 161 -56q102 -56 136 -56 q80 0 106 114h105q-27 -264 -211 -264q-57 0 -157 57q-100 56 -140 56q-82 0 -107 -115h-104zM324 305q0 -178 200 -178q147 0 234.5 81.5t87.5 229.5v99l-162 -7q-196 -8 -278 -61.5t-82 -163.5z" />
<glyph unicode="&#xe4;" d="M135 307q0 332 510 348l203 7v69q0 236 -244 236q-147 0 -328 -82l-63 137q196 96 383 96q227 0 328.5 -87t101.5 -279v-752h-131l-37 152h-8q-77 -97 -158 -134.5t-209 -37.5q-163 0 -255.5 86t-92.5 241zM324 305q0 -178 200 -178q147 0 234.5 81.5t87.5 229.5v99 l-162 -7q-196 -8 -278 -61.5t-82 -163.5zM342 1395q0 102 96 102t96 -102q0 -103 -96 -103t-96 103zM717 1395q0 102 96 102t96 -102q0 -103 -96 -103t-96 103z" />
<glyph unicode="&#xe5;" d="M135 307q0 332 510 348l203 7v69q0 236 -244 236q-147 0 -328 -82l-63 137q196 96 383 96q227 0 328.5 -87t101.5 -279v-752h-131l-37 152h-8q-77 -97 -158 -134.5t-209 -37.5q-163 0 -255.5 86t-92.5 241zM324 305q0 -178 200 -178q147 0 234.5 81.5t87.5 229.5v99 l-162 -7q-196 -8 -278 -61.5t-82 -163.5zM386 1456q0 99 60.5 157t162.5 58q101 0 165.5 -59t64.5 -154q0 -98 -63.5 -157.5t-166.5 -59.5q-102 0 -162.5 58t-60.5 157zM497 1456q0 -113 112 -113q50 0 81.5 30t31.5 83t-31.5 83t-81.5 30q-49 0 -80.5 -30t-31.5 -83z" />
<glyph unicode="&#xe6;" d="M45 307q0 332 328 348l149 7v69q0 236 -139 236q-107 0 -211 -82l-57 137q131 96 276 96q188 0 246 -178q78 178 240 178q137 0 223 -135.5t86 -355.5v-113h-496q3 -192 67 -283.5t169 -91.5q111 0 233 76v-162q-107 -73 -241 -73q-222 0 -316 229q-105 -229 -301 -229 q-115 0 -185.5 86.5t-70.5 240.5zM215 305q0 -83 32 -130.5t87 -47.5q82 0 134 82.5t52 228.5v99l-88 -7q-217 -17 -217 -225zM694 662h316q0 141 -40.5 223t-111.5 82q-68 0 -113 -78t-51 -227z" />
<glyph unicode="&#xe7;" d="M172 543q0 281 145 428t408 147q178 0 336 -59l-62 -158q-150 57 -268 57q-371 0 -371 -413q0 -406 361 -406q157 0 321 62v-160q-134 -61 -329 -61q-257 0 -399 145.5t-142 417.5zM477 -375q33 -6 80 -6q151 0 151 92q0 74 -172 113l91 176h120l-57 -115 q160 -37 160 -172q0 -205 -291 -205q-34 0 -82 9v108z" />
<glyph unicode="&#xe8;" d="M133 541q0 266 135.5 421.5t362.5 155.5q212 0 338.5 -134t126.5 -357v-113h-774q8 -375 344 -375q195 0 370 76v-160q-166 -75 -364 -75q-245 0 -392 149.5t-147 411.5zM326 662h573q0 305 -272 305q-275 0 -301 -305zM374 1548v21h219q86 -178 174 -301v-27h-121 q-166 142 -272 307z" />
<glyph unicode="&#xe9;" d="M133 541q0 266 135.5 421.5t362.5 155.5q212 0 338.5 -134t126.5 -357v-113h-774q8 -375 344 -375q195 0 370 76v-160q-166 -75 -364 -75q-245 0 -392 149.5t-147 411.5zM326 662h573q0 305 -272 305q-275 0 -301 -305zM500 1241v27q94 133 174 301h219v-21 q-112 -173 -272 -307h-121z" />
<glyph unicode="&#xea;" d="M133 541q0 266 135.5 421.5t362.5 155.5q212 0 338.5 -134t126.5 -357v-113h-774q8 -375 344 -375q195 0 370 76v-160q-166 -75 -364 -75q-245 0 -392 149.5t-147 411.5zM299 1241v27q25 29 59 67q139 155 176 234h193q37 -79 176 -234l59 -67v-27h-121q-85 56 -211 186 q-133 -136 -211 -186h-120zM326 662h573q0 305 -272 305q-275 0 -301 -305z" />
<glyph unicode="&#xeb;" d="M133 541q0 266 135.5 421.5t362.5 155.5q212 0 338.5 -134t126.5 -357v-113h-774q8 -375 344 -375q195 0 370 76v-160q-166 -75 -364 -75q-245 0 -392 149.5t-147 411.5zM326 662h573q0 305 -272 305q-275 0 -301 -305zM348 1395q0 102 96 102t96 -102q0 -103 -96 -103 t-96 103zM723 1395q0 102 96 102t96 -102q0 -103 -96 -103t-96 103z" />
<glyph unicode="&#xec;" d="M197 0v123l344 20v811l-269 21v123h451v-955l352 -20v-123h-878zM333 1548v21h219q86 -178 174 -301v-27h-121q-166 142 -272 307z" />
<glyph unicode="&#xed;" d="M197 0v123l344 20v811l-269 21v123h451v-955l352 -20v-123h-878zM531 1241v27q94 133 174 301h219v-21q-112 -173 -272 -307h-121z" />
<glyph unicode="&#xee;" d="M197 0v123l344 20v811l-269 21v123h451v-955l352 -20v-123h-878zM283 1241v27q25 29 59 67q139 155 176 234h193q37 -79 176 -234l59 -67v-27h-121q-85 56 -211 186q-133 -136 -211 -186h-120z" />
<glyph unicode="&#xef;" d="M197 0v123l344 20v811l-269 21v123h451v-955l352 -20v-123h-878zM330 1395q0 102 96 102t96 -102q0 -103 -96 -103t-96 103zM705 1395q0 102 96 102t96 -102q0 -103 -96 -103t-96 103z" />
<glyph unicode="&#xf0;" d="M135 477q0 234 120.5 364t334.5 130q211 0 299 -119l8 4q-58 226 -242 391l-256 -153l-73 114l217 131q-104 71 -172 109l69 123q143 -70 246 -148l227 138l74 -113l-194 -117q301 -291 301 -758q0 -277 -128.5 -435t-353.5 -158q-213 0 -345 133.5t-132 363.5zM328 471 q0 -340 288 -340q154 0 221.5 99.5t67.5 295.5q0 129 -77.5 213t-213.5 84q-286 0 -286 -352z" />
<glyph unicode="&#xf1;" d="M160 0v1098h147l27 -148h10q103 168 336 168q389 0 389 -401v-717h-182v707q0 260 -238 260q-307 0 -307 -398v-569h-182zM260 1241q25 264 211 264q58 0 161 -56q102 -56 136 -56q80 0 106 114h105q-27 -264 -211 -264q-57 0 -157 57q-100 56 -140 56q-82 0 -107 -115 h-104z" />
<glyph unicode="&#xf2;" d="M115 551q0 263 135.5 415t365.5 152q218 0 357 -155t139 -412q0 -265 -137 -418t-365 -153q-216 0 -355.5 155.5t-139.5 415.5zM303 551q0 -420 311 -420q310 0 310 420q0 416 -312 416q-309 0 -309 -416zM378 1548v21h219q86 -178 174 -301v-27h-121q-166 142 -272 307z " />
<glyph unicode="&#xf3;" d="M115 551q0 263 135.5 415t365.5 152q218 0 357 -155t139 -412q0 -265 -137 -418t-365 -153q-216 0 -355.5 155.5t-139.5 415.5zM303 551q0 -420 311 -420q310 0 310 420q0 416 -312 416q-309 0 -309 -416zM498 1241v27q94 133 174 301h219v-21q-112 -173 -272 -307h-121z " />
<glyph unicode="&#xf4;" d="M115 551q0 263 135.5 415t365.5 152q218 0 357 -155t139 -412q0 -265 -137 -418t-365 -153q-216 0 -355.5 155.5t-139.5 415.5zM278 1241v27q25 29 59 67q139 155 176 234h193q37 -79 176 -234l59 -67v-27h-121q-85 56 -211 186q-133 -136 -211 -186h-120zM303 551 q0 -420 311 -420q310 0 310 420q0 416 -312 416q-309 0 -309 -416z" />
<glyph unicode="&#xf5;" d="M115 551q0 263 135.5 415t365.5 152q218 0 357 -155t139 -412q0 -265 -137 -418t-365 -153q-216 0 -355.5 155.5t-139.5 415.5zM254 1241q25 264 211 264q58 0 161 -56q102 -56 136 -56q80 0 106 114h105q-27 -264 -211 -264q-57 0 -157 57q-100 56 -140 56 q-82 0 -107 -115h-104zM303 551q0 -420 311 -420q310 0 310 420q0 416 -312 416q-309 0 -309 -416z" />
<glyph unicode="&#xf6;" d="M115 551q0 263 135.5 415t365.5 152q218 0 357 -155t139 -412q0 -265 -137 -418t-365 -153q-216 0 -355.5 155.5t-139.5 415.5zM303 551q0 -420 311 -420q310 0 310 420q0 416 -312 416q-309 0 -309 -416zM323 1395q0 102 96 102t96 -102q0 -103 -96 -103t-96 103z M698 1395q0 102 96 102t96 -102q0 -103 -96 -103t-96 103z" />
<glyph unicode="&#xf7;" d="M152 647v150h923v-150h-923zM498 373q0 125 114 125q115 0 115 -125t-115 -125q-114 0 -114 125zM498 1071q0 125 114 125q115 0 115 -125t-115 -125q-114 0 -114 125z" />
<glyph unicode="&#xf8;" d="M115 551q0 266 133 416.5t368 150.5q128 0 236 -57l76 119l131 -84l-84 -131q137 -156 137 -414q0 -271 -134.5 -421t-367.5 -150q-129 0 -233 53l-76 -119l-131 84l84 131q-139 158 -139 422zM303 551q0 -180 53 -275l406 656q-66 35 -156 35q-161 0 -232 -103.5 t-71 -312.5zM467 164q61 -33 154 -33q161 0 232 105.5t71 314.5q0 164 -52 266z" />
<glyph unicode="&#xf9;" d="M160 381v717h182v-707q0 -260 236 -260q161 0 235 92.5t74 304.5v570h182v-1098h-147l-27 147h-10q-105 -167 -334 -167q-391 0 -391 401zM341 1548v21h219q86 -178 174 -301v-27h-121q-166 142 -272 307z" />
<glyph unicode="&#xfa;" d="M160 381v717h182v-707q0 -260 236 -260q161 0 235 92.5t74 304.5v570h182v-1098h-147l-27 147h-10q-105 -167 -334 -167q-391 0 -391 401zM500 1241v27q94 133 174 301h219v-21q-112 -173 -272 -307h-121z" />
<glyph unicode="&#xfb;" d="M160 381v717h182v-707q0 -260 236 -260q161 0 235 92.5t74 304.5v570h182v-1098h-147l-27 147h-10q-105 -167 -334 -167q-391 0 -391 401zM291 1241v27q25 29 59 67q139 155 176 234h193q37 -79 176 -234l59 -67v-27h-121q-85 56 -211 186q-133 -136 -211 -186h-120z" />
<glyph unicode="&#xfc;" d="M160 381v717h182v-707q0 -260 236 -260q161 0 235 92.5t74 304.5v570h182v-1098h-147l-27 147h-10q-105 -167 -334 -167q-391 0 -391 401zM332 1395q0 102 96 102t96 -102q0 -103 -96 -103t-96 103zM707 1395q0 102 96 102t96 -102q0 -103 -96 -103t-96 103z" />
<glyph unicode="&#xfd;" d="M82 1098h188l262 -654q82 -205 89 -290h6q23 112 90 292l239 652h189l-475 -1241q-67 -174 -156 -261.5t-246 -87.5q-86 0 -168 17v145q62 -12 136 -12q96 0 149.5 41t95.5 141l58 150zM494 1241v27q94 133 174 301h219v-21q-112 -173 -272 -307h-121z" />
<glyph unicode="&#xfe;" d="M158 -492v2048h182v-458l-8 -148h8q110 168 322 168q201 0 315.5 -149.5t114.5 -417.5q0 -270 -115 -420.5t-315 -150.5q-207 0 -322 159h-12q12 -129 12 -162v-469h-182zM340 551q0 -227 69.5 -323.5t221.5 -96.5q272 0 272 422q0 414 -274 414q-152 0 -218.5 -88 t-70.5 -287v-41z" />
<glyph unicode="&#xff;" d="M82 1098h188l262 -654q82 -205 89 -290h6q23 112 90 292l239 652h189l-475 -1241q-67 -174 -156 -261.5t-246 -87.5q-86 0 -168 17v145q62 -12 136 -12q96 0 149.5 41t95.5 141l58 150zM338 1395q0 102 96 102t96 -102q0 -103 -96 -103t-96 103zM713 1395q0 102 96 102 t96 -102q0 -103 -96 -103t-96 103z" />
<glyph unicode="&#x100;" d="M33 0l483 1468h195l485 -1468h-192l-144 453h-491l-146 -453h-190zM326 1579v150h575v-150h-575zM422 618h385l-133 424q-39 124 -62 226q-20 -99 -46 -183z" />
<glyph unicode="&#x101;" d="M135 307q0 332 510 348l203 7v69q0 236 -244 236q-147 0 -328 -82l-63 137q196 96 383 96q227 0 328.5 -87t101.5 -279v-752h-131l-37 152h-8q-77 -97 -158 -134.5t-209 -37.5q-163 0 -255.5 86t-92.5 241zM317 1241v150h575v-150h-575zM324 305q0 -178 200 -178 q147 0 234.5 81.5t87.5 229.5v99l-162 -7q-196 -8 -278 -61.5t-82 -163.5z" />
<glyph unicode="&#x102;" d="M33 0l483 1468h195l485 -1468h-192l-144 453h-491l-146 -453h-190zM310 1856h109q7 -76 46.5 -100.5t143.5 -24.5q181 0 191 125h112q-9 -127 -89 -202t-216 -75q-280 0 -297 277zM422 618h385l-133 424q-39 124 -62 226q-20 -99 -46 -183z" />
<glyph unicode="&#x103;" d="M135 307q0 332 510 348l203 7v69q0 236 -244 236q-147 0 -328 -82l-63 137q196 96 383 96q227 0 328.5 -87t101.5 -279v-752h-131l-37 152h-8q-77 -97 -158 -134.5t-209 -37.5q-163 0 -255.5 86t-92.5 241zM302 1518h109q7 -76 46.5 -100.5t143.5 -24.5q181 0 191 125 h112q-9 -127 -89 -202t-216 -75q-280 0 -297 277zM324 305q0 -178 200 -178q147 0 234.5 81.5t87.5 229.5v99l-162 -7q-196 -8 -278 -61.5t-82 -163.5z" />
<glyph unicode="&#x104;" d="M33 0l483 1468h195l485 -1468h-192l-144 453h-491l-146 -453h-190zM422 618h385l-133 424q-39 124 -62 226q-20 -99 -46 -183zM813 -252q0 144 190 252h131q-170 -125 -170 -238q0 -96 127 -96q66 0 123 15v-113q-73 -23 -156 -23q-119 0 -182 54.5t-63 148.5z" />
<glyph unicode="&#x105;" d="M135 307q0 332 510 348l203 7v69q0 236 -244 236q-147 0 -328 -82l-63 137q196 96 383 96q227 0 328.5 -87t101.5 -279v-752h-131l-37 152h-8q-77 -97 -158 -134.5t-209 -37.5q-163 0 -255.5 86t-92.5 241zM324 305q0 -178 200 -178q147 0 234.5 81.5t87.5 229.5v99 l-162 -7q-196 -8 -278 -61.5t-82 -163.5zM705 -252q0 144 190 252h131q-170 -125 -170 -238q0 -96 127 -96q66 0 123 15v-113q-73 -23 -156 -23q-119 0 -182 54.5t-63 148.5z" />
<glyph unicode="&#x106;" d="M129 733q0 346 179 548t489 202q220 0 383 -86l-78 -156q-154 78 -305 78q-215 0 -343 -158.5t-128 -429.5q0 -287 120 -437.5t351 -150.5q130 0 327 58v-162q-146 -59 -358 -59q-309 0 -473 196t-164 557zM660 1579v27q94 133 174 301h219v-21q-112 -173 -272 -307h-121 z" />
<glyph unicode="&#x107;" d="M172 543q0 281 145 428t408 147q178 0 336 -59l-62 -158q-150 57 -268 57q-371 0 -371 -413q0 -406 361 -406q157 0 321 62v-160q-134 -61 -329 -61q-257 0 -399 145.5t-142 417.5zM578 1241v27q94 133 174 301h219v-21q-112 -173 -272 -307h-121z" />
<glyph unicode="&#x108;" d="M129 733q0 346 179 548t489 202q220 0 383 -86l-78 -156q-154 78 -305 78q-215 0 -343 -158.5t-128 -429.5q0 -287 120 -437.5t351 -150.5q130 0 327 58v-162q-146 -59 -358 -59q-309 0 -473 196t-164 557zM443 1579v27q25 29 59 67q139 155 176 234h193q37 -79 176 -234 l59 -67v-27h-121q-85 56 -211 186q-133 -136 -211 -186h-120z" />
<glyph unicode="&#x109;" d="M172 543q0 281 145 428t408 147q178 0 336 -59l-62 -158q-150 57 -268 57q-371 0 -371 -413q0 -406 361 -406q157 0 321 62v-160q-134 -61 -329 -61q-257 0 -399 145.5t-142 417.5zM367 1241v27q25 29 59 67q139 155 176 234h193q37 -79 176 -234l59 -67v-27h-121 q-85 56 -211 186q-133 -136 -211 -186h-120z" />
<glyph unicode="&#x10a;" d="M129 733q0 346 179 548t489 202q220 0 383 -86l-78 -156q-154 78 -305 78q-215 0 -343 -158.5t-128 -429.5q0 -287 120 -437.5t351 -150.5q130 0 327 58v-162q-146 -59 -358 -59q-309 0 -473 196t-164 557zM672 1733q0 114 106 114q107 0 107 -114q0 -115 -107 -115 q-106 0 -106 115z" />
<glyph unicode="&#x10b;" d="M172 543q0 281 145 428t408 147q178 0 336 -59l-62 -158q-150 57 -268 57q-371 0 -371 -413q0 -406 361 -406q157 0 321 62v-160q-134 -61 -329 -61q-257 0 -399 145.5t-142 417.5zM592 1395q0 114 106 114q107 0 107 -114q0 -115 -107 -115q-106 0 -106 115z" />
<glyph unicode="&#x10c;" d="M129 733q0 346 179 548t489 202q220 0 383 -86l-78 -156q-154 78 -305 78q-215 0 -343 -158.5t-128 -429.5q0 -287 120 -437.5t351 -150.5q130 0 327 58v-162q-146 -59 -358 -59q-309 0 -473 196t-164 557zM437 1880v27h120q82 -54 211 -187q122 128 211 187h121v-27 q-25 -29 -59 -67q-141 -158 -176 -234h-193q-35 76 -176 234z" />
<glyph unicode="&#x10d;" d="M172 543q0 281 145 428t408 147q178 0 336 -59l-62 -158q-150 57 -268 57q-371 0 -371 -413q0 -406 361 -406q157 0 321 62v-160q-134 -61 -329 -61q-257 0 -399 145.5t-142 417.5zM375 1542v27h120q82 -54 211 -187q122 128 211 187h121v-27q-25 -29 -59 -67 q-141 -158 -176 -234h-193q-35 76 -176 234z" />
<glyph unicode="&#x10e;" d="M135 0v1462h342q317 0 493.5 -189t176.5 -528q0 -361 -183 -553t-528 -192h-301zM274 1880v27h120q82 -54 211 -187q122 128 211 187h121v-27q-25 -29 -59 -67q-141 -158 -176 -234h-193q-35 76 -176 234zM322 160h96q532 0 532 579q0 564 -493 564h-135v-1143z" />
<glyph unicode="&#x10f;" d="M79 547q0 270 115 420.5t315 150.5q206 0 322 -160h12q-12 129 -12 162v436h182v-1556h-147l-27 147h-8q-113 -167 -322 -167q-201 0 -315.5 149.5t-114.5 417.5zM268 545q0 -414 274 -414q152 0 218.5 88.5t70.5 286.5v41q0 227 -69.5 323.5t-221.5 96.5 q-272 0 -272 -422zM1074 1229v26l26 107q26 116 35 194h180v-20q0 -14 -42 -113t-103 -194h-96z" />
<glyph unicode="&#x110;" d="M0 659v162h135v641h342q317 0 493.5 -189t176.5 -528q0 -361 -183 -553t-528 -192h-301v659h-135zM322 160h96q532 0 532 579q0 564 -493 564h-135v-482h380v-162h-380v-499z" />
<glyph unicode="&#x111;" d="M137 526q0 260 115 405.5t315 145.5q208 0 322 -159h12q-12 126 -12 161v158h-379v137h379v182h182v-182h156v-137h-156v-1237h-147l-27 147h-8q-113 -167 -322 -167q-201 0 -315.5 144t-114.5 402zM326 524q0 -393 274 -393q151 0 218 83t71 273v39q0 216 -69.5 308 t-221.5 92q-272 0 -272 -402z" />
<glyph unicode="&#x112;" d="M217 0v1462h842v-164h-656v-452h617v-162h-617v-520h656v-164h-842zM336 1579v150h575v-150h-575z" />
<glyph unicode="&#x113;" d="M133 541q0 266 135.5 421.5t362.5 155.5q212 0 338.5 -134t126.5 -357v-113h-774q8 -375 344 -375q195 0 370 76v-160q-166 -75 -364 -75q-245 0 -392 149.5t-147 411.5zM326 662h573q0 305 -272 305q-275 0 -301 -305zM346 1241v150h575v-150h-575z" />
<glyph unicode="&#x114;" d="M217 0v1462h842v-164h-656v-452h617v-162h-617v-520h656v-164h-842zM342 1856h109q7 -76 46.5 -100.5t143.5 -24.5q181 0 191 125h112q-9 -127 -89 -202t-216 -75q-280 0 -297 277z" />
<glyph unicode="&#x115;" d="M133 541q0 266 135.5 421.5t362.5 155.5q212 0 338.5 -134t126.5 -357v-113h-774q8 -375 344 -375q195 0 370 76v-160q-166 -75 -364 -75q-245 0 -392 149.5t-147 411.5zM326 662h573q0 305 -272 305q-275 0 -301 -305zM329 1518h109q7 -76 46.5 -100.5t143.5 -24.5 q181 0 191 125h112q-9 -127 -89 -202t-216 -75q-280 0 -297 277z" />
<glyph unicode="&#x116;" d="M217 0v1462h842v-164h-656v-452h617v-162h-617v-520h656v-164h-842zM543 1704q0 114 106 114q107 0 107 -114q0 -115 -107 -115q-106 0 -106 115z" />
<glyph unicode="&#x117;" d="M133 541q0 266 135.5 421.5t362.5 155.5q212 0 338.5 -134t126.5 -357v-113h-774q8 -375 344 -375q195 0 370 76v-160q-166 -75 -364 -75q-245 0 -392 149.5t-147 411.5zM326 662h573q0 305 -272 305q-275 0 -301 -305zM531 1395q0 114 106 114q107 0 107 -114 q0 -115 -107 -115q-106 0 -106 115z" />
<glyph unicode="&#x118;" d="M217 0v1462h842v-164h-656v-452h617v-162h-617v-520h656v-164h-842zM619 -252q0 144 190 252h131q-170 -125 -170 -238q0 -96 127 -96q66 0 123 15v-113q-73 -23 -156 -23q-119 0 -182 54.5t-63 148.5z" />
<glyph unicode="&#x119;" d="M133 541q0 266 135.5 421.5t362.5 155.5q212 0 338.5 -134t126.5 -357v-113h-774q8 -375 344 -375q195 0 370 76v-160q-166 -75 -364 -75q-245 0 -392 149.5t-147 411.5zM326 662h573q0 305 -272 305q-275 0 -301 -305zM641 -221q0 144 190 252h131q-170 -125 -170 -238 q0 -96 127 -96q66 0 123 15v-113q-73 -23 -156 -23q-119 0 -182 54.5t-63 148.5z" />
<glyph unicode="&#x11a;" d="M217 0v1462h842v-164h-656v-452h617v-162h-617v-520h656v-164h-842zM318 1880v27h120q82 -54 211 -187q122 128 211 187h121v-27q-25 -29 -59 -67q-141 -158 -176 -234h-193q-35 76 -176 234z" />
<glyph unicode="&#x11b;" d="M133 541q0 266 135.5 421.5t362.5 155.5q212 0 338.5 -134t126.5 -357v-113h-774q8 -375 344 -375q195 0 370 76v-160q-166 -75 -364 -75q-245 0 -392 149.5t-147 411.5zM308 1542v27h120q82 -54 211 -187q122 128 211 187h121v-27q-25 -29 -59 -67q-141 -158 -176 -234 h-193q-35 76 -176 234zM326 662h573q0 305 -272 305q-275 0 -301 -305z" />
<glyph unicode="&#x11c;" d="M117 733q0 351 162 550.5t446 199.5q192 0 346 -86l-72 -162q-146 84 -280 84q-192 0 -299 -155.5t-107 -432.5q0 -588 394 -588q97 0 202 29v436h-237v164h422v-717q-195 -75 -420 -75q-262 0 -409.5 199.5t-147.5 553.5zM363 1579v27q25 29 59 67q139 155 176 234h193 q37 -79 176 -234l59 -67v-27h-121q-85 56 -211 186q-133 -136 -211 -186h-120z" />
<glyph unicode="&#x11d;" d="M102 -186q0 212 240 270q-96 47 -96 154q0 112 133 192q-89 37 -140 122.5t-51 186.5q0 182 106.5 280.5t303.5 98.5q86 0 150 -20h378v-113l-196 -27q65 -85 65 -213q0 -161 -106.5 -256.5t-296.5 -95.5q-55 0 -86 6q-100 -56 -100 -133q0 -84 161 -84h187 q174 0 266 -77t92 -220q0 -377 -565 -377q-218 0 -331.5 80.5t-113.5 225.5zM274 -180q0 -174 271 -174q395 0 395 223q0 88 -50 118.5t-198 30.5h-188q-230 0 -230 -198zM274 1241v27q25 29 59 67q139 155 176 234h193q37 -79 176 -234l59 -67v-27h-121q-85 56 -211 186 q-133 -136 -211 -186h-120zM367 745q0 -227 227 -227q223 0 223 230q0 239 -225 239t-225 -242z" />
<glyph unicode="&#x11e;" d="M117 733q0 351 162 550.5t446 199.5q192 0 346 -86l-72 -162q-146 84 -280 84q-192 0 -299 -155.5t-107 -432.5q0 -588 394 -588q97 0 202 29v436h-237v164h422v-717q-195 -75 -420 -75q-262 0 -409.5 199.5t-147.5 553.5zM411 1856h109q7 -76 46.5 -100.5t143.5 -24.5 q181 0 191 125h112q-9 -127 -89 -202t-216 -75q-280 0 -297 277z" />
<glyph unicode="&#x11f;" d="M102 -186q0 212 240 270q-96 47 -96 154q0 112 133 192q-89 37 -140 122.5t-51 186.5q0 182 106.5 280.5t303.5 98.5q86 0 150 -20h378v-113l-196 -27q65 -85 65 -213q0 -161 -106.5 -256.5t-296.5 -95.5q-55 0 -86 6q-100 -56 -100 -133q0 -84 161 -84h187 q174 0 266 -77t92 -220q0 -377 -565 -377q-218 0 -331.5 80.5t-113.5 225.5zM274 -180q0 -174 271 -174q395 0 395 223q0 88 -50 118.5t-198 30.5h-188q-230 0 -230 -198zM300 1518h109q7 -76 46.5 -100.5t143.5 -24.5q181 0 191 125h112q-9 -127 -89 -202t-216 -75 q-280 0 -297 277zM367 745q0 -227 227 -227q223 0 223 230q0 239 -225 239t-225 -242z" />
<glyph unicode="&#x120;" d="M117 733q0 351 162 550.5t446 199.5q192 0 346 -86l-72 -162q-146 84 -280 84q-192 0 -299 -155.5t-107 -432.5q0 -588 394 -588q97 0 202 29v436h-237v164h422v-717q-195 -75 -420 -75q-262 0 -409.5 199.5t-147.5 553.5zM617 1733q0 114 106 114q107 0 107 -114 q0 -115 -107 -115q-106 0 -106 115z" />
<glyph unicode="&#x121;" d="M102 -186q0 212 240 270q-96 47 -96 154q0 112 133 192q-89 37 -140 122.5t-51 186.5q0 182 106.5 280.5t303.5 98.5q86 0 150 -20h378v-113l-196 -27q65 -85 65 -213q0 -161 -106.5 -256.5t-296.5 -95.5q-55 0 -86 6q-100 -56 -100 -133q0 -84 161 -84h187 q174 0 266 -77t92 -220q0 -377 -565 -377q-218 0 -331.5 80.5t-113.5 225.5zM274 -180q0 -174 271 -174q395 0 395 223q0 88 -50 118.5t-198 30.5h-188q-230 0 -230 -198zM367 745q0 -227 227 -227q223 0 223 230q0 239 -225 239t-225 -242zM507 1395q0 114 106 114 q107 0 107 -114q0 -115 -107 -115q-106 0 -106 115z" />
<glyph unicode="&#x122;" d="M117 733q0 351 162 550.5t446 199.5q192 0 346 -86l-72 -162q-146 84 -280 84q-192 0 -299 -155.5t-107 -432.5q0 -588 394 -588q97 0 202 29v436h-237v164h422v-717q-195 -75 -420 -75q-262 0 -409.5 199.5t-147.5 553.5zM540 -426q62 140 84 301h178v-20 q0 -22 -48 -124t-115 -184h-99v27z" />
<glyph unicode="&#x123;" d="M102 -186q0 212 240 270q-96 47 -96 154q0 112 133 192q-89 37 -140 122.5t-51 186.5q0 182 106.5 280.5t303.5 98.5q86 0 150 -20h378v-113l-196 -27q65 -85 65 -213q0 -161 -106.5 -256.5t-296.5 -95.5q-55 0 -86 6q-100 -56 -100 -133q0 -84 161 -84h187 q174 0 266 -77t92 -220q0 -377 -565 -377q-218 0 -331.5 80.5t-113.5 225.5zM274 -180q0 -174 271 -174q395 0 395 223q0 88 -50 118.5t-198 30.5h-188q-230 0 -230 -198zM367 745q0 -227 227 -227q223 0 223 230q0 239 -225 239t-225 -242zM528 1241v21q0 17 45.5 117.5 t118.5 189.5h98v-27q-63 -153 -83 -301h-179z" />
<glyph unicode="&#x124;" d="M135 0v1462h187v-616h585v616h187v-1462h-187v682h-585v-682h-187zM283 1579v27q25 29 59 67q139 155 176 234h193q37 -79 176 -234l59 -67v-27h-121q-85 56 -211 186q-133 -136 -211 -186h-120z" />
<glyph unicode="&#x125;" d="M160 0v1556h182v-462l-8 -144h10q103 168 336 168q389 0 389 -401v-717h-182v707q0 260 -238 260q-307 0 -307 -398v-569h-182zM297 1634v27q25 29 59 67q139 155 176 234h193q37 -79 176 -234l59 -67v-27h-121q-85 56 -211 186q-133 -136 -211 -186h-120z" />
<glyph unicode="&#x126;" d="M0 1069v150h135v243h187v-243h585v243h187v-243h135v-150h-135v-1069h-187v682h-585v-682h-187v1069h-135zM322 846h585v223h-585v-223z" />
<glyph unicode="&#x127;" d="M4 1237v137h156v182h184v-182h418v-137h-420v-184l-10 -144h10q108 168 346 168q192 0 286.5 -95.5t94.5 -305.5v-676h-182v666q0 260 -236 260q-162 0 -235.5 -93.5t-73.5 -304.5v-528h-182v1237h-156z" />
<glyph unicode="&#x128;" d="M225 0v123l295 20v1176l-295 20v123h776v-123l-294 -20v-1176l294 -20v-123h-776zM254 1579q25 264 211 264q58 0 161 -56q102 -56 136 -56q80 0 106 114h105q-27 -264 -211 -264q-57 0 -157 57q-100 56 -140 56q-82 0 -107 -115h-104z" />
<glyph unicode="&#x129;" d="M197 0v123l344 20v811l-269 21v123h451v-955l352 -20v-123h-878zM251 1241q25 264 211 264q58 0 161 -56q102 -56 136 -56q80 0 106 114h105q-27 -264 -211 -264q-57 0 -157 57q-100 56 -140 56q-82 0 -107 -115h-104z" />
<glyph unicode="&#x12a;" d="M225 0v123l295 20v1176l-295 20v123h776v-123l-294 -20v-1176l294 -20v-123h-776zM328 1579v150h575v-150h-575z" />
<glyph unicode="&#x12b;" d="M197 0v123l344 20v811l-269 21v123h451v-955l352 -20v-123h-878zM326 1241v150h575v-150h-575z" />
<glyph unicode="&#x12c;" d="M225 0v123l295 20v1176l-295 20v123h776v-123l-294 -20v-1176l294 -20v-123h-776zM313 1856h109q7 -76 46.5 -100.5t143.5 -24.5q181 0 191 125h112q-9 -127 -89 -202t-216 -75q-280 0 -297 277z" />
<glyph unicode="&#x12d;" d="M197 0v123l344 20v811l-269 21v123h451v-955l352 -20v-123h-878zM338 1518h109q7 -76 46.5 -100.5t143.5 -24.5q181 0 191 125h112q-9 -127 -89 -202t-216 -75q-280 0 -297 277z" />
<glyph unicode="&#x12e;" d="M225 0v123l295 20v1176l-295 20v123h776v-123l-294 -20v-1176l294 -20v-123h-776zM422 -252q0 144 190 252h131q-170 -125 -170 -238q0 -96 127 -96q66 0 123 15v-113q-73 -23 -156 -23q-119 0 -182 54.5t-63 148.5z" />
<glyph unicode="&#x12f;" d="M197 0v123l344 20v811l-269 21v123h451v-955l352 -20v-123h-878zM439 -252q0 144 190 252h131q-170 -125 -170 -238q0 -96 127 -96q66 0 123 15v-113q-73 -23 -156 -23q-119 0 -182 54.5t-63 148.5zM526 1436q0 114 107 114q106 0 106 -114q0 -58 -31.5 -86.5 t-74.5 -28.5q-107 0 -107 115z" />
<glyph unicode="&#x130;" d="M225 0v123l295 20v1176l-295 20v123h776v-123l-294 -20v-1176l294 -20v-123h-776zM508 1733q0 114 106 114q107 0 107 -114q0 -115 -107 -115q-106 0 -106 115z" />
<glyph unicode="&#x131;" d="M197 0v123l344 20v811l-269 21v123h451v-955l352 -20v-123h-878z" />
<glyph unicode="&#x132;" d="M156 0v1462h186v-1462h-186zM492 23v163q93 -45 186 -45q194 0 194 283v1038h187v-1026q0 -456 -365 -456q-133 0 -202 43z" />
<glyph unicode="&#x133;" d="M188 1436q0 114 107 114q106 0 106 -114q0 -58 -31.5 -86.5t-74.5 -28.5q-107 0 -107 115zM203 0v1098h182v-1098h-182zM502 -303q88 -39 190 -39q164 0 164 215v1081l-215 21v123h397v-1215q0 -182 -85 -278.5t-236 -96.5q-123 0 -215 35v154zM821 1436q0 114 107 114 q106 0 106 -114q0 -58 -31.5 -86.5t-74.5 -28.5q-107 0 -107 115z" />
<glyph unicode="&#x134;" d="M137 39v166q162 -62 309 -62q161 0 254 79.5t93 226.5v1013h186v-1011q0 -216 -140.5 -343.5t-377.5 -127.5q-217 0 -324 59zM551 1579v27q25 29 59 67q139 155 176 234h193q37 -79 176 -234l59 -67v-27h-121q-85 56 -211 186q-133 -136 -211 -186h-120z" />
<glyph unicode="&#x135;" d="M135 -303q134 -39 289 -39q117 0 182.5 57t65.5 158v1081l-420 21v123h602v-1215q0 -180 -113 -277.5t-319 -97.5q-164 0 -287 35v154zM303 1241v27q25 29 59 67q139 155 176 234h193q37 -79 176 -234l59 -67v-27h-121q-85 56 -211 186q-133 -136 -211 -186h-120z" />
<glyph unicode="&#x136;" d="M211 0v1462h186v-731l121 168l453 563h209l-521 -637l539 -825h-211l-450 698l-140 -114v-584h-186zM510 -426q62 140 84 301h178v-20q0 -22 -48 -124t-115 -184h-99v27z" />
<glyph unicode="&#x137;" d="M215 0v1556h180v-714l-16 -289h4l135 152l395 393h222l-494 -475l522 -623h-213l-426 504l-129 -82v-422h-180zM485 -426q62 140 84 301h178v-20q0 -22 -48 -124t-115 -184h-99v27z" />
<glyph unicode="&#x138;" d="M215 0v1098h180v-291l-16 -299h4l137 166l402 424h213l-494 -510l522 -588h-213l-426 469l-129 -82v-387h-180z" />
<glyph unicode="&#x139;" d="M233 0v1462h187v-1296h635v-166h-822zM263 1579v27q94 133 174 301h219v-21q-112 -173 -272 -307h-121z" />
<glyph unicode="&#x13a;" d="M188 0v123l344 20v1270l-268 21v122h451v-1413l352 -20v-123h-879zM496 1636v27q94 133 174 301h219v-21q-112 -173 -272 -307h-121z" />
<glyph unicode="&#x13b;" d="M233 0v1462h187v-1296h635v-166h-822zM491 -426q62 140 84 301h178v-20q0 -22 -48 -124t-115 -184h-99v27z" />
<glyph unicode="&#x13c;" d="M188 0v123l344 20v1270l-268 21v122h451v-1413l352 -20v-123h-879zM461 -426q62 140 84 301h178v-20q0 -22 -48 -124t-115 -184h-99v27z" />
<glyph unicode="&#x13d;" d="M233 0v1462h187v-1296h635v-166h-822zM750 1136v26l26 107q26 116 35 194h180v-20q0 -14 -42 -113t-103 -194h-96z" />
<glyph unicode="&#x13e;" d="M188 0v123l344 20v1270l-268 21v122h451v-1413l352 -20v-123h-879zM865 1229v26l26 107q26 116 35 194h180v-20q0 -14 -42 -113t-103 -194h-96z" />
<glyph unicode="&#x13f;" d="M233 0v1462h187v-1296h635v-166h-822zM750 775q0 114 106 114q107 0 107 -114q0 -115 -107 -115q-106 0 -106 115z" />
<glyph unicode="&#x140;" d="M188 0v123l344 20v1270l-268 21v122h451v-1413l352 -20v-123h-879zM866 683q0 114 106 114q107 0 107 -114q0 -115 -107 -115q-106 0 -106 115z" />
<glyph unicode="&#x141;" d="M72 539l198 125v798h187v-680l299 189l78 -125l-377 -238v-442h635v-166h-822v492l-125 -78z" />
<glyph unicode="&#x142;" d="M188 0v123l344 20v449l-141 -92l-78 121l219 143v649l-268 21v122h451v-673l164 108l77 -121l-241 -159v-568l352 -20v-123h-879z" />
<glyph unicode="&#x143;" d="M135 0v1462h213l578 -1204h6q-14 303 -14 404v800h174v-1462h-215l-580 1210h-8q18 -277 18 -417v-793h-172zM516 1579v27q94 133 174 301h219v-21q-112 -173 -272 -307h-121z" />
<glyph unicode="&#x144;" d="M160 0v1098h147l27 -148h10q103 168 336 168q389 0 389 -401v-717h-182v707q0 260 -238 260q-307 0 -307 -398v-569h-182zM529 1241v27q94 133 174 301h219v-21q-112 -173 -272 -307h-121z" />
<glyph unicode="&#x145;" d="M135 0v1462h213l578 -1204h6q-14 303 -14 404v800h174v-1462h-215l-580 1210h-8q18 -277 18 -417v-793h-172zM433 -426q62 140 84 301h178v-20q0 -22 -48 -124t-115 -184h-99v27z" />
<glyph unicode="&#x146;" d="M160 0v1098h147l27 -148h10q103 168 336 168q389 0 389 -401v-717h-182v707q0 260 -238 260q-307 0 -307 -398v-569h-182zM455 -426q62 140 84 301h178v-20q0 -22 -48 -124t-115 -184h-99v27z" />
<glyph unicode="&#x147;" d="M135 0v1462h213l578 -1204h6q-14 303 -14 404v800h174v-1462h-215l-580 1210h-8q18 -277 18 -417v-793h-172zM280 1880v27h120q82 -54 211 -187q122 128 211 187h121v-27q-25 -29 -59 -67q-141 -158 -176 -234h-193q-35 76 -176 234z" />
<glyph unicode="&#x148;" d="M160 0v1098h147l27 -148h10q103 168 336 168q389 0 389 -401v-717h-182v707q0 260 -238 260q-307 0 -307 -398v-569h-182zM295 1542v27h120q82 -54 211 -187q122 128 211 187h121v-27q-25 -29 -59 -67q-141 -158 -176 -234h-193q-35 76 -176 234z" />
<glyph unicode="&#x149;" d="M-16 961q60 242 100 501h199l14 -22q-50 -197 -176 -479h-137zM262 0v1098h148l26 -148h10q42 78 128.5 123t189.5 45q366 0 366 -401v-717h-182v707q0 260 -219 260q-285 0 -285 -398v-569h-182z" />
<glyph unicode="&#x14a;" d="M135 0v1462h213l578 -1128h10q-18 274 -18 403v725h174v-1442q0 -198 -100 -303.5t-287 -105.5q-94 0 -156 24v160q77 -20 158 -20q211 0 211 225l-621 1210h-8q18 -277 18 -417v-793h-172z" />
<glyph unicode="&#x14b;" d="M160 0v1098h147l27 -148h10q103 168 336 168q389 0 389 -401v-875q0 -334 -291 -334q-81 0 -133 25v148q54 -21 115 -21q127 0 127 170v877q0 260 -238 260q-307 0 -307 -398v-569h-182z" />
<glyph unicode="&#x14c;" d="M84 735q0 750 534 750q256 0 392.5 -195.5t136.5 -556.5t-138 -557t-393 -196q-532 0 -532 755zM281 733q0 -590 335 -590q173 0 253.5 145t80.5 445q0 303 -81.5 445.5t-250.5 142.5q-337 0 -337 -588zM330 1579v150h575v-150h-575z" />
<glyph unicode="&#x14d;" d="M115 551q0 263 135.5 415t365.5 152q218 0 357 -155t139 -412q0 -265 -137 -418t-365 -153q-216 0 -355.5 155.5t-139.5 415.5zM303 551q0 -420 311 -420q310 0 310 420q0 416 -312 416q-309 0 -309 -416zM326 1241v150h575v-150h-575z" />
<glyph unicode="&#x14e;" d="M84 735q0 750 534 750q256 0 392.5 -195.5t136.5 -556.5t-138 -557t-393 -196q-532 0 -532 755zM281 733q0 -590 335 -590q173 0 253.5 145t80.5 445q0 303 -81.5 445.5t-250.5 142.5q-337 0 -337 -588zM312 1856h109q7 -76 46.5 -100.5t143.5 -24.5q181 0 191 125h112 q-9 -127 -89 -202t-216 -75q-280 0 -297 277z" />
<glyph unicode="&#x14f;" d="M115 551q0 263 135.5 415t365.5 152q218 0 357 -155t139 -412q0 -265 -137 -418t-365 -153q-216 0 -355.5 155.5t-139.5 415.5zM303 551q0 -420 311 -420q310 0 310 420q0 416 -312 416q-309 0 -309 -416zM313 1518h109q7 -76 46.5 -100.5t143.5 -24.5q181 0 191 125h112 q-9 -127 -89 -202t-216 -75q-280 0 -297 277z" />
<glyph unicode="&#x150;" d="M84 735q0 750 534 750q256 0 392.5 -195.5t136.5 -556.5t-138 -557t-393 -196q-532 0 -532 755zM281 733q0 -590 335 -590q173 0 253.5 145t80.5 445q0 303 -81.5 445.5t-250.5 142.5q-337 0 -337 -588zM326 1579v27q94 133 174 301h198v-21q-112 -173 -272 -307h-100z M688 1579v27q87 118 174 301h199v-21q-112 -173 -272 -307h-101z" />
<glyph unicode="&#x151;" d="M115 551q0 263 135.5 415t365.5 152q218 0 357 -155t139 -412q0 -265 -137 -418t-365 -153q-216 0 -355.5 155.5t-139.5 415.5zM303 551q0 -420 311 -420q310 0 310 420q0 416 -312 416q-309 0 -309 -416zM328 1241v27q94 133 174 301h198v-21q-112 -173 -272 -307h-100z M690 1241v27q87 118 174 301h199v-21q-112 -173 -272 -307h-101z" />
<glyph unicode="&#x152;" d="M20 735q0 750 512 750q82 0 154 -23h541v-164h-398v-452h359v-162h-359v-520h398v-164h-574l-48 -10q-51 -10 -97 -10q-488 0 -488 755zM209 733q0 -590 309 -590q70 0 133 33v1112q-58 33 -131 33q-311 0 -311 -588z" />
<glyph unicode="&#x153;" d="M57 551q0 268 88 417.5t242 149.5q171 0 260 -217q84 217 242 217q131 0 208 -133.5t77 -357.5v-113h-439q3 -375 189 -375q108 0 204 76v-162q-94 -73 -217 -73q-87 0 -158.5 59t-101.5 162q-88 -221 -266 -221q-146 0 -237 153.5t-91 417.5zM227 551 q0 -211 39.5 -315.5t130.5 -104.5q168 0 168 410q0 426 -170 426q-90 0 -129 -103t-39 -313zM737 662h260q0 305 -123 305q-125 0 -137 -305z" />
<glyph unicode="&#x154;" d="M186 0v1462h357q520 0 520 -415q0 -287 -289 -392l397 -655h-219l-350 604h-229v-604h-187zM373 762h164q171 0 252 66t81 210q0 141 -80 203t-258 62h-159v-541zM447 1579v27q94 133 174 301h219v-21q-112 -173 -272 -307h-121z" />
<glyph unicode="&#x155;" d="M264 0v1098h148l22 -201h8q76 119 163 170t214 51q118 0 240 -45l-49 -166q-123 45 -224 45q-163 0 -251.5 -92.5t-88.5 -267.5v-592h-182zM510 1241v27q94 133 174 301h219v-21q-112 -173 -272 -307h-121z" />
<glyph unicode="&#x156;" d="M186 0v1462h357q520 0 520 -415q0 -287 -289 -392l397 -655h-219l-350 604h-229v-604h-187zM373 762h164q171 0 252 66t81 210q0 141 -80 203t-258 62h-159v-541zM480 -426q62 140 84 301h178v-20q0 -22 -48 -124t-115 -184h-99v27z" />
<glyph unicode="&#x157;" d="M187 -426q62 140 84 301h178v-20q0 -22 -48 -124t-115 -184h-99v27zM264 0v1098h148l22 -201h8q76 119 163 170t214 51q118 0 240 -45l-49 -166q-123 45 -224 45q-163 0 -251.5 -92.5t-88.5 -267.5v-592h-182z" />
<glyph unicode="&#x158;" d="M186 0v1462h357q520 0 520 -415q0 -287 -289 -392l397 -655h-219l-350 604h-229v-604h-187zM253 1880v27h120q82 -54 211 -187q122 128 211 187h121v-27q-25 -29 -59 -67q-141 -158 -176 -234h-193q-35 76 -176 234zM373 762h164q171 0 252 66t81 210q0 141 -80 203 t-258 62h-159v-541z" />
<glyph unicode="&#x159;" d="M264 0v1098h148l22 -201h8q76 119 163 170t214 51q118 0 240 -45l-49 -166q-123 45 -224 45q-163 0 -251.5 -92.5t-88.5 -267.5v-592h-182zM295 1542v27h120q82 -54 211 -187q122 128 211 187h121v-27q-25 -29 -59 -67q-141 -158 -176 -234h-193q-35 76 -176 234z" />
<glyph unicode="&#x15a;" d="M141 49v178q211 -86 414 -86q350 0 350 240q0 104 -70.5 160t-285.5 133q-208 73 -298.5 174.5t-90.5 263.5q0 174 128.5 272.5t352.5 98.5q229 0 416 -78l-64 -164q-193 78 -360 78q-293 0 -293 -209q0 -102 65.5 -164t270.5 -133q246 -88 328.5 -181.5t82.5 -240.5 q0 -192 -138.5 -301.5t-393.5 -109.5q-265 0 -414 69zM514 1579v27q94 133 174 301h219v-21q-112 -173 -272 -307h-121z" />
<glyph unicode="&#x15b;" d="M203 49v166q193 -86 370 -86q275 0 275 162q0 57 -49 99t-226 106q-233 87 -293.5 159.5t-60.5 171.5q0 136 111.5 213.5t308.5 77.5q198 0 369 -74l-60 -149q-182 72 -319 72q-236 0 -236 -133q0 -61 50.5 -97.5t232.5 -101.5q211 -77 280.5 -151.5t69.5 -182.5 q0 -150 -117 -235.5t-331 -85.5q-248 0 -375 69zM512 1241v27q94 133 174 301h219v-21q-112 -173 -272 -307h-121z" />
<glyph unicode="&#x15c;" d="M141 49v178q211 -86 414 -86q350 0 350 240q0 104 -70.5 160t-285.5 133q-208 73 -298.5 174.5t-90.5 263.5q0 174 128.5 272.5t352.5 98.5q229 0 416 -78l-64 -164q-193 78 -360 78q-293 0 -293 -209q0 -102 65.5 -164t270.5 -133q246 -88 328.5 -181.5t82.5 -240.5 q0 -192 -138.5 -301.5t-393.5 -109.5q-265 0 -414 69zM303 1579v27q25 29 59 67q139 155 176 234h193q37 -79 176 -234l59 -67v-27h-121q-85 56 -211 186q-133 -136 -211 -186h-120z" />
<glyph unicode="&#x15d;" d="M203 49v166q193 -86 370 -86q275 0 275 162q0 57 -49 99t-226 106q-233 87 -293.5 159.5t-60.5 171.5q0 136 111.5 213.5t308.5 77.5q198 0 369 -74l-60 -149q-182 72 -319 72q-236 0 -236 -133q0 -61 50.5 -97.5t232.5 -101.5q211 -77 280.5 -151.5t69.5 -182.5 q0 -150 -117 -235.5t-331 -85.5q-248 0 -375 69zM306 1241v27q25 29 59 67q139 155 176 234h193q37 -79 176 -234l59 -67v-27h-121q-85 56 -211 186q-133 -136 -211 -186h-120z" />
<glyph unicode="&#x15e;" d="M141 49v178q211 -86 414 -86q350 0 350 240q0 104 -70.5 160t-285.5 133q-208 73 -298.5 174.5t-90.5 263.5q0 174 128.5 272.5t352.5 98.5q229 0 416 -78l-64 -164q-193 78 -360 78q-293 0 -293 -209q0 -102 65.5 -164t270.5 -133q246 -88 328.5 -181.5t82.5 -240.5 q0 -192 -138.5 -301.5t-393.5 -109.5q-265 0 -414 69zM406 -375q33 -6 80 -6q151 0 151 92q0 74 -172 113l91 176h120l-57 -115q160 -37 160 -172q0 -205 -291 -205q-34 0 -82 9v108z" />
<glyph unicode="&#x15f;" d="M203 49v166q193 -86 370 -86q275 0 275 162q0 57 -49 99t-226 106q-233 87 -293.5 159.5t-60.5 171.5q0 136 111.5 213.5t308.5 77.5q198 0 369 -74l-60 -149q-182 72 -319 72q-236 0 -236 -133q0 -61 50.5 -97.5t232.5 -101.5q211 -77 280.5 -151.5t69.5 -182.5 q0 -150 -117 -235.5t-331 -85.5q-248 0 -375 69zM419 -375q33 -6 80 -6q151 0 151 92q0 74 -172 113l91 176h120l-57 -115q160 -37 160 -172q0 -205 -291 -205q-34 0 -82 9v108z" />
<glyph unicode="&#x160;" d="M141 49v178q211 -86 414 -86q350 0 350 240q0 104 -70.5 160t-285.5 133q-208 73 -298.5 174.5t-90.5 263.5q0 174 128.5 272.5t352.5 98.5q229 0 416 -78l-64 -164q-193 78 -360 78q-293 0 -293 -209q0 -102 65.5 -164t270.5 -133q246 -88 328.5 -181.5t82.5 -240.5 q0 -192 -138.5 -301.5t-393.5 -109.5q-265 0 -414 69zM314 1880v27h120q82 -54 211 -187q122 128 211 187h121v-27q-25 -29 -59 -67q-141 -158 -176 -234h-193q-35 76 -176 234z" />
<glyph unicode="&#x161;" d="M203 49v166q193 -86 370 -86q275 0 275 162q0 57 -49 99t-226 106q-233 87 -293.5 159.5t-60.5 171.5q0 136 111.5 213.5t308.5 77.5q198 0 369 -74l-60 -149q-182 72 -319 72q-236 0 -236 -133q0 -61 50.5 -97.5t232.5 -101.5q211 -77 280.5 -151.5t69.5 -182.5 q0 -150 -117 -235.5t-331 -85.5q-248 0 -375 69zM293 1542v27h120q82 -54 211 -187q122 128 211 187h121v-27q-25 -29 -59 -67q-141 -158 -176 -234h-193q-35 76 -176 234z" />
<glyph unicode="&#x162;" d="M102 1298v164h1022v-164h-417v-1298h-187v1298h-418zM428 -375q33 -6 80 -6q151 0 151 92q0 74 -172 113l91 176h120l-57 -115q160 -37 160 -172q0 -205 -291 -205q-34 0 -82 9v108z" />
<glyph unicode="&#x163;" d="M139 961v94l267 49l77 287h105v-293h438v-137h-438v-637q0 -195 192 -195q93 0 240 21v-138q-130 -32 -252 -32q-362 0 -362 344v637h-267zM468 -375q33 -6 80 -6q151 0 151 92q0 74 -172 113l91 176h120l-57 -115q160 -37 160 -172q0 -205 -291 -205q-34 0 -82 9v108z " />
<glyph unicode="&#x164;" d="M102 1298v164h1022v-164h-417v-1298h-187v1298h-418zM282 1880v27h120q82 -54 211 -187q122 128 211 187h121v-27q-25 -29 -59 -67q-141 -158 -176 -234h-193q-35 76 -176 234z" />
<glyph unicode="&#x165;" d="M139 961v94l267 49l77 287h105v-293h438v-137h-438v-637q0 -195 192 -195q93 0 240 21v-138q-130 -32 -252 -32q-362 0 -362 344v637h-267zM799 1229v26l26 107q26 116 35 194h180v-20q0 -14 -42 -113t-103 -194h-96z" />
<glyph unicode="&#x166;" d="M102 1298v164h1022v-164h-417v-479h294v-149h-294v-670h-187v670h-297v149h297v479h-418z" />
<glyph unicode="&#x167;" d="M139 961v94l267 49l77 287h105v-293h438v-137h-438v-248h307v-138h-307v-251q0 -195 192 -195q93 0 240 21v-138q-130 -32 -252 -32q-362 0 -362 344v251h-162v138h162v248h-267z" />
<glyph unicode="&#x168;" d="M125 520v942h186v-932q0 -387 307 -387q295 0 300 389v932h186v-948q0 -260 -126 -398t-370 -138q-483 0 -483 540zM260 1579q25 264 211 264q58 0 161 -56q102 -56 136 -56q80 0 106 114h105q-27 -264 -211 -264q-57 0 -157 57q-100 56 -140 56q-82 0 -107 -115h-104z " />
<glyph unicode="&#x169;" d="M160 381v717h182v-707q0 -260 236 -260q161 0 235 92.5t74 304.5v570h182v-1098h-147l-27 147h-10q-105 -167 -334 -167q-391 0 -391 401zM256 1241q25 264 211 264q58 0 161 -56q102 -56 136 -56q80 0 106 114h105q-27 -264 -211 -264q-57 0 -157 57q-100 56 -140 56 q-82 0 -107 -115h-104z" />
<glyph unicode="&#x16a;" d="M125 520v942h186v-932q0 -387 307 -387q295 0 300 389v932h186v-948q0 -260 -126 -398t-370 -138q-483 0 -483 540zM326 1579v150h575v-150h-575z" />
<glyph unicode="&#x16b;" d="M160 381v717h182v-707q0 -260 236 -260q161 0 235 92.5t74 304.5v570h182v-1098h-147l-27 147h-10q-105 -167 -334 -167q-391 0 -391 401zM328 1241v150h575v-150h-575z" />
<glyph unicode="&#x16c;" d="M125 520v942h186v-932q0 -387 307 -387q295 0 300 389v932h186v-948q0 -260 -126 -398t-370 -138q-483 0 -483 540zM312 1856h109q7 -76 46.5 -100.5t143.5 -24.5q181 0 191 125h112q-9 -127 -89 -202t-216 -75q-280 0 -297 277z" />
<glyph unicode="&#x16d;" d="M160 381v717h182v-707q0 -260 236 -260q161 0 235 92.5t74 304.5v570h182v-1098h-147l-27 147h-10q-105 -167 -334 -167q-391 0 -391 401zM313 1518h109q7 -76 46.5 -100.5t143.5 -24.5q181 0 191 125h112q-9 -127 -89 -202t-216 -75q-280 0 -297 277z" />
<glyph unicode="&#x16e;" d="M125 520v942h186v-932q0 -387 307 -387q295 0 300 389v932h186v-948q0 -260 -126 -398t-370 -138q-483 0 -483 540zM389 1794q0 99 60.5 157t162.5 58q101 0 165.5 -59t64.5 -154q0 -98 -63.5 -157.5t-166.5 -59.5q-102 0 -162.5 58t-60.5 157zM500 1794q0 -113 112 -113 q50 0 81.5 30t31.5 83t-31.5 83t-81.5 30q-49 0 -80.5 -30t-31.5 -83z" />
<glyph unicode="&#x16f;" d="M160 381v717h182v-707q0 -260 236 -260q161 0 235 92.5t74 304.5v570h182v-1098h-147l-27 147h-10q-105 -167 -334 -167q-391 0 -391 401zM384 1456q0 99 60.5 157t162.5 58q101 0 165.5 -59t64.5 -154q0 -98 -63.5 -157.5t-166.5 -59.5q-102 0 -162.5 58t-60.5 157z M495 1456q0 -113 112 -113q50 0 81.5 30t31.5 83t-31.5 83t-81.5 30q-49 0 -80.5 -30t-31.5 -83z" />
<glyph unicode="&#x170;" d="M125 520v942h186v-932q0 -387 307 -387q295 0 300 389v932h186v-948q0 -260 -126 -398t-370 -138q-483 0 -483 540zM322 1579v27q94 133 174 301h198v-21q-112 -173 -272 -307h-100zM684 1579v27q87 118 174 301h199v-21q-112 -173 -272 -307h-101z" />
<glyph unicode="&#x171;" d="M160 381v717h182v-707q0 -260 236 -260q161 0 235 92.5t74 304.5v570h182v-1098h-147l-27 147h-10q-105 -167 -334 -167q-391 0 -391 401zM326 1241v27q94 133 174 301h198v-21q-112 -173 -272 -307h-100zM688 1241v27q87 118 174 301h199v-21q-112 -173 -272 -307h-101z " />
<glyph unicode="&#x172;" d="M125 520v942h186v-932q0 -387 307 -387q295 0 300 389v932h186v-948q0 -260 -126 -398t-370 -138q-483 0 -483 540zM441 -252q0 144 190 252h131q-170 -125 -170 -238q0 -96 127 -96q66 0 123 15v-113q-73 -23 -156 -23q-119 0 -182 54.5t-63 148.5z" />
<glyph unicode="&#x173;" d="M160 381v717h182v-707q0 -260 236 -260q161 0 235 92.5t74 304.5v570h182v-1098h-147l-27 147h-10q-105 -167 -334 -167q-391 0 -391 401zM723 -252q0 144 190 252h131q-170 -125 -170 -238q0 -96 127 -96q66 0 123 15v-113q-73 -23 -156 -23q-119 0 -182 54.5t-63 148.5 z" />
<glyph unicode="&#x174;" d="M2 1462h170l88 -663q23 -176 40 -378t17 -241q24 151 70 312l141 516h177l145 -521q61 -219 72 -307q2 53 65 619l70 663h170l-187 -1462h-190l-168 580q-40 138 -66 282q-32 -173 -65 -284l-156 -578h-190zM285 1579v27q25 29 59 67q139 155 176 234h193 q37 -79 176 -234l59 -67v-27h-121q-85 56 -211 186q-133 -136 -211 -186h-120z" />
<glyph unicode="&#x175;" d="M-4 1098h162l98 -543q34 -186 57 -393h6q31 185 68 358l133 578h193l127 -578q43 -195 67 -358h6q31 242 60 393l102 543h158l-225 -1098h-195l-131 596l-68 330h-6l-65 -334l-135 -592h-189zM280 1241v27q25 29 59 67q139 155 176 234h193q37 -79 176 -234l59 -67v-27 h-121q-85 56 -211 186q-133 -136 -211 -186h-120z" />
<glyph unicode="&#x176;" d="M33 1462h203l376 -739l381 739h201l-487 -893v-569h-187v559zM282 1579v27q25 29 59 67q139 155 176 234h193q37 -79 176 -234l59 -67v-27h-121q-85 56 -211 186q-133 -136 -211 -186h-120z" />
<glyph unicode="&#x177;" d="M82 1098h188l262 -654q82 -205 89 -290h6q23 112 90 292l239 652h189l-475 -1241q-67 -174 -156 -261.5t-246 -87.5q-86 0 -168 17v145q62 -12 136 -12q96 0 149.5 41t95.5 141l58 150zM285 1241v27q25 29 59 67q139 155 176 234h193q37 -79 176 -234l59 -67v-27h-121 q-85 56 -211 186q-133 -136 -211 -186h-120z" />
<glyph unicode="&#x178;" d="M33 1462h203l376 -739l381 739h201l-487 -893v-569h-187v559zM332 1733q0 102 96 102t96 -102q0 -103 -96 -103t-96 103zM707 1733q0 102 96 102t96 -102q0 -103 -96 -103t-96 103z" />
<glyph unicode="&#x179;" d="M102 0v145l793 1151h-772v166h981v-145l-793 -1151h813v-166h-1022zM475 1579v27q94 133 174 301h219v-21q-112 -173 -272 -307h-121z" />
<glyph unicode="&#x17a;" d="M182 0v125l660 836h-627v137h811v-146l-647 -815h665v-137h-862zM496 1241v27q94 133 174 301h219v-21q-112 -173 -272 -307h-121z" />
<glyph unicode="&#x17b;" d="M102 0v145l793 1151h-772v166h981v-145l-793 -1151h813v-166h-1022zM524 1733q0 114 106 114q107 0 107 -114q0 -115 -107 -115q-106 0 -106 115z" />
<glyph unicode="&#x17c;" d="M182 0v125l660 836h-627v137h811v-146l-647 -815h665v-137h-862zM524 1395q0 114 106 114q107 0 107 -114q0 -115 -107 -115q-106 0 -106 115z" />
<glyph unicode="&#x17d;" d="M102 0v145l793 1151h-772v166h981v-145l-793 -1151h813v-166h-1022zM282 1880v27h120q82 -54 211 -187q122 128 211 187h121v-27q-25 -29 -59 -67q-141 -158 -176 -234h-193q-35 76 -176 234z" />
<glyph unicode="&#x17e;" d="M182 0v125l660 836h-627v137h811v-146l-647 -815h665v-137h-862zM295 1542v27h120q82 -54 211 -187q122 128 211 187h121v-27q-25 -29 -59 -67q-141 -158 -176 -234h-193q-35 76 -176 234z" />
<glyph unicode="&#x17f;" d="M356 0v1200q0 190 90 278.5t299 88.5q125 0 273 -35l-41 -143q-105 28 -227 28q-119 0 -165 -48t-46 -167v-1202h-183z" />
<glyph unicode="&#x192;" d="M215 -324q59 -18 115 -18q92 0 123.5 51t31.5 164v963h-194v75l194 68v137q0 190 76.5 278.5t255.5 88.5q97 0 197 -37l-47 -141q-79 28 -144 28q-92 0 -123.5 -51t-31.5 -164v-145h245v-137h-245v-961q0 -190 -76.5 -278.5t-255.5 -88.5q-51 0 -121 15v153z" />
<glyph unicode="&#x1a0;" d="M84 735q0 170 30 308.5t94.5 236.5t166 151.5t243.5 53.5q124 0 217.5 -45t159.5 -131q18 19 29.5 45t18 57.5t9.5 68t5 76.5h198l15 -22q-11 -52 -27.5 -101.5t-41 -93t-58.5 -80.5t-80 -65q42 -91 63 -207.5t21 -253.5q0 -169 -32 -308t-98 -238t-166 -153t-235 -54 q-142 0 -242.5 54t-165 153t-94.5 238.5t-30 309.5zM281 733q0 -137 18 -246.5t57.5 -186t103.5 -117t156 -40.5q93 0 157 40.5t103 117t56.5 186t17.5 246.5q0 138 -17.5 247t-56.5 184.5t-102.5 116t-155.5 40.5q-93 0 -157 -40.5t-104 -116t-58 -184.5t-18 -247z" />
<glyph unicode="&#x1a1;" d="M115 551q0 136 36.5 241.5t102.5 178t158.5 110t203.5 37.5q97 0 182.5 -33t151.5 -98q38 16 59.5 44t32 64t13 79.5t2.5 91.5h198l15 -23q-15 -69 -36 -126t-49.5 -102.5t-66 -79t-86.5 -54.5q38 -66 59 -148.5t21 -181.5q0 -137 -37 -243.5t-103.5 -179t-158.5 -110.5 t-203 -38q-103 0 -193 38t-157 110.5t-106 179t-39 243.5zM303 551q0 -211 78.5 -315.5t232.5 -104.5q310 0 310 420q0 210 -78.5 313t-233.5 103q-154 0 -231.5 -103t-77.5 -313z" />
<glyph unicode="&#x1af;" d="M125 479v983h186v-973q0 -87 12 -152t39 -108t71.5 -64.5t109.5 -21.5q67 0 110 24t67.5 69t34 109.5t9.5 146.5v970h186v-194q47 8 74.5 34t42 64.5t19 87t4.5 102.5h198l15 -22q-15 -69 -39 -132.5t-65 -116t-101.5 -90t-147.5 -54.5v-666q0 -114 -22.5 -205.5 t-72 -156t-129 -99t-194.5 -34.5q-108 0 -185 32.5t-126.5 95.5t-72.5 156t-23 215z" />
<glyph unicode="&#x1b0;" d="M160 381v717h182v-707q0 -130 42 -195t132 -65q66 0 111 26t73 76.5t40 124.5t12 170v570h182v-123q52 6 83 31t47 64t21 89.5t5 106.5h198l15 -23q-15 -70 -40 -138t-67.5 -123t-106 -91t-155.5 -43v-848h-148l-26 147h-8q-22 -43 -52 -74.5t-66 -52t-76 -30.5t-81 -10 q-79 0 -138.5 23t-99 72t-59.5 125t-20 181z" />
<glyph unicode="&#x1f0;" d="M135 -303q134 -39 289 -39q117 0 182.5 57t65.5 158v1081l-420 21v123h602v-1215q0 -180 -113 -277.5t-319 -97.5q-164 0 -287 35v154zM274 1542v27h120q82 -54 211 -187q122 128 211 187h121v-27q-25 -29 -59 -67q-141 -158 -176 -234h-193q-35 76 -176 234z" />
<glyph unicode="&#x1fa;" d="M33 0l483 1468h195l485 -1468h-192l-144 453h-491l-146 -453h-190zM389 1581q0 99 60.5 157t162.5 58q101 0 165.5 -59t64.5 -154q0 -98 -63.5 -157.5t-166.5 -59.5q-102 0 -162.5 58t-60.5 157zM422 618h385l-133 424q-39 124 -62 226q-20 -99 -46 -183zM490 1835v27 q94 133 174 301h219v-21q-112 -173 -272 -307h-121zM500 1581q0 -113 112 -113q50 0 81.5 30t31.5 83t-31.5 83t-81.5 30q-49 0 -80.5 -30t-31.5 -83z" />
<glyph unicode="&#x1fb;" d="M135 307q0 332 510 348l203 7v69q0 236 -244 236q-147 0 -328 -82l-63 137q196 96 383 96q227 0 328.5 -87t101.5 -279v-752h-131l-37 152h-8q-77 -97 -158 -134.5t-209 -37.5q-163 0 -255.5 86t-92.5 241zM324 305q0 -178 200 -178q147 0 234.5 81.5t87.5 229.5v99 l-162 -7q-196 -8 -278 -61.5t-82 -163.5zM387 1456q0 99 60.5 157t162.5 58q101 0 165.5 -59t64.5 -154q0 -98 -63.5 -157.5t-166.5 -59.5q-102 0 -162.5 58t-60.5 157zM498 1456q0 -113 112 -113q50 0 81.5 30t31.5 83t-31.5 83t-81.5 30q-49 0 -80.5 -30t-31.5 -83z M512 1720v27q94 133 174 301h219v-21q-112 -173 -272 -307h-121z" />
<glyph unicode="&#x1fc;" d="M0 0l338 1462h872v-164h-477v-452h438v-162h-438v-520h477v-164h-653v453h-289l-96 -453h-172zM305 618h252v680h-106zM631 1579v27q94 133 174 301h219v-21q-112 -173 -272 -307h-121z" />
<glyph unicode="&#x1fd;" d="M45 307q0 332 328 348l149 7v69q0 236 -139 236q-107 0 -211 -82l-57 137q131 96 276 96q188 0 246 -178q78 178 240 178q137 0 223 -135.5t86 -355.5v-113h-496q3 -192 67 -283.5t169 -91.5q111 0 233 76v-162q-107 -73 -241 -73q-222 0 -316 229q-105 -229 -301 -229 q-115 0 -185.5 86.5t-70.5 240.5zM215 305q0 -83 32 -130.5t87 -47.5q82 0 134 82.5t52 228.5v99l-88 -7q-217 -17 -217 -225zM531 1241v27q94 133 174 301h219v-21q-112 -173 -272 -307h-121zM694 662h316q0 141 -40.5 223t-111.5 82q-68 0 -113 -78t-51 -227z" />
<glyph unicode="&#x1fe;" d="M80 2l121 197q-117 184 -117 536q0 750 534 750q186 0 310 -105l92 152l137 -78l-125 -201q115 -188 115 -520q0 -361 -138 -557t-393 -196q-189 0 -307 94l-92 -150zM281 733q0 -212 38 -342l515 836q-80 94 -216 94q-337 0 -337 -588zM403 229q80 -86 213 -86 q173 0 253.5 145t80.5 445q0 209 -35 328zM475 1579v27q94 133 174 301h219v-21q-112 -173 -272 -307h-121z" />
<glyph unicode="&#x1ff;" d="M115 551q0 266 133 416.5t368 150.5q128 0 236 -57l76 119l131 -84l-84 -131q137 -156 137 -414q0 -271 -134.5 -421t-367.5 -150q-129 0 -233 53l-76 -119l-131 84l84 131q-139 158 -139 422zM303 551q0 -180 53 -275l406 656q-66 35 -156 35q-161 0 -232 -103.5 t-71 -312.5zM467 164q61 -33 154 -33q161 0 232 105.5t71 314.5q0 164 -52 266zM498 1241v27q94 133 174 301h219v-21q-112 -173 -272 -307h-121z" />
<glyph unicode="&#x218;" d="M141 49v178q211 -86 414 -86q350 0 350 240q0 104 -70.5 160t-285.5 133q-208 73 -298.5 174.5t-90.5 263.5q0 174 128.5 272.5t352.5 98.5q229 0 416 -78l-64 -164q-193 78 -360 78q-293 0 -293 -209q0 -102 65.5 -164t270.5 -133q246 -88 328.5 -181.5t82.5 -240.5 q0 -192 -138.5 -301.5t-393.5 -109.5q-265 0 -414 69zM483 -426q62 140 84 301h178v-20q0 -22 -48 -124t-115 -184h-99v27z" />
<glyph unicode="&#x219;" d="M203 49v166q193 -86 370 -86q275 0 275 162q0 57 -49 99t-226 106q-233 87 -293.5 159.5t-60.5 171.5q0 136 111.5 213.5t308.5 77.5q198 0 369 -74l-60 -149q-182 72 -319 72q-236 0 -236 -133q0 -61 50.5 -97.5t232.5 -101.5q211 -77 280.5 -151.5t69.5 -182.5 q0 -150 -117 -235.5t-331 -85.5q-248 0 -375 69zM455 -426q62 140 84 301h178v-20q0 -22 -48 -124t-115 -184h-99v27z" />
<glyph unicode="&#x21a;" d="M102 1298v164h1022v-164h-417v-1298h-187v1298h-418zM449 -426q62 140 84 301h178v-20q0 -22 -48 -124t-115 -184h-99v27z" />
<glyph unicode="&#x21b;" d="M139 961v94l267 49l77 287h105v-293h438v-137h-438v-637q0 -195 192 -195q93 0 240 21v-138q-130 -32 -252 -32q-362 0 -362 344v637h-267zM489 -426q62 140 84 301h178v-20q0 -22 -48 -124t-115 -184h-99v27z" />
<glyph unicode="&#x237;" d="M135 -303q134 -39 289 -39q117 0 182.5 57t65.5 158v1081l-420 21v123h602v-1215q0 -180 -113 -277.5t-319 -97.5q-164 0 -287 35v154z" />
<glyph unicode="&#x2bc;" d="M446 961q65 266 101 501h219l14 -22q-55 -213 -176 -479h-158z" />
<glyph unicode="&#x2c6;" d="M283 1241v27q25 29 59 67q139 155 176 234h193q37 -79 176 -234l59 -67v-27h-121q-85 56 -211 186q-133 -136 -211 -186h-120z" />
<glyph unicode="&#x2c7;" d="M283 1542v27h120q82 -54 211 -187q122 128 211 187h121v-27q-25 -29 -59 -67q-141 -158 -176 -234h-193q-35 76 -176 234z" />
<glyph unicode="&#x2c9;" d="M326 1241v150h575v-150h-575z" />
<glyph unicode="&#x2d8;" d="M313 1518h109q7 -76 46.5 -100.5t143.5 -24.5q181 0 191 125h112q-9 -127 -89 -202t-216 -75q-280 0 -297 277z" />
<glyph unicode="&#x2d9;" d="M508 1395q0 114 106 114q107 0 107 -114q0 -115 -107 -115q-106 0 -106 115z" />
<glyph unicode="&#x2da;" d="M387 1456q0 99 60.5 157t162.5 58q101 0 165.5 -59t64.5 -154q0 -98 -63.5 -157.5t-166.5 -59.5q-102 0 -162.5 58t-60.5 157zM498 1456q0 -113 112 -113q50 0 81.5 30t31.5 83t-31.5 83t-81.5 30q-49 0 -80.5 -30t-31.5 -83z" />
<glyph unicode="&#x2db;" d="M414 -252q0 144 190 252h131q-170 -125 -170 -238q0 -96 127 -96q66 0 123 15v-113q-73 -23 -156 -23q-119 0 -182 54.5t-63 148.5z" />
<glyph unicode="&#x2dc;" d="M254 1241q25 264 211 264q58 0 161 -56q102 -56 136 -56q80 0 106 114h105q-27 -264 -211 -264q-57 0 -157 57q-100 56 -140 56q-82 0 -107 -115h-104z" />
<glyph unicode="&#x2dd;" d="M246 1241v27q94 133 174 301h198v-21q-112 -173 -272 -307h-100zM608 1241v27q87 118 174 301h199v-21q-112 -173 -272 -307h-101z" />
<glyph unicode="&#x2f3;" d="M387 -340q0 51 16 90.5t45.5 67.5t70.5 42.5t91 14.5q48 0 90 -14.5t73 -42t49 -67t18 -89.5q0 -51 -17.5 -91.5t-48.5 -68.5t-73 -42.5t-91 -14.5q-50 0 -91 14.5t-70.5 42.5t-45.5 67.5t-16 90.5zM498 -340q0 -53 28.5 -83t83.5 -30q50 0 81.5 30t31.5 83t-31.5 83 t-81.5 30q-49 0 -80.5 -30t-31.5 -83z" />
<glyph unicode="&#x300;" d="M418 1548v21h219q86 -178 174 -301v-27h-121q-166 142 -272 307z" />
<glyph unicode="&#x301;" d="M418 1241v27q94 133 174 301h219v-21q-112 -173 -272 -307h-121z" />
<glyph unicode="&#x303;" d="M254 1241q25 264 211 264q58 0 161 -56q102 -56 136 -56q80 0 106 114h105q-27 -264 -211 -264q-57 0 -157 57q-100 56 -140 56q-82 0 -107 -115h-104z" />
<glyph unicode="&#x309;" d="M428 1563v108q16 3 41 5.5t66 2.5q133 0 199.5 -45.5t66.5 -142.5q0 -39 -13.5 -68t-36 -49.5t-52.5 -33.5t-64 -21l-10 -111h-113l-14 176q37 6 66.5 14t50.5 20t32.5 28.5t11.5 40.5t-10 40t-28 25.5t-43 13t-54 3.5q-28 0 -54 -1.5t-42 -4.5z" />
<glyph unicode="&#x30f;" d="M205 1548v21h198q16 -34 37.5 -74.5t44.5 -81t47 -78.5t46 -67v-27h-101q-34 28 -75 69.5t-79.5 85.5t-70 84.5t-47.5 67.5zM567 1548v21h199q16 -34 37.5 -74.5t44.5 -81t47 -78.5t45 -67v-27h-100q-34 28 -75 69.5t-79.5 85.5t-70.5 84.5t-48 67.5z" />
<glyph unicode="&#x323;" d="M508 -246q0 60 30.5 87.5t75.5 27.5q44 0 75.5 -27.5t31.5 -87.5q0 -29 -8.5 -50.5t-23 -35.5t-34 -21t-41.5 -7q-45 0 -75.5 27.5t-30.5 86.5z" />
<glyph unicode="&#x384;" d="M479 1241v27l30 107q30 114 40 194h199v-21q0 -16 -49.5 -120t-110.5 -187h-109z" />
<glyph unicode="&#x385;" d="M299 1395q0 102 96 102q97 0 97 -102q0 -49 -28 -76t-69 -27q-96 0 -96 103zM532 1389v26q50 139 91 301h206v-20q-93 -164 -215 -307h-82zM735 1395q0 102 96 102q97 0 97 -102q0 -103 -97 -103q-96 0 -96 103z" />
<glyph unicode="&#x386;" d="M33 0l483 1468h195l485 -1468h-192l-144 453h-491l-146 -453h-190zM36 1136v27l30 107q30 114 40 194h199v-21q0 -16 -49.5 -120t-110.5 -187h-109zM422 618h385l-133 424q-39 124 -62 226q-20 -99 -46 -183z" />
<glyph unicode="&#x387;" d="M487 723q0 139 127 139t127 -139t-127 -139t-127 139z" />
<glyph unicode="&#x388;" d="M-114 1136v27l30 107q30 114 40 194h199v-21q0 -16 -49.5 -120t-110.5 -187h-109zM217 0v1462h842v-164h-656v-452h617v-162h-617v-520h656v-164h-842z" />
<glyph unicode="&#x389;" d="M-155 1136v27l30 107q30 114 40 194h199v-21q0 -16 -49.5 -120t-110.5 -187h-109zM135 0v1462h187v-616h585v616h187v-1462h-187v682h-585v-682h-187z" />
<glyph unicode="&#x38a;" d="M-93 1136v27l30 107q30 114 40 194h199v-21q0 -16 -49.5 -120t-110.5 -187h-109zM225 0v123l295 20v1176l-295 20v123h776v-123l-294 -20v-1176l294 -20v-123h-776z" />
<glyph unicode="&#x38c;" d="M-132 1136v27l30 107q30 114 40 194h199v-21q0 -16 -49.5 -120t-110.5 -187h-109zM84 735q0 750 534 750q256 0 392.5 -195.5t136.5 -556.5t-138 -557t-393 -196q-532 0 -532 755zM281 733q0 -590 335 -590q173 0 253.5 145t80.5 445q0 303 -81.5 445.5t-250.5 142.5 q-337 0 -337 -588z" />
<glyph unicode="&#x38e;" d="M-237 1136v27l30 107q30 114 40 194h199v-21q0 -16 -49.5 -120t-110.5 -187h-109zM33 1462h203l376 -739l381 739h201l-487 -893v-569h-187v559z" />
<glyph unicode="&#x38f;" d="M-134 1136v27l30 107q30 114 40 194h199v-21q0 -16 -49.5 -120t-110.5 -187h-109zM74 0v164h266q-254 235 -254 661q0 312 140 486t390 174t390.5 -174t140.5 -486q0 -429 -256 -661h268v-164h-469v147q260 231 260 674q0 500 -336 500q-335 0 -335 -500q0 -443 262 -674 v-147h-467z" />
<glyph unicode="&#x390;" d="M241 1395q0 102 96 102q97 0 97 -102q0 -49 -28 -76t-69 -27q-96 0 -96 103zM428 324v774h182v-774q0 -195 193 -195q112 0 213 21v-138q-93 -32 -225 -32q-363 0 -363 344zM474 1389v26q50 139 91 301h206v-20q-93 -164 -215 -307h-82zM677 1395q0 102 96 102 q97 0 97 -102q0 -103 -97 -103q-96 0 -96 103z" />
<glyph unicode="&#x391;" d="M33 0l483 1468h195l485 -1468h-192l-144 453h-491l-146 -453h-190zM422 618h385l-133 424q-39 124 -62 226q-20 -99 -46 -183z" />
<glyph unicode="&#x392;" d="M135 0v1462h440q274 0 397.5 -87.5t123.5 -282.5q0 -128 -78.5 -213t-212.5 -103v-10q332 -54 332 -342q0 -198 -127.5 -311t-347.5 -113h-527zM322 158h307q311 0 311 274q0 254 -324 254h-294v-528zM322 842h284q156 0 227.5 55t71.5 182q0 120 -76.5 172t-242.5 52 h-264v-461z" />
<glyph unicode="&#x393;" d="M246 0v1462h825v-166h-639v-1296h-186z" />
<glyph unicode="&#x394;" d="M68 0v133l450 1329h187l454 -1337v-125h-1091zM268 166h686l-252 752q-52 155 -92 339q-51 -223 -88 -333z" />
<glyph unicode="&#x395;" d="M217 0v1462h842v-164h-656v-452h617v-162h-617v-520h656v-164h-842z" />
<glyph unicode="&#x396;" d="M102 0v145l793 1151h-772v166h981v-145l-793 -1151h813v-166h-1022z" />
<glyph unicode="&#x397;" d="M135 0v1462h187v-616h585v616h187v-1462h-187v682h-585v-682h-187z" />
<glyph unicode="&#x398;" d="M84 735q0 750 534 750q256 0 392.5 -195.5t136.5 -556.5t-138 -557t-393 -196q-532 0 -532 755zM281 733q0 -590 335 -590q173 0 253.5 145t80.5 445q0 303 -81.5 445.5t-250.5 142.5q-337 0 -337 -588zM410 664v161h411v-161h-411z" />
<glyph unicode="&#x399;" d="M225 0v123l295 20v1176l-295 20v123h776v-123l-294 -20v-1176l294 -20v-123h-776z" />
<glyph unicode="&#x39a;" d="M211 0v1462h186v-731l121 168l453 563h209l-521 -637l539 -825h-211l-450 698l-140 -114v-584h-186z" />
<glyph unicode="&#x39b;" d="M33 0l487 1462h187l489 -1462h-199l-292 922q-63 199 -93 340q-45 -200 -88 -334l-295 -928h-196z" />
<glyph unicode="&#x39c;" d="M113 0v1462h247l248 -1192h6l250 1192h252v-1462h-153v887q0 102 14 391h-8l-283 -1278h-154l-278 1280h-8q18 -266 18 -406v-874h-151z" />
<glyph unicode="&#x39d;" d="M135 0v1462h213l578 -1204h6q-14 303 -14 404v800h174v-1462h-215l-580 1210h-8q18 -277 18 -417v-793h-172z" />
<glyph unicode="&#x39e;" d="M111 0v164h1005v-164h-1005zM152 1298v164h923v-164h-923zM233 684v162h760v-162h-760z" />
<glyph unicode="&#x39f;" d="M84 735q0 750 534 750q256 0 392.5 -195.5t136.5 -556.5t-138 -557t-393 -196q-532 0 -532 755zM281 733q0 -590 335 -590q173 0 253.5 145t80.5 445q0 303 -81.5 445.5t-250.5 142.5q-337 0 -337 -588z" />
<glyph unicode="&#x3a0;" d="M135 0v1462h959v-1462h-187v1298h-585v-1298h-187z" />
<glyph unicode="&#x3a1;" d="M176 0v1462h404q514 0 514 -428q0 -219 -138.5 -342t-402.5 -123h-191v-569h-186zM362 727h170q198 0 283.5 72t85.5 225q0 279 -338 279h-201v-576z" />
<glyph unicode="&#x3a3;" d="M131 0v152l414 614l-402 549v147h893v-164h-680l389 -530l-409 -604h760v-164h-965z" />
<glyph unicode="&#x3a4;" d="M102 1298v164h1022v-164h-417v-1298h-187v1298h-418z" />
<glyph unicode="&#x3a5;" d="M33 1462h203l376 -739l381 739h201l-487 -893v-569h-187v559z" />
<glyph unicode="&#x3a6;" d="M27 758q0 235 122.5 390t335.5 155h47v180h166v-180h47q213 0 336 -154.5t123 -390.5t-126.5 -394.5t-354.5 -158.5h-25v-225h-166v225h-24q-230 0 -355.5 159t-125.5 394zM199 762q0 -187 86 -293.5t241 -106.5h6v781h-32q-143 0 -222 -104.5t-79 -276.5zM698 362h7 q155 0 241 106.5t86 293.5q0 172 -79 276.5t-222 104.5h-33v-781z" />
<glyph unicode="&#x3a7;" d="M53 0l453 764l-422 698h199l331 -559l334 559h191l-422 -692l457 -770h-211l-355 635l-366 -635h-189z" />
<glyph unicode="&#x3a8;" d="M57 979v483h172v-479q0 -231 69 -305t218 -74h16v858h166v-858h17q149 0 217.5 72t68.5 303v483h173v-479q0 -287 -116 -412t-343 -125h-17v-446h-166v446h-16q-230 0 -344.5 125.5t-114.5 407.5z" />
<glyph unicode="&#x3a9;" d="M74 0v164h266q-254 235 -254 661q0 312 140 486t390 174t390.5 -174t140.5 -486q0 -429 -256 -661h268v-164h-469v147q260 231 260 674q0 500 -336 500q-335 0 -335 -500q0 -443 262 -674v-147h-467z" />
<glyph unicode="&#x3aa;" d="M225 0v123l295 20v1176l-295 20v123h776v-123l-294 -20v-1176l294 -20v-123h-776zM332 1733q0 102 96 102t96 -102q0 -103 -96 -103t-96 103zM707 1733q0 102 96 102t96 -102q0 -103 -96 -103t-96 103z" />
<glyph unicode="&#x3ab;" d="M33 1462h203l376 -739l381 739h201l-487 -893v-569h-187v559zM332 1733q0 102 96 102t96 -102q0 -103 -96 -103t-96 103zM707 1733q0 102 96 102t96 -102q0 -103 -96 -103t-96 103z" />
<glyph unicode="&#x3ac;" d="M121 547q0 273 115 422t321 149q210 0 305 -168h12q30 103 68 148h143q-51 -166 -51 -439v-419q0 -111 84 -111q29 0 60 10v-133q-52 -26 -115 -26q-159 0 -199 167h-12q-108 -167 -313 -167q-195 0 -306.5 148.5t-111.5 418.5zM309 545q0 -414 264 -414q148 0 211.5 92 t67.5 309v15q0 227 -67 323.5t-214 96.5q-262 0 -262 -422zM495 1241v27l30 107q30 114 40 194h199v-21q0 -16 -49.5 -120t-110.5 -187h-109z" />
<glyph unicode="&#x3ad;" d="M201 299q0 193 237 268v11q-202 66 -202 249q0 135 112 213t301 78q216 0 383 -76l-63 -147q-161 72 -316 72q-243 0 -243 -154q0 -166 276 -166h154v-153h-160q-301 0 -301 -185q0 -180 283 -180q196 0 366 86v-160q-134 -75 -377 -75q-211 0 -330.5 84t-119.5 235z M575 1241v27l30 107q30 114 40 194h199v-21q0 -16 -49.5 -120t-110.5 -187h-109z" />
<glyph unicode="&#x3ae;" d="M160 0v1098h147l27 -148h10q102 168 336 168q389 0 389 -401v-1209h-182v1199q0 260 -238 260q-307 0 -307 -398v-569h-182zM559 1241v27l30 107q30 114 40 194h199v-21q0 -16 -49.5 -120t-110.5 -187h-109z" />
<glyph unicode="&#x3af;" d="M428 324v774h182v-774q0 -195 193 -195q112 0 213 21v-138q-93 -32 -225 -32q-363 0 -363 344zM470 1241v27l30 107q30 114 40 194h199v-21q0 -16 -49.5 -120t-110.5 -187h-109z" />
<glyph unicode="&#x3b0;" d="M160 498v600h182v-590q0 -379 274 -379q150 0 217.5 116t67.5 363q0 237 -63 490h182q63 -245 63 -498q0 -318 -115 -469t-358 -151q-450 0 -450 518zM296 1395q0 102 96 102q97 0 97 -102q0 -49 -28 -76t-69 -27q-96 0 -96 103zM529 1389v26q50 139 91 301h206v-20 q-93 -164 -215 -307h-82zM732 1395q0 102 96 102q97 0 97 -102q0 -103 -97 -103q-96 0 -96 103z" />
<glyph unicode="&#x3b1;" d="M121 547q0 273 115 422t321 149q210 0 305 -168h12q30 103 68 148h143q-51 -166 -51 -439v-419q0 -111 84 -111q29 0 60 10v-133q-52 -26 -115 -26q-159 0 -199 167h-12q-108 -167 -313 -167q-195 0 -306.5 148.5t-111.5 418.5zM309 545q0 -414 264 -414q148 0 211.5 92 t67.5 309v15q0 227 -67 323.5t-214 96.5q-262 0 -262 -422z" />
<glyph unicode="&#x3b2;" d="M158 -492v1588q0 226 119 348.5t327 122.5q198 0 316 -105t118 -288q0 -136 -80.5 -227t-234.5 -118v-6q381 -48 381 -409q0 -205 -122.5 -319.5t-338.5 -114.5q-186 0 -303 63v-535h-182zM340 209q135 -80 289 -80q293 0 293 299q0 146 -95 228.5t-254 82.5h-94v152h70 q142 0 222.5 75t80.5 201q0 118 -67 184t-181 66q-264 0 -264 -330v-878z" />
<glyph unicode="&#x3b3;" d="M82 1098h192l242 -592q71 -174 107 -320h6q26 104 98 295l229 617h189l-406 -1035q-110 -280 -110 -555h-191q0 207 101 504z" />
<glyph unicode="&#x3b4;" d="M135 438q0 372 422 500q-254 145 -254 348q0 133 91 207t251 74q199 0 393 -109l-73 -145q-169 106 -328 106q-74 0 -117 -36.5t-43 -100.5q0 -63 42 -114.5t214 -151.5q361 -206 361 -518q0 -246 -129.5 -382t-354.5 -136q-213 0 -344 123.5t-131 334.5zM328 434 q0 -135 76 -219t206 -84q295 0 295 350q0 244 -221 373q-356 -100 -356 -420z" />
<glyph unicode="&#x3b5;" d="M201 299q0 193 237 268v11q-202 66 -202 249q0 135 112 213t301 78q216 0 383 -76l-63 -147q-161 72 -316 72q-243 0 -243 -154q0 -166 276 -166h154v-153h-160q-301 0 -301 -185q0 -180 283 -180q196 0 366 86v-160q-134 -75 -377 -75q-211 0 -330.5 84t-119.5 235z" />
<glyph unicode="&#x3b6;" d="M162 469q0 257 161 478t537 468q-215 -12 -352 -12h-285v153h838v-141q-396 -288 -553.5 -485t-157.5 -453q0 -153 83 -217.5t312 -103.5q171 -30 246.5 -80.5t75.5 -161.5q0 -149 -121 -315h-170q121 162 121 260q0 57 -51.5 89.5t-245.5 61.5q-229 35 -333.5 146.5 t-104.5 312.5z" />
<glyph unicode="&#x3b7;" d="M160 0v1098h147l27 -148h10q102 168 336 168q389 0 389 -401v-1209h-182v1199q0 260 -238 260q-307 0 -307 -398v-569h-182z" />
<glyph unicode="&#x3b8;" d="M147 729q0 380 114 563t351 183q231 0 350 -190.5t119 -555.5q0 -749 -469 -749q-229 0 -347 191.5t-118 557.5zM332 670q6 -278 72 -408.5t208 -130.5t209.5 128t73.5 411h-563zM332 807h563q-7 260 -73.5 388t-209.5 128q-139 0 -205.5 -125t-74.5 -391z" />
<glyph unicode="&#x3b9;" d="M428 324v774h182v-774q0 -195 193 -195q112 0 213 21v-138q-93 -32 -225 -32q-363 0 -363 344z" />
<glyph unicode="&#x3ba;" d="M215 0v1098h180v-291l-16 -299h4l137 166l402 424h213l-494 -510l522 -588h-213l-426 469l-129 -82v-387h-180z" />
<glyph unicode="&#x3bb;" d="M61 0l504 1083l-53 160q-34 104 -77 140t-116 36q-56 0 -104 -12v145q65 17 127 17q142 0 213 -67.5t141 -278.5l326 -983q37 -111 102 -111q29 0 60 10v-133q-50 -26 -115 -26q-82 0 -125.5 40t-71.5 127l-135 418q-69 214 -94 336h-6q-36 -138 -119 -321l-268 -580 h-189z" />
<glyph unicode="&#x3bc;" d="M160 -492v1590h182v-707q0 -260 238 -260q160 0 233.5 93t73.5 304v570h182v-1098h-147l-27 147h-10q-97 -167 -301 -167q-173 0 -248 88q6 -153 6 -240v-320h-182z" />
<glyph unicode="&#x3bd;" d="M61 1098h189l223 -586q110 -289 121 -358h6q157 164 236 369t79 575h183q0 -365 -100.5 -610t-325.5 -488h-187z" />
<glyph unicode="&#x3be;" d="M172 422q0 134 75.5 239.5t207.5 147.5v12q-215 59 -215 279q0 114 75 189t260 126q-176 -12 -280 -12h-62v153h764v-153h-69q-217 0 -364.5 -80t-147.5 -219q0 -113 91.5 -165t287.5 -52h190v-137h-201q-207 0 -315.5 -81.5t-108.5 -230.5q0 -91 38 -143.5t107.5 -80.5 t248.5 -60q162 -29 237.5 -79t75.5 -161q0 -149 -121 -315h-170q121 162 121 262q0 53 -49.5 85.5t-237.5 61.5q-438 68 -438 414z" />
<glyph unicode="&#x3bf;" d="M115 551q0 263 135.5 415t365.5 152q218 0 357 -155t139 -412q0 -265 -137 -418t-365 -153q-216 0 -355.5 155.5t-139.5 415.5zM303 551q0 -420 311 -420q310 0 310 420q0 416 -312 416q-309 0 -309 -416z" />
<glyph unicode="&#x3c0;" d="M14 944v74l138 80h1062v-154h-210v-690q0 -125 90 -125q46 0 90 21v-144q-52 -26 -137 -26q-226 0 -226 262v702h-403v-944h-182v944h-222z" />
<glyph unicode="&#x3c1;" d="M158 -492v1043q0 263 126.5 415t344.5 152q206 0 330 -153.5t124 -413.5q0 -270 -123.5 -420.5t-338.5 -150.5q-168 0 -281 90h-6q6 -174 6 -271v-291h-182zM340 231q112 -100 283 -100q144 0 208 105.5t64 314.5t-65 312.5t-209 103.5q-281 0 -281 -396v-340z" />
<glyph unicode="&#x3c2;" d="M172 516q0 602 567 602q164 0 322 -59l-62 -158q-158 57 -272 57q-367 0 -367 -440q0 -187 77.5 -254t269.5 -102q358 -66 358 -252q0 -141 -125 -311h-166q121 163 121 262q0 60 -66 89.5t-229 57.5q-428 71 -428 508z" />
<glyph unicode="&#x3c3;" d="M129 524q0 574 555 574h490v-154h-267q178 -195 178 -440q0 -235 -128.5 -379.5t-352.5 -144.5q-221 0 -348 143.5t-127 400.5zM317 524q0 -185 76.5 -289t218.5 -104q139 0 212 95.5t73 269.5q0 269 -154 448h-59q-199 0 -283 -97.5t-84 -322.5z" />
<glyph unicode="&#x3c4;" d="M106 944v74l134 80h841v-154h-475v-606q0 -215 209 -215q107 0 191 20v-135q-84 -35 -220 -35q-362 0 -362 344v627h-318z" />
<glyph unicode="&#x3c5;" d="M160 498v600h182v-590q0 -379 274 -379q150 0 217.5 116t67.5 363q0 237 -63 490h182q63 -245 63 -498q0 -318 -115 -469t-358 -151q-450 0 -450 518z" />
<glyph unicode="&#x3c6;" d="M74 547q0 314 207 559l120 -90q-97 -129 -131 -232t-34 -237q0 -383 288 -416v606q0 381 281 381q164 0 257 -147.5t93 -399.5q0 -264 -125 -419.5t-348 -169.5v-474h-158v474q-450 25 -450 565zM682 131q305 29 305 438q0 398 -176 398q-129 0 -129 -228v-608z" />
<glyph unicode="&#x3c7;" d="M43 -492l475 830l-180 446q-68 168 -152 168q-29 0 -63 -10v143q53 17 129 17q81 0 136 -54.5t110 -193.5l139 -348l311 592h178l-417 -776l186 -461q46 -114 86 -158.5t104 -44.5q44 0 80 8v-139q-66 -19 -118 -19q-102 0 -169.5 45t-138.5 222l-147 377l-354 -644h-195 z" />
<glyph unicode="&#x3c8;" d="M80 555v543h172v-529q0 -422 272 -438v1423h158v-1421q301 28 301 436q0 250 -63 529h172q63 -276 63 -523q0 -567 -473 -593v-474h-158v474q-233 8 -338.5 143t-105.5 430z" />
<glyph unicode="&#x3c9;" d="M90 532q0 302 105 566h165q-104 -262 -104 -566q0 -401 139 -401q67 0 104.5 71t37.5 197v306h157v-306q0 -130 39.5 -199t102.5 -69q139 0 139 401q0 306 -105 566h166q105 -258 105 -566q0 -552 -289 -552q-181 0 -231 178h-11q-50 -178 -231 -178q-289 0 -289 552z " />
<glyph unicode="&#x3ca;" d="M259 1395q0 102 96 102t96 -102q0 -103 -96 -103t-96 103zM428 324v774h182v-774q0 -195 193 -195q112 0 213 21v-138q-93 -32 -225 -32q-363 0 -363 344zM634 1395q0 102 96 102t96 -102q0 -103 -96 -103t-96 103z" />
<glyph unicode="&#x3cb;" d="M160 498v600h182v-590q0 -379 274 -379q150 0 217.5 116t67.5 363q0 237 -63 490h182q63 -245 63 -498q0 -318 -115 -469t-358 -151q-450 0 -450 518zM330 1395q0 102 96 102t96 -102q0 -103 -96 -103t-96 103zM705 1395q0 102 96 102t96 -102q0 -103 -96 -103t-96 103z " />
<glyph unicode="&#x3cc;" d="M115 551q0 263 135.5 415t365.5 152q218 0 357 -155t139 -412q0 -265 -137 -418t-365 -153q-216 0 -355.5 155.5t-139.5 415.5zM303 551q0 -420 311 -420q310 0 310 420q0 416 -312 416q-309 0 -309 -416zM551 1241v27l30 107q30 114 40 194h199v-21q0 -16 -49.5 -120 t-110.5 -187h-109z" />
<glyph unicode="&#x3cd;" d="M160 498v600h182v-590q0 -379 274 -379q150 0 217.5 116t67.5 363q0 237 -63 490h182q63 -245 63 -498q0 -318 -115 -469t-358 -151q-450 0 -450 518zM518 1241v27l30 107q30 114 40 194h199v-21q0 -16 -49.5 -120t-110.5 -187h-109z" />
<glyph unicode="&#x3ce;" d="M90 532q0 302 105 566h165q-104 -262 -104 -566q0 -401 139 -401q67 0 104.5 71t37.5 197v306h157v-306q0 -130 39.5 -199t102.5 -69q139 0 139 401q0 306 -105 566h166q105 -258 105 -566q0 -552 -289 -552q-181 0 -231 178h-11q-50 -178 -231 -178q-289 0 -289 552z M530 1241v27l30 107q30 114 40 194h199v-21q0 -16 -49.5 -120t-110.5 -187h-109z" />
<glyph unicode="&#x3d1;" d="M10 825q37 17 87 30t104 13q50 0 84.5 -14t56.5 -39t31.5 -59t9.5 -74q0 -35 -5 -78t-10.5 -89.5t-10.5 -95t-5 -93.5q0 -42 10.5 -79t34.5 -64t63 -42.5t97 -15.5q164 0 246 153t82 457q0 23 -1 54t-3 51q-174 2 -295 39.5t-196 97.5t-108.5 137t-33.5 158 q0 67 19.5 123t60 97t104 64t152.5 23q104 0 184.5 -42t139 -120t96 -189.5t55.5 -250.5h143v-137h-137q2 -22 3 -51t1 -60q0 -159 -32 -296t-96.5 -237.5t-162.5 -158t-229 -57.5q-111 0 -184 27.5t-116 75t-60 110t-17 131.5q0 40 5 86.5t10.5 91t10.5 82t5 61.5 q0 45 -15.5 61.5t-46.5 16.5q-24 0 -51 -7.5t-43 -17.5zM426 1272q0 -56 23 -108.5t76 -93.5t138.5 -66.5t210.5 -26.5q-13 108 -41.5 193t-67 143t-84 88.5t-93.5 30.5q-76 0 -119 -44t-43 -116z" />
<glyph unicode="&#x3d2;" d="M31 1462h202l379 -731q25 75 62.5 159t76.5 164t75.5 148.5t60.5 112.5q22 40 45 70.5t50 50t59 29.5t73 10q34 0 55.5 -4.5t38.5 -12.5v-145q-12 3 -28.5 5.5t-28.5 2.5q-28 0 -59 -23.5t-66 -83.5q-12 -21 -35.5 -62.5t-52.5 -96.5t-62 -119.5t-64.5 -132.5t-59.5 -135 t-47 -127v-541h-187v559z" />
<glyph unicode="&#x3d6;" d="M18 944v74l134 80h1052v-154h-155q24 -66 41.5 -123t29 -112t16.5 -113t5 -125q0 -114 -15.5 -204.5t-50 -154.5t-89.5 -98t-134 -34q-94 0 -149.5 43.5t-81.5 134.5h-11q-26 -91 -81.5 -134.5t-149.5 -43.5q-79 0 -134 34t-89.5 98t-50 154.5t-15.5 204.5q0 67 5 125 t16 113t28.5 112t42.5 123h-164zM256 471q0 -91 8 -155.5t25.5 -105.5t43.5 -60t62 -19t63 20.5t44.5 56.5t26 85t8.5 106v203h157v-203q0 -130 39.5 -199t102.5 -69q36 0 62 19t43.5 60t25.5 105.5t8 155.5q0 62 -5 119t-16.5 113t-29 115t-41.5 126h-535 q-25 -67 -42.5 -126t-28.5 -115t-16 -113t-5 -119z" />
<glyph unicode="&#x400;" d="M217 0v1462h842v-164h-656v-452h617v-162h-617v-520h656v-164h-842zM345 1886v21h219q86 -178 174 -301v-27h-121q-166 142 -272 307z" />
<glyph unicode="&#x401;" d="M217 0v1462h842v-164h-656v-452h617v-162h-617v-520h656v-164h-842zM355 1733q0 102 96 102t96 -102q0 -103 -96 -103t-96 103zM730 1733q0 102 96 102t96 -102q0 -103 -96 -103t-96 103z" />
<glyph unicode="&#x402;" d="M23 1298v164h841v-164h-356v-401h264q187 0 290 -96.5t103 -274.5v-137q0 -196 -94.5 -302.5t-265.5 -106.5q-88 0 -141 24v160q68 -21 135 -21q180 0 180 226v133q0 231 -227 231h-244v-733h-186v1298h-299z" />
<glyph unicode="&#x403;" d="M246 0v1462h825v-166h-639v-1296h-186zM527 1579v27q94 133 174 301h219v-21q-112 -173 -272 -307h-121z" />
<glyph unicode="&#x404;" d="M129 733q0 346 179 548t489 202q220 0 383 -86l-78 -156q-154 78 -305 78q-188 0 -313 -124.5t-152 -348.5h629v-162h-635q23 -541 471 -541q130 0 327 58v-162q-146 -59 -358 -59q-309 0 -473 196t-164 557z" />
<glyph unicode="&#x405;" d="M141 49v178q211 -86 414 -86q350 0 350 240q0 104 -70.5 160t-285.5 133q-208 73 -298.5 174.5t-90.5 263.5q0 174 128.5 272.5t352.5 98.5q229 0 416 -78l-64 -164q-193 78 -360 78q-293 0 -293 -209q0 -102 65.5 -164t270.5 -133q246 -88 328.5 -181.5t82.5 -240.5 q0 -192 -138.5 -301.5t-393.5 -109.5q-265 0 -414 69z" />
<glyph unicode="&#x406;" d="M225 0v123l295 20v1176l-295 20v123h776v-123l-294 -20v-1176l294 -20v-123h-776z" />
<glyph unicode="&#x407;" d="M225 0v123l295 20v1176l-295 20v123h776v-123l-294 -20v-1176l294 -20v-123h-776zM332 1733q0 102 96 102t96 -102q0 -103 -96 -103t-96 103zM707 1733q0 102 96 102t96 -102q0 -103 -96 -103t-96 103z" />
<glyph unicode="&#x408;" d="M137 39v166q162 -62 309 -62q161 0 254 79.5t93 226.5v1013h186v-1011q0 -216 -140.5 -343.5t-377.5 -127.5q-217 0 -324 59z" />
<glyph unicode="&#x409;" d="M0 -2v145q32 -14 68 -14q35 0 61.5 35t39 127t33 524.5t23.5 646.5h498v-616h39q446 0 446 -418q0 -208 -114 -318t-330 -110h-207v1298h-182l-20 -548q-20 -573 -83.5 -671.5t-175.5 -98.5q-56 0 -96 18zM723 160h45q268 0 268 268q0 134 -69 194t-224 60h-20v-522z" />
<glyph unicode="&#x40a;" d="M66 0v1462h165v-616h318v616h166v-616h39q219 0 332.5 -107.5t113.5 -310.5q0 -208 -114 -318t-330 -110h-207v682h-318v-682h-165zM715 160h45q268 0 268 268q0 134 -69 194t-224 60h-20v-522z" />
<glyph unicode="&#x40b;" d="M23 1298v164h841v-164h-356v-401h264q187 0 290 -96.5t103 -274.5v-526h-186v502q0 231 -227 231h-244v-733h-186v1298h-299z" />
<glyph unicode="&#x40c;" d="M211 0v1462h186v-708l566 708h206l-565 -702l594 -760h-219l-582 741v-741h-186zM574 1579v27q94 133 174 301h219v-21q-112 -173 -272 -307h-121z" />
<glyph unicode="&#x40d;" d="M137 0v1462h174v-800q0 -142 -7 -254l-7 -150h6l578 1204h213v-1462h-172v793q0 140 18 417h-8l-580 -1210h-215zM343 1886v21h219q86 -178 174 -301v-27h-121q-166 142 -272 307z" />
<glyph unicode="&#x40e;" d="M27 1462h204l383 -809q12 -25 20 -47q8 -25 17 -45h2l39 109l312 792h196l-428 -1030q-76 -183 -136 -268.5t-149 -134.5t-215 -49q-104 0 -178 30v185q85 -45 178 -45q110 0 170.5 51.5t114.5 173.5zM237 1897h170q8 -102 50 -144.5t161 -42.5q194 0 211 187h174 q-20 -318 -389 -318q-195 0 -281 74t-96 244z" />
<glyph unicode="&#x40f;" d="M135 0v1462h187v-1296h585v1296h187v-1462h-394v-385h-176v385h-389z" />
<glyph unicode="&#x410;" d="M33 0l483 1468h195l485 -1468h-192l-144 453h-491l-146 -453h-190zM422 618h385l-133 424q-39 124 -62 226q-20 -99 -46 -183z" />
<glyph unicode="&#x411;" d="M135 0v1462h912v-164h-725v-452h272q541 0 541 -418q0 -208 -131.5 -318t-382.5 -110h-486zM322 160h282q338 0 338 268q0 133 -85.5 193.5t-283.5 60.5h-251v-522z" />
<glyph unicode="&#x412;" d="M135 0v1462h440q274 0 397.5 -87.5t123.5 -282.5q0 -128 -78.5 -213t-212.5 -103v-10q332 -54 332 -342q0 -198 -127.5 -311t-347.5 -113h-527zM322 158h307q311 0 311 274q0 254 -324 254h-294v-528zM322 842h284q156 0 227.5 55t71.5 182q0 120 -76.5 172t-242.5 52 h-264v-461z" />
<glyph unicode="&#x413;" d="M246 0v1462h825v-166h-639v-1296h-186z" />
<glyph unicode="&#x414;" d="M6 166h113q129 236 216 594t99 702h592v-1296h195v-551h-177v385h-862v-385h-176v551zM311 166h529v1130h-242q-17 -266 -98.5 -596.5t-188.5 -533.5z" />
<glyph unicode="&#x415;" d="M217 0v1462h842v-164h-656v-452h617v-162h-617v-520h656v-164h-842z" />
<glyph unicode="&#x416;" d="M0 0l373 754l-361 708h178l349 -708v708h155v-708l342 708h178l-356 -708l371 -754h-185l-350 741v-741h-155v741l-357 -741h-182z" />
<glyph unicode="&#x417;" d="M139 59v170q184 -96 383 -96q355 0 355 283q0 264 -394 264h-190v151h176q180 0 280.5 74t100.5 199q0 103 -70 164t-188 61q-186 0 -354 -121l-93 125q194 150 455 150q209 0 326.5 -99t117.5 -264q0 -137 -89.5 -230t-252.5 -120v-6q178 -23 273.5 -114t95.5 -234 q0 -203 -142 -319.5t-403 -116.5q-242 0 -387 79z" />
<glyph unicode="&#x418;" d="M137 0v1462h174v-800q0 -142 -7 -254l-7 -150h6l578 1204h213v-1462h-172v793q0 140 18 417h-8l-580 -1210h-215z" />
<glyph unicode="&#x419;" d="M137 0v1462h174v-800q0 -142 -7 -254l-7 -150h6l578 1204h213v-1462h-172v793q0 140 18 417h-8l-580 -1210h-215zM231 1897h170q8 -102 50 -144.5t161 -42.5q194 0 211 187h174q-20 -318 -389 -318q-195 0 -281 74t-96 244z" />
<glyph unicode="&#x41a;" d="M211 0v1462h186v-708l566 708h206l-565 -702l594 -760h-219l-582 741v-741h-186z" />
<glyph unicode="&#x41b;" d="M4 2v150q57 -25 113 -25q102 0 157 180.5t181 1154.5h639v-1462h-187v1298h-297q-117 -977 -205.5 -1149t-263.5 -172q-71 0 -137 25z" />
<glyph unicode="&#x41c;" d="M113 0v1462h247l248 -1192h6l250 1192h252v-1462h-153v887q0 102 14 391h-8l-283 -1278h-154l-278 1280h-8q18 -266 18 -406v-874h-151z" />
<glyph unicode="&#x41d;" d="M135 0v1462h187v-616h585v616h187v-1462h-187v682h-585v-682h-187z" />
<glyph unicode="&#x41e;" d="M84 735q0 750 534 750q256 0 392.5 -195.5t136.5 -556.5t-138 -557t-393 -196q-532 0 -532 755zM281 733q0 -590 335 -590q173 0 253.5 145t80.5 445q0 303 -81.5 445.5t-250.5 142.5q-337 0 -337 -588z" />
<glyph unicode="&#x41f;" d="M135 0v1462h959v-1462h-187v1298h-585v-1298h-187z" />
<glyph unicode="&#x420;" d="M176 0v1462h404q514 0 514 -428q0 -219 -138.5 -342t-402.5 -123h-191v-569h-186zM362 727h170q198 0 283.5 72t85.5 225q0 279 -338 279h-201v-576z" />
<glyph unicode="&#x421;" d="M129 733q0 346 179 548t489 202q220 0 383 -86l-78 -156q-154 78 -305 78q-215 0 -343 -158.5t-128 -429.5q0 -287 120 -437.5t351 -150.5q130 0 327 58v-162q-146 -59 -358 -59q-309 0 -473 196t-164 557z" />
<glyph unicode="&#x422;" d="M102 1298v164h1022v-164h-417v-1298h-187v1298h-418z" />
<glyph unicode="&#x423;" d="M27 1462h204l383 -809q12 -25 20 -47q8 -25 17 -45h2l39 109l312 792h196l-428 -1030q-76 -183 -136 -268.5t-149 -134.5t-215 -49q-104 0 -178 30v185q85 -45 178 -45q110 0 170.5 51.5t114.5 173.5z" />
<glyph unicode="&#x424;" d="M27 758q0 235 122.5 390t335.5 155h47v180h166v-180h47q213 0 336 -154.5t123 -390.5t-126.5 -394.5t-354.5 -158.5h-25v-225h-166v225h-24q-230 0 -355.5 159t-125.5 394zM199 762q0 -187 86 -293.5t241 -106.5h6v781h-32q-143 0 -222 -104.5t-79 -276.5zM698 362h7 q155 0 241 106.5t86 293.5q0 172 -79 276.5t-222 104.5h-33v-781z" />
<glyph unicode="&#x425;" d="M53 0l453 764l-422 698h199l331 -559l334 559h191l-422 -692l457 -770h-211l-355 635l-366 -635h-189z" />
<glyph unicode="&#x426;" d="M135 0v1462h187v-1296h526v1296h186v-1296h176v-551h-176v385h-899z" />
<glyph unicode="&#x427;" d="M135 879v583h187v-559q0 -130 51.5 -180.5t161.5 -50.5q153 0 372 80v710h187v-1462h-187v598q-227 -90 -393 -90q-379 0 -379 371z" />
<glyph unicode="&#x428;" d="M121 0v1462h166v-1296h245v1296h166v-1296h246v1296h166v-1462h-989z" />
<glyph unicode="&#x429;" d="M61 0v1462h166v-1296h246v1296h166v-1296h246v1296h166v-1296h178v-551h-176v385h-992z" />
<glyph unicode="&#x42a;" d="M27 1298v164h485v-616h68q270 0 415.5 -109t145.5 -309q0 -202 -138.5 -315t-396.5 -113h-280v1298h-299zM512 160h98q338 0 338 268q0 132 -85.5 193t-282.5 61h-68v-522z" />
<glyph unicode="&#x42b;" d="M96 0v1462h166v-616h47q541 0 541 -418q0 -208 -131.5 -318t-382.5 -110h-240zM262 160h78q338 0 338 268q0 133 -85.5 193.5t-283.5 60.5h-47v-522zM967 0v1462h166v-1462h-166z" />
<glyph unicode="&#x42c;" d="M176 0v1462h186v-616h191q541 0 541 -418q0 -208 -131.5 -318t-382.5 -110h-404zM362 160h201q338 0 338 268q0 133 -85.5 193.5t-283.5 60.5h-170v-522z" />
<glyph unicode="&#x42d;" d="M68 1397q161 86 383 86q304 0 476.5 -194.5t172.5 -530.5q0 -373 -171 -575.5t-487 -202.5q-212 0 -358 59v162q197 -58 328 -58q473 0 489 541h-629v162h625q-19 222 -137.5 347.5t-308.5 125.5q-152 0 -306 -78z" />
<glyph unicode="&#x42e;" d="M98 0v1462h166v-616h144q18 349 105.5 494t270.5 145q192 0 283.5 -176.5t91.5 -575.5q0 -397 -92 -575t-285 -178q-190 0 -279.5 157.5t-99.5 544.5h-139v-682h-166zM580 733q0 -348 46.5 -469t155.5 -121q106 0 153.5 116.5t47.5 473.5q0 360 -48 474t-153 114 q-108 0 -155 -118.5t-47 -469.5z" />
<glyph unicode="&#x42f;" d="M57 0l381 655q-272 98 -272 408q0 399 504 399h372v-1462h-186v604h-246l-334 -604h-219zM358 1047q0 -137 82 -211t236 -74h180v541h-188q-310 0 -310 -256z" />
<glyph unicode="&#x430;" d="M135 307q0 332 510 348l203 7v69q0 236 -244 236q-147 0 -328 -82l-63 137q196 96 383 96q227 0 328.5 -87t101.5 -279v-752h-131l-37 152h-8q-77 -97 -158 -134.5t-209 -37.5q-163 0 -255.5 86t-92.5 241zM324 305q0 -178 200 -178q147 0 234.5 81.5t87.5 229.5v99 l-162 -7q-196 -8 -278 -61.5t-82 -163.5z" />
<glyph unicode="&#x431;" d="M143 659q0 212 31 356t83 232t121 141t170 81.5t492 101.5l33 -160q-397 -67 -499.5 -99.5t-166 -141t-71.5 -318.5h12q116 170 336 170q186 0 292.5 -131.5t106.5 -360.5q0 -260 -125 -405t-346 -145q-219 0 -344 180t-125 499zM332 655q0 -524 293 -524q266 0 266 375 q0 364 -240 364q-95 0 -183.5 -63.5t-135.5 -151.5z" />
<glyph unicode="&#x432;" d="M176 0v1098h510q387 0 387 -277q0 -197 -229 -239v-7q264 -35 264 -258q0 -149 -106 -233t-314 -84h-512zM358 150h318q254 0 254 180q0 92 -65 128t-193 36h-314v-344zM358 647h293q134 0 191 36t57 120q0 141 -217 141h-324v-297z" />
<glyph unicode="&#x433;" d="M291 0v1098h747v-154h-565v-944h-182z" />
<glyph unicode="&#x434;" d="M33 154h86q262 389 266 944h592v-944h151v-535h-176v381h-743v-381h-176v535zM311 154h484v804h-250q-36 -481 -234 -804z" />
<glyph unicode="&#x435;" d="M133 541q0 266 135.5 421.5t362.5 155.5q212 0 338.5 -134t126.5 -357v-113h-774q8 -375 344 -375q195 0 370 76v-160q-166 -75 -364 -75q-245 0 -392 149.5t-147 411.5zM326 662h573q0 305 -272 305q-275 0 -301 -305z" />
<glyph unicode="&#x436;" d="M0 1098h184l351 -533v533h159v-533l350 533h185l-367 -533l365 -565h-195l-338 557v-557h-159v557l-338 -557h-195l367 565z" />
<glyph unicode="&#x437;" d="M201 1042q160 76 370 76q205 0 315.5 -74.5t110.5 -214.5q0 -186 -192 -243v-11q227 -65 227 -272q0 -151 -120.5 -237t-344.5 -86q-235 0 -362 69v166q180 -86 366 -86q283 0 283 180q0 185 -311 185h-150v153h113q172 0 244.5 39.5t72.5 126.5q0 154 -250 154 q-134 0 -309 -72z" />
<glyph unicode="&#x438;" d="M160 0v1098h172v-668l-13 -252l517 920h233v-1098h-172v647l10 271l-514 -918h-233z" />
<glyph unicode="&#x439;" d="M160 0v1098h172v-668l-13 -252l517 920h233v-1098h-172v647l10 271l-514 -918h-233zM268 1559h170q8 -102 50 -144.5t161 -42.5q194 0 211 187h174q-20 -318 -389 -318q-195 0 -281 74t-96 244z" />
<glyph unicode="&#x43a;" d="M215 0v1098h180v-533l518 533h222l-527 -527l566 -571h-232l-547 557v-557h-180z" />
<glyph unicode="&#x43b;" d="M31 -2v131q21 -6 49 -6q111 0 178.5 237.5t103.5 737.5h678v-1098h-182v944h-340q-37 -493 -126 -725.5t-269 -232.5q-62 0 -92 12z" />
<glyph unicode="&#x43c;" d="M115 0v1098h211l215 -656q25 -77 73 -268q5 13 53 191q10 39 21 73l219 660h207v-1098h-151v897q-8 -27 -33 -127q-22 -85 -35 -123l-213 -647h-135l-213 647q-8 25 -68 250v-897h-151z" />
<glyph unicode="&#x43d;" d="M160 0v1098h182v-455h545v455h182v-1098h-182v489h-545v-489h-182z" />
<glyph unicode="&#x43e;" d="M115 551q0 263 135.5 415t365.5 152q218 0 357 -155t139 -412q0 -265 -137 -418t-365 -153q-216 0 -355.5 155.5t-139.5 415.5zM303 551q0 -420 311 -420q310 0 310 420q0 416 -312 416q-309 0 -309 -416z" />
<glyph unicode="&#x43f;" d="M160 0v1098h909v-1098h-182v944h-545v-944h-182z" />
<glyph unicode="&#x440;" d="M158 -492v1590h147l27 -148h8q110 168 322 168q201 0 315.5 -149.5t114.5 -417.5q0 -270 -115 -420.5t-315 -150.5q-207 0 -322 159h-12q12 -129 12 -162v-469h-182zM340 551q0 -227 69.5 -323.5t221.5 -96.5q272 0 272 422q0 414 -274 414q-152 0 -218.5 -88t-70.5 -287 v-41z" />
<glyph unicode="&#x441;" d="M172 543q0 281 145 428t408 147q178 0 336 -59l-62 -158q-150 57 -268 57q-371 0 -371 -413q0 -406 361 -406q157 0 321 62v-160q-134 -61 -329 -61q-257 0 -399 145.5t-142 417.5z" />
<glyph unicode="&#x442;" d="M121 944v154h985v-154h-401v-944h-183v944h-401z" />
<glyph unicode="&#x443;" d="M82 1098h188l262 -654q82 -205 89 -290h6q23 112 90 292l239 652h189l-475 -1241q-67 -174 -156 -261.5t-246 -87.5q-86 0 -168 17v145q62 -12 136 -12q96 0 149.5 41t95.5 141l58 150z" />
<glyph unicode="&#x444;" d="M74 551q0 522 463 563v442h157v-442q459 -50 459 -563q0 -525 -459 -567v-476h-157v476q-463 45 -463 567zM242 551q0 -386 295 -416v828q-295 -29 -295 -412zM694 135q291 33 291 416q0 377 -291 410v-826z" />
<glyph unicode="&#x445;" d="M96 0l414 563l-393 535h207l290 -410l291 410h207l-395 -535l413 -563h-206l-310 436l-311 -436h-207z" />
<glyph unicode="&#x446;" d="M152 0v1098h182v-944h504v944h182v-944h160v-535h-176v381h-852z" />
<glyph unicode="&#x447;" d="M152 676v422h182v-410q0 -174 205 -174q171 0 340 115v469h182v-1098h-182v489q-181 -127 -381 -127q-160 0 -253 87.5t-93 226.5z" />
<glyph unicode="&#x448;" d="M125 0v1098h162v-944h248v944h161v-944h248v944h162v-1098h-981z" />
<glyph unicode="&#x449;" d="M109 0v1098h161v-944h248v944h162v-944h248v944h162v-944h118v-535h-161v381h-938z" />
<glyph unicode="&#x44a;" d="M43 944v154h543v-451h153q416 0 416 -311q0 -336 -420 -336h-332v944h-360zM586 150h137q254 0 254 172q0 90 -59 131t-199 41h-133v-344z" />
<glyph unicode="&#x44b;" d="M113 0v1098h161v-451h134q415 0 415 -311q0 -336 -420 -336h-290zM274 150h138q254 0 254 172q0 90 -59 131t-199 41h-134v-344zM952 0v1098h162v-1098h-162z" />
<glyph unicode="&#x44c;" d="M217 0v1098h182v-451h277q416 0 416 -311q0 -336 -420 -336h-455zM399 150h260q254 0 254 172q0 90 -59 131t-199 41h-256v-344z" />
<glyph unicode="&#x44d;" d="M184 1059q153 59 332 59q267 0 406 -146t139 -429q0 -271 -143 -417t-408 -146q-187 0 -320 61v160q163 -62 316 -62q351 0 368 348h-538v154h536q-27 317 -364 317q-108 0 -262 -57z" />
<glyph unicode="&#x44e;" d="M123 0v1098h162v-455h151q35 475 367 475q171 0 266.5 -148t95.5 -419q0 -571 -368 -571q-335 0 -363 509h-149v-489h-162zM602 551q0 -221 46.5 -320.5t152.5 -99.5q103 0 149.5 97.5t46.5 322.5q0 218 -46 317t-152 99q-104 0 -150.5 -96t-46.5 -320z" />
<glyph unicode="&#x44f;" d="M115 0l291 461q-234 67 -234 315q0 150 102 236t275 86h485v-1098h-182v432h-285l-254 -432h-198zM346 772q0 -186 238 -186h268v358h-295q-211 0 -211 -172z" />
<glyph unicode="&#x450;" d="M133 541q0 266 135.5 421.5t362.5 155.5q212 0 338.5 -134t126.5 -357v-113h-774q8 -375 344 -375q195 0 370 76v-160q-166 -75 -364 -75q-245 0 -392 149.5t-147 411.5zM326 662h573q0 305 -272 305q-275 0 -301 -305zM374 1548v21h219q86 -178 174 -301v-27h-121 q-166 142 -272 307z" />
<glyph unicode="&#x451;" d="M133 541q0 266 135.5 421.5t362.5 155.5q212 0 338.5 -134t126.5 -357v-113h-774q8 -375 344 -375q195 0 370 76v-160q-166 -75 -364 -75q-245 0 -392 149.5t-147 411.5zM326 662h573q0 305 -272 305q-275 0 -301 -305zM348 1395q0 102 96 102t96 -102q0 -103 -96 -103 t-96 103zM723 1395q0 102 96 102t96 -102q0 -103 -96 -103t-96 103z" />
<glyph unicode="&#x452;" d="M4 1237v137h156v182h182v-182h379v-137h-379v-184l-8 -144h10q106 168 334 168q391 0 391 -401v-834q0 -334 -291 -334q-81 0 -133 25v148q54 -21 115 -21q127 0 127 170v836q0 260 -236 260q-162 0 -235.5 -93.5t-73.5 -304.5v-528h-182v1237h-156z" />
<glyph unicode="&#x453;" d="M291 0v1098h747v-154h-565v-944h-182zM522 1241v27q94 133 174 301h219v-21q-112 -173 -272 -307h-121z" />
<glyph unicode="&#x454;" d="M172 543q0 283 145.5 429t413.5 146q178 0 330 -59l-62 -158q-150 57 -262 57q-347 0 -377 -317h537v-154h-539q20 -348 369 -348q153 0 315 62v-160q-133 -61 -319 -61q-265 0 -408 146t-143 417z" />
<glyph unicode="&#x455;" d="M203 49v166q193 -86 370 -86q275 0 275 162q0 57 -49 99t-226 106q-233 87 -293.5 159.5t-60.5 171.5q0 136 111.5 213.5t308.5 77.5q198 0 369 -74l-60 -149q-182 72 -319 72q-236 0 -236 -133q0 -61 50.5 -97.5t232.5 -101.5q211 -77 280.5 -151.5t69.5 -182.5 q0 -150 -117 -235.5t-331 -85.5q-248 0 -375 69z" />
<glyph unicode="&#x456;" d="M197 0v123l344 20v811l-269 21v123h451v-955l352 -20v-123h-878zM526 1436q0 114 107 114q106 0 106 -114q0 -58 -31.5 -86.5t-74.5 -28.5q-107 0 -107 115z" />
<glyph unicode="&#x457;" d="M197 0v123l344 20v811l-269 21v123h451v-955l352 -20v-123h-878zM330 1395q0 102 96 102t96 -102q0 -103 -96 -103t-96 103zM705 1395q0 102 96 102t96 -102q0 -103 -96 -103t-96 103z" />
<glyph unicode="&#x458;" d="M135 -303q134 -39 289 -39q117 0 182.5 57t65.5 158v1081l-420 21v123h602v-1215q0 -180 -113 -277.5t-319 -97.5q-164 0 -287 35v154zM637 1436q0 114 106 114q107 0 107 -114q0 -115 -107 -115q-106 0 -106 115z" />
<glyph unicode="&#x459;" d="M0 -2v131q22 -6 49 -6q41 0 65.5 42t47 233t57.5 700h494v-451h51q416 0 416 -311q0 -336 -420 -336h-209v944h-186q-33 -474 -59 -662.5t-72 -242t-142 -53.5q-62 0 -92 12zM713 150h55q254 0 254 172q0 90 -59 131t-199 41h-51v-344z" />
<glyph unicode="&#x45a;" d="M106 0v1098h162v-455h299v455h162v-451h51q416 0 416 -311q0 -336 -420 -336h-209v489h-299v-489h-162zM729 150h55q254 0 254 172q0 90 -59 131t-199 41h-51v-344z" />
<glyph unicode="&#x45b;" d="M4 1237v137h156v182h184v-182h418v-137h-420v-184l-10 -144h10q108 168 346 168q192 0 286.5 -95.5t94.5 -305.5v-676h-182v666q0 260 -236 260q-162 0 -235.5 -93.5t-73.5 -304.5v-528h-182v1237h-156z" />
<glyph unicode="&#x45c;" d="M215 0v1098h180v-291l-16 -299h4l137 166l402 424h213l-494 -510l522 -588h-213l-426 469l-129 -82v-387h-180zM508 1241v27q94 133 174 301h219v-21q-112 -173 -272 -307h-121z" />
<glyph unicode="&#x45d;" d="M160 0v1098h172v-668l-13 -252l517 920h233v-1098h-172v647l10 271l-514 -918h-233zM341 1548v21h219q86 -178 174 -301v-27h-121q-166 142 -272 307z" />
<glyph unicode="&#x45e;" d="M82 1098h188l262 -654q82 -205 89 -290h6q23 112 90 292l239 652h189l-475 -1241q-67 -174 -156 -261.5t-246 -87.5q-86 0 -168 17v145q62 -12 136 -12q96 0 149.5 41t95.5 141l58 150zM241 1559h170q8 -102 50 -144.5t161 -42.5q194 0 211 187h174q-20 -318 -389 -318 q-195 0 -281 74t-96 244z" />
<glyph unicode="&#x45f;" d="M160 0v1098h182v-944h545v944h182v-1098h-354v-381h-183v381h-372z" />
<glyph unicode="&#x460;" d="M82 764q0 358 73.5 537.5t219.5 179.5q48 0 92 -9t78 -32l-47 -152q-41 29 -97 29q-66 0 -104.5 -138t-38.5 -413q0 -141 9.5 -255.5t31 -196.5t55.5 -126.5t82 -44.5q57 0 94 43v476h170v-476q39 -43 95 -43q48 0 81.5 44.5t54.5 126.5t30.5 196.5t9.5 255.5 q0 275 -39 413t-105 138q-55 0 -96 -29l-47 152q34 23 78 32t92 9q146 0 219.5 -179.5t73.5 -537.5q0 -192 -17 -338.5t-56 -245.5t-103 -149.5t-158 -50.5q-33 0 -60 6.5t-50 18.5t-44.5 30.5t-44.5 42.5q-22 -24 -43 -42.5t-44 -30.5t-49.5 -18.5t-59.5 -6.5 q-94 0 -158 50.5t-103.5 149.5t-57 245.5t-17.5 338.5z" />
<glyph unicode="&#x461;" d="M-4 1098h160l163 -676q20 -85 37 -163.5t25 -129.5h4q5 18 12.5 46t16.5 60.5t19 66t20 63.5l86 272l-109 461h150l137 -592q8 -33 19 -81t22.5 -99.5t22.5 -99.5t18 -81h6q63 104 102.5 209t62 220t30.5 244t8 280h153q0 -163 -13 -307t-46 -277.5t-89.5 -260 t-144.5 -253.5h-163l-84 340q-7 26 -12.5 54t-8.5 48q-5 -20 -13 -51t-16 -53l-106 -338h-182z" />
<glyph unicode="&#x462;" d="M20 1120v164h299v272h187v-272h393v-164h-393v-274h94q152 0 255.5 -33t167 -89.5t91 -132.5t27.5 -163q0 -97 -30 -176t-93 -135t-160 -86.5t-231 -30.5h-308v1120h-299zM506 160h104q175 0 256.5 66t81.5 202q0 70 -23 118.5t-68.5 78.5t-114.5 43.5t-162 13.5h-74 v-522z" />
<glyph unicode="&#x463;" d="M20 944v154h238v221h182v-221h299v-154h-299v-297h256q212 0 314 -78t102 -233q0 -77 -23.5 -139t-74 -106t-130 -67.5t-192.5 -23.5h-434v944h-238zM440 150h240q55 0 101.5 8.5t80.5 29t53 53.5t19 81q0 49 -16.5 82t-49 53t-80.5 28.5t-112 8.5h-236v-344z" />
<glyph unicode="&#x464;" d="M98 0v1462h166v-616h144q11 143 49 260.5t102 201t153 129.5t201 46q84 0 158.5 -22t134.5 -64l-73 -156q-45 32 -98 55t-122 23q-68 0 -125 -32t-99.5 -93t-70 -149t-36.5 -199h467v-162h-471q3 -130 25.5 -230.5t65 -169.5t105 -105t144.5 -36q66 0 124 17.5t115 40.5 v-162q-30 -15 -59.5 -26.5t-61.5 -18.5t-68.5 -10.5t-80.5 -3.5q-120 0 -209 50t-149 142t-91 221.5t-35 288.5h-139v-682h-166z" />
<glyph unicode="&#x465;" d="M160 0v1098h162v-455h151q11 128 48.5 218.5t94.5 147.5t130.5 83t156.5 26q34 0 68 -4.5t66 -12.5t60.5 -19t49.5 -23l-47 -154q-21 10 -46 19.5t-51 17t-51.5 12t-48.5 4.5q-123 0 -187.5 -75.5t-76.5 -241.5h418v-154h-420q4 -92 22 -158t50 -108t78.5 -62t107.5 -20 q72 0 129.5 18.5t105.5 43.5v-162q-47 -29 -102 -44t-133 -15q-85 0 -159.5 29t-131.5 90.5t-92 158t-41 231.5h-149v-489h-162z" />
<glyph unicode="&#x466;" d="M0 0l520 1462h187l522 -1462h-182l-238 682h-115v-682h-166v682h-112l-238 -682h-178zM473 836h285l-39 110q-37 105 -62.5 190t-44.5 160q-18 -75 -48 -166.5t-58 -183.5z" />
<glyph unicode="&#x467;" d="M61 0l437 1098h231l436 -1098h-188l-184 489h-99v-489h-162v489h-104l-184 -489h-183zM485 643h252q-14 35 -31.5 80t-35 91.5t-32 89.5t-22.5 73h-12q-8 -29 -23 -72.5t-32 -90t-34 -92t-30 -79.5z" />
<glyph unicode="&#x468;" d="M98 0v1462h166v-620h295l162 620h174l381 -1462h-168l-172 682h-45v-682h-164v682h-47l-168 -682h-168l176 682h-256v-682h-166zM719 842h182l-18 84q-22 97 -42 173.5t-32 151.5q-12 -75 -31 -151.5t-39 -167.5z" />
<glyph unicode="&#x469;" d="M123 0v1098h162v-455h295l151 455h195l364 -1098h-168l-155 489h-58v-489h-161v489h-58l-158 -489h-165l163 489h-245v-489h-162zM737 643h183q-12 35 -26 82t-27 95t-23.5 91t-14.5 68h-2q-4 -25 -14.5 -68t-23.5 -91t-26.5 -95t-25.5 -82z" />
<glyph unicode="&#x46a;" d="M0 0l113 453q21 85 45.5 153t62.5 117t95 78t143 35l-334 487v139h981v-139l-334 -487q89 -6 145.5 -34t93.5 -77t60.5 -117.5t44.5 -154.5l113 -453h-170l-113 449q-18 72 -35 119.5t-41.5 76t-59.5 40t-89 11.5h-23v-696h-168v696h-22q-54 0 -89 -11.5t-59.5 -40 t-41.5 -76t-35 -119.5l-113 -449h-170zM324 1298l294 -434l293 434h-587z" />
<glyph unicode="&#x46b;" d="M10 0l119 340q21 61 42 111.5t54 89t83 63t130 33.5l-297 356v105h949v-105l-302 -356q80 -8 130 -32.5t83 -62.5t55 -89t44 -113l119 -340h-181l-118 336q-20 54 -38 90t-41.5 57.5t-56.5 30t-84 8.5h-4v-522h-164v522h-4q-51 0 -84 -8.5t-57 -30t-42 -57.5t-38 -90 l-119 -336h-178zM371 944l241 -301l246 301h-487z" />
<glyph unicode="&#x46c;" d="M92 0v1462h166v-620h383l-246 481v139h826v-139l-258 -487q65 -6 106.5 -34t67.5 -76.5t40.5 -117t24.5 -155.5l55 -453h-170l-55 449q-9 73 -17 120.5t-22 75.5t-37 39.5t-61 11.5h-8v-696h-164v696h-8q-39 0 -61.5 -11.5t-36.5 -39.5t-22 -75.5t-17 -120.5l-56 -449 h-170l56 453q9 81 18.5 135t32.5 94h-201v-682h-166zM582 1298l223 -440l223 440h-446z" />
<glyph unicode="&#x46d;" d="M123 0v1098h162v-455h385l-230 350v105h779v-105l-238 -354q61 -8 100 -32.5t64.5 -63t41.5 -90t30 -113.5l73 -340h-164l-73 336q-12 53 -21.5 88.5t-23.5 57.5t-34.5 31t-53.5 9h-9v-522h-161v522h-9q-33 0 -53.5 -9t-34 -31t-23.5 -57.5t-22 -88.5l-76 -336h-161 l73 340q11 50 24 83.5t30 65.5h-213v-489h-162zM635 944l194 -301l193 301h-387z" />
<glyph unicode="&#x46e;" d="M117 -133q0 60 24.5 109t75.5 84t129.5 54t185.5 19q89 0 153 19t104.5 55t59.5 89t19 120q0 71 -28 121.5t-80 82t-124 46t-161 14.5h-190v151h176q92 0 163 19.5t119.5 55.5t73.5 86.5t25 111.5q0 54 -19 95.5t-53 70.5t-81.5 44t-104.5 15q-55 0 -103.5 -9 t-91.5 -24.5t-82.5 -38t-77.5 -49.5l-92 125q59 48 142.5 85.5t185.5 54.5q-24 30 -51.5 63t-54.5 64.5t-52 60t-45 51.5v27h121q51 -34 100 -82.5t103 -104.5q26 36 55 71t62.5 63t71 45.5t79.5 17.5q31 0 54.5 -4.5t37.5 -9.5v-119q-11 5 -27.5 8.5t-33.5 3.5 q-22 0 -46.5 -11.5t-48.5 -32t-47 -48.5t-43 -61q83 -13 145.5 -44.5t105 -77.5t64 -105t21.5 -128q0 -73 -25.5 -133t-71 -104t-108 -72.5t-137.5 -40.5v-6q88 -11 156.5 -39.5t116 -73t72 -104t24.5 -131.5q0 -96 -33 -176t-99 -138t-163.5 -90t-226.5 -32 q-71 0 -116.5 -9t-71.5 -25t-36 -36.5t-10 -44.5q0 -22 7 -40t25 -31t48.5 -20t77.5 -7q65 0 113.5 2t90.5 4t82.5 4t90.5 2q86 0 133 -12t72 -27v-182q-8 7 -24 16t-42.5 17t-65.5 14t-92 6q-49 0 -84.5 -1.5t-72.5 -3t-83 -2.5t-116 -1q-104 0 -171.5 20.5t-107.5 56.5 t-55.5 84t-15.5 103z" />
<glyph unicode="&#x46f;" d="M143 -121q0 51 17.5 96t60 78.5t115 53.5t182.5 20q81 0 143.5 9.5t105 31t65 56t22.5 85.5q0 94 -77 139.5t-236 45.5h-148v153h121q59 0 114.5 5.5t98.5 23t69.5 50.5t26.5 87q0 77 -64.5 115.5t-185.5 38.5q-79 0 -152.5 -19t-156.5 -53l-63 147q62 28 121 45t129 25 q-21 28 -44.5 56.5t-47.5 56.5t-46.5 53.5t-42.5 46.5v27h121q54 -35 104.5 -83t106.5 -104q28 34 58.5 69t66 63.5t77 46.5t89.5 18q22 0 37.5 -2t32.5 -8v-117q-14 3 -25 4.5t-25 1.5q-46 0 -92 -37.5t-88 -99.5q59 -12 108 -35t83.5 -57t53.5 -80t19 -105q0 -50 -14 -89 t-39 -68.5t-60.5 -50t-78.5 -33.5v-11q47 -13 88.5 -34.5t72 -54.5t48.5 -79t18 -108q0 -67 -27.5 -125.5t-88 -101.5t-156 -67.5t-230.5 -24.5q-74 0 -118.5 -7t-68 -20t-31 -32t-7.5 -42q0 -22 7.5 -39.5t26 -29.5t50.5 -18.5t80 -6.5q54 0 108.5 1.5t105.5 3.5t96 3.5 t81 1.5q72 0 111 -11t53 -30v-151q-10 10 -28 17.5t-39.5 12.5t-44.5 8t-44 3q-34 0 -80 -1.5t-100 -3t-113.5 -3t-119.5 -1.5q-95 0 -156 21.5t-95.5 56t-47.5 78t-13 88.5z" />
<glyph unicode="&#x470;" d="M57 979v483h172v-479q0 -231 69 -305t218 -74h16v858h166v-858h17q149 0 217.5 72t68.5 303v483h173v-479q0 -287 -116 -412t-343 -125h-17v-446h-166v446h-16q-230 0 -344.5 125.5t-114.5 407.5z" />
<glyph unicode="&#x471;" d="M80 555v543h172v-529q0 -422 272 -438v1423h158v-1421q301 28 301 436q0 250 -63 529h172q63 -276 63 -523q0 -567 -473 -593v-474h-158v474q-233 8 -338.5 143t-105.5 430z" />
<glyph unicode="&#x472;" d="M84 735q0 170 30 308.5t94.5 236.5t166 151.5t243.5 53.5q135 0 234.5 -53.5t165 -152t97.5 -237t32 -309.5q0 -169 -32 -308t-98 -238t-166 -153t-235 -54q-142 0 -242.5 54t-165 153t-94.5 238.5t-30 309.5zM283 664q4 -122 24 -219t60 -164t101.5 -102.5t147.5 -35.5 q87 0 148.5 35.5t101 102.5t59 164t23.5 219h-665zM283 825h665q-5 117 -26 209t-60.5 156t-99.5 97.5t-144 33.5q-85 0 -146 -33.5t-101.5 -97.5t-61.5 -156t-26 -209z" />
<glyph unicode="&#x473;" d="M115 551q0 136 36.5 241.5t102.5 178t158.5 110t203.5 37.5q103 0 193.5 -37.5t157.5 -110t106 -178t39 -241.5q0 -137 -37 -243.5t-103.5 -179t-158.5 -110.5t-203 -38q-103 0 -193 38t-157 110.5t-106 179t-39 243.5zM305 487q11 -179 89 -267.5t220 -88.5 q282 0 308 356h-617zM307 641h613q-35 326 -308 326t-305 -326z" />
<glyph unicode="&#x474;" d="M63 1462h197l266 -915q26 -93 48.5 -185.5t39.5 -171.5q14 78 35 172t47 191l142 512q32 113 62 191t68 127t89.5 70.5t126.5 21.5q35 0 69 -6.5t60 -14.5v-151q-23 9 -50 15.5t-59 6.5q-35 0 -61.5 -18.5t-47.5 -54.5t-39 -87.5t-36 -117.5l-297 -1047h-209z" />
<glyph unicode="&#x475;" d="M82 1098h188l224 -606q8 -22 18.5 -53.5t22.5 -66.5t24 -72t22 -70.5t18 -62t11 -46.5h6q7 30 19.5 76.5t27.5 98t30.5 102t27.5 87.5l102 320q30 93 56.5 151.5t59 92t74 45.5t101.5 12q26 0 48 -3.5t36 -6.5v-135q-11 3 -27 5.5t-34 2.5q-26 0 -46 -9.5t-36 -29.5 t-30.5 -52.5t-29.5 -78.5l-266 -799h-231z" />
<glyph unicode="&#x476;" d="M63 1462h197l266 -915q26 -93 48.5 -185.5t39.5 -171.5q14 78 35 172t47 191l142 512q32 113 62 191t68 127t89.5 70.5t126.5 21.5q35 0 69 -6.5t60 -14.5v-151q-23 9 -50 15.5t-59 6.5q-35 0 -61.5 -18.5t-47.5 -54.5t-39 -87.5t-36 -117.5l-297 -1047h-209zM173 1886 v21h198q16 -34 37.5 -74.5t44.5 -81t47 -78.5t46 -67v-27h-101q-34 28 -75 69.5t-79.5 85.5t-70 84.5t-47.5 67.5zM535 1886v21h199q16 -34 37.5 -74.5t44.5 -81t47 -78.5t45 -67v-27h-100q-34 28 -75 69.5t-79.5 85.5t-70.5 84.5t-48 67.5z" />
<glyph unicode="&#x477;" d="M82 1098h188l224 -606q8 -22 18.5 -53.5t22.5 -66.5t24 -72t22 -70.5t18 -62t11 -46.5h6q7 30 19.5 76.5t27.5 98t30.5 102t27.5 87.5l102 320q30 93 56.5 151.5t59 92t74 45.5t101.5 12q26 0 48 -3.5t36 -6.5v-135q-11 3 -27 5.5t-34 2.5q-26 0 -46 -9.5t-36 -29.5 t-30.5 -52.5t-29.5 -78.5l-266 -799h-231zM161 1548v21h198q16 -34 37.5 -74.5t44.5 -81t47 -78.5t46 -67v-27h-101q-34 28 -75 69.5t-79.5 85.5t-70 84.5t-47.5 67.5zM523 1548v21h199q16 -34 37.5 -74.5t44.5 -81t47 -78.5t45 -67v-27h-100q-34 28 -75 69.5t-79.5 85.5 t-70.5 84.5t-48 67.5z" />
<glyph unicode="&#x478;" d="M70 735q0 177 8 316.5t36.5 236t83 147t148.5 50.5q93 0 147 -50.5t82 -147t35.5 -236.5t7.5 -318q0 -182 -8 -322.5t-36 -236t-82.5 -145t-147.5 -49.5t-147.5 49t-82.5 145t-36 237t-8 324zM227 733q0 -137 5 -246.5t18 -186t36 -117t58 -40.5q36 0 59 40.5t35.5 117 t17.5 186t5 246.5q0 138 -4.5 247t-17.5 184.5t-35.5 116t-57.5 40.5q-36 0 -59 -40.5t-36.5 -116t-18.5 -184.5t-5 -247zM623 -330q20 -5 43.5 -8.5t48.5 -3.5q49 0 80.5 43.5t50.5 142.5l24 136l-211 1118h156l100 -609q4 -23 8.5 -51t9 -58.5t8.5 -62t7 -61.5h4 q2 25 4.5 56t6 63t7 62t7.5 52l106 609h156l-242 -1266q-15 -78 -35.5 -138t-51.5 -101.5t-75 -63t-106 -21.5q-37 0 -61 5.5t-45 11.5v145z" />
<glyph unicode="&#x479;" d="M80 551q0 168 20 277.5t56.5 174t87 90t110.5 25.5q57 0 107 -25.5t86.5 -90t58 -174t21.5 -277.5t-19 -278.5t-54.5 -175.5t-86.5 -91t-115 -26q-61 0 -111 26t-86 91t-55.5 175.5t-19.5 278.5zM238 551q0 -211 29.5 -315.5t86.5 -104.5q117 0 117 420q0 210 -30 313 t-87 103q-116 0 -116 -416zM612 -330q20 -5 44 -8.5t49 -3.5q49 0 80.5 43.5t50.5 142.5l24 136l-211 1118h156l100 -609q4 -23 8.5 -51t9 -58.5t8.5 -62t7 -61.5h4q2 25 4.5 56t5.5 63t7 62t8 52l106 609h156l-242 -1266q-15 -78 -35.5 -138t-51.5 -101.5t-75 -63 t-106 -21.5q-37 0 -61 5.5t-46 11.5v145z" />
<glyph unicode="&#x47a;" d="M84 735q0 146 22 269t69 217.5t120 157t176 87.5q14 62 49.5 86.5t93.5 24.5q54 0 91 -25t51 -84q99 -26 172.5 -89t122 -157.5t72.5 -218t24 -270.5q0 -146 -24 -269.5t-72.5 -218.5t-122 -158t-172.5 -89q-14 -62 -51 -88.5t-91 -26.5q-58 0 -93.5 26.5t-49.5 88.5 q-103 26 -176 89t-120 158t-69 219t-22 271zM281 733q0 -108 11 -199t34.5 -162t61 -121.5t91.5 -78.5q17 45 50.5 63.5t84.5 18.5q48 0 82.5 -19.5t51.5 -64.5q55 26 93.5 76t62.5 121.5t35 163.5t11 202t-11 201.5t-35 163t-62.5 121t-93.5 75.5q-16 -48 -51 -68t-83 -20 q-52 0 -86 19t-51 65q-53 -27 -90 -77.5t-60.5 -121t-34.5 -160.5t-11 -198z" />
<glyph unicode="&#x47b;" d="M115 551q0 115 26.5 208.5t75 164t117.5 116t153 64.5q10 54 39 74t86 20q27 0 48 -4.5t36 -15t25 -28.5t14 -46q81 -19 150.5 -64.5t119.5 -116t78.5 -164t28.5 -208.5q0 -117 -27 -211t-76 -164.5t-118.5 -116.5t-155.5 -65q-9 -54 -39 -76t-84 -22q-58 0 -87.5 22 t-37.5 76q-81 20 -149 66t-117.5 116.5t-77.5 164.5t-28 210zM303 551q0 -328 191 -399q11 38 39 52.5t79 14.5q48 0 76.5 -15.5t40.5 -53.5q195 71 195 401q0 165 -49.5 263.5t-145.5 133.5q-12 -42 -40.5 -56.5t-76.5 -14.5q-51 0 -78.5 15.5t-39.5 55.5 q-191 -71 -191 -397z" />
<glyph unicode="&#x47c;" d="M82 764q0 358 73.5 537.5t219.5 179.5q48 0 92 -9t78 -32l-47 -152q-41 29 -97 29q-66 0 -104.5 -138t-38.5 -413q0 -141 9.5 -255.5t31 -196.5t55.5 -126.5t82 -44.5q27 0 49.5 8.5t43 24.5t40.5 39t41 51h8q36 -57 81 -90t96 -33q48 0 81.5 44.5t54.5 126.5t30.5 196.5 t9.5 255.5q0 275 -39 413t-105 138q-55 0 -96 -29l-47 152q34 23 78 32t92 9q146 0 219.5 -179.5t73.5 -537.5q0 -192 -17 -338.5t-56 -245.5t-103 -149.5t-158 -50.5q-33 0 -60 4.5t-50 14.5t-44.5 26.5t-44.5 40.5q-22 -24 -43 -40.5t-44 -26.5t-49.5 -14.5t-59.5 -4.5 q-94 0 -158 50.5t-103.5 149.5t-57 245.5t-17.5 338.5zM283 1866v35q0 107 59 157.5t162 50.5q54 0 107 -18t109 -39t118.5 -39t136.5 -18h14v-129h-14q-80 0 -147.5 18t-124.5 39t-104 39t-85 18q-43 0 -70.5 -22.5t-27.5 -75.5v-16h-133zM502 1546v76q60 22 88 44.5 t28 47.5q0 19 -15.5 28t-33.5 17t-33.5 21t-15.5 41q0 37 25 56t71 19q59 0 93 -35t34 -92q0 -77 -59.5 -134.5t-181.5 -88.5z" />
<glyph unicode="&#x47d;" d="M88 543q0 157 20 266.5t58 178t92.5 99.5t122.5 31q46 0 93.5 -10t82.5 -35l-51 -145q-49 30 -111 30q-73 0 -107 -100.5t-34 -312.5q0 -211 51 -308.5t146 -97.5q26 0 49 7t43 19t37 27t32 31q16 -16 33.5 -31t37.5 -27t43.5 -19t51.5 -7q94 0 144.5 97.5t50.5 308.5 q0 212 -34 312.5t-108 100.5q-58 0 -108 -30l-51 145q35 25 82 35t92 10q70 0 124.5 -31t92 -99.5t57 -178t19.5 -266.5q0 -150 -25.5 -256.5t-70.5 -175t-108 -100t-138 -31.5q-62 0 -107.5 17.5t-77.5 49.5q-32 -32 -76 -49.5t-104 -17.5q-76 0 -139.5 30t-109 96.5 t-70.5 174t-25 262.5zM276 1556v23q0 108 59 164.5t163 56.5q62 0 116 -18t108 -39t113.5 -39t133.5 -18h8v-130h-8q-80 0 -144.5 18t-119.5 39.5t-103 39.5t-94 18q-43 0 -70.5 -23t-27.5 -75v-17h-134zM496 1237v76q116 41 116 92q0 19 -15.5 28t-33.5 17t-33.5 21 t-15.5 40q0 38 25 57t71 19q59 0 93 -35t34 -92q0 -77 -60 -134.5t-181 -88.5z" />
<glyph unicode="&#x47e;" d="M82 764q0 358 73.5 537.5t219.5 179.5q48 0 92 -9t78 -32l-47 -152q-41 29 -97 29q-66 0 -104.5 -138t-38.5 -413q0 -141 9.5 -255.5t31 -196.5t55.5 -126.5t82 -44.5q57 0 94 43v476h170v-476q39 -43 95 -43q48 0 81.5 44.5t54.5 126.5t30.5 196.5t9.5 255.5 q0 275 -39 413t-105 138q-55 0 -96 -29l-47 152q34 23 78 32t92 9q146 0 219.5 -179.5t73.5 -537.5q0 -192 -17 -338.5t-56 -245.5t-103 -149.5t-158 -50.5q-33 0 -60 6.5t-50 18.5t-44.5 30.5t-44.5 42.5q-22 -24 -43 -42.5t-44 -30.5t-49.5 -18.5t-59.5 -6.5 q-94 0 -158 50.5t-103.5 149.5t-57 245.5t-17.5 338.5zM240 1769v27h749v-27l-82 -172h-35l-49 103h-143l-49 -103h-35l-49 103h-144l-49 -103h-35z" />
<glyph unicode="&#x47f;" d="M-4 1098h160l163 -676q20 -85 37 -163.5t25 -129.5h4q5 18 12.5 46t16.5 60.5t19 66t20 63.5l86 272l-109 461h150l137 -592q8 -33 19 -81t22.5 -99.5t22.5 -99.5t18 -81h6q63 104 102.5 209t62 220t30.5 244t8 280h153q0 -163 -13 -307t-46 -277.5t-89.5 -260 t-144.5 -253.5h-163l-84 340q-7 26 -12.5 54t-8.5 48q-5 -20 -13 -51t-16 -53l-106 -338h-182zM225 1417v27h750v-27l-82 -172h-35l-49 103h-143l-50 -103h-34l-50 103h-143l-49 -103h-35z" />
<glyph unicode="&#x480;" d="M129 733q0 166 43.5 304t128.5 237t209.5 154t286.5 55q108 0 206 -22t177 -64l-78 -156q-63 32 -137 55t-168 23q-107 0 -194 -40.5t-148.5 -116.5t-95 -185t-33.5 -246q0 -141 29.5 -250.5t88.5 -184.5t147 -114t206 -39q29 0 51.5 2t42.5 6.5t38.5 11t39.5 15.5v-670 h-187v472h-16q-164 0 -284 54t-198.5 153t-116.5 238t-38 308z" />
<glyph unicode="&#x481;" d="M172 543q0 157 42 266.5t116.5 178t177.5 99.5t225 31q90 0 176 -17t152 -42l-62 -158q-58 22 -123.5 39.5t-144.5 17.5q-190 0 -280.5 -102t-90.5 -311q0 -105 24.5 -182t71.5 -126.5t114.5 -73.5t154.5 -24q53 0 95.5 9.5t76.5 23.5v-664h-182v472h-6q-113 0 -211 31.5 t-170.5 100t-114 175t-41.5 256.5z" />
<glyph unicode="&#x482;" d="M94 547l70 123l287 -164l198 346l-284 164l71 125l285 -164l182 313l127 -73l-182 -316l287 -164l-74 -123l-283 164l-200 -346l284 -166l-71 -123l-285 164l-180 -313l-129 74l180 315z" />
<glyph unicode="&#x483;" d="M242 1274q0 28 4.5 46.5t16 29.5t30.5 15.5t47 4.5h448q5 45 28 69.5t71 24.5q56 0 77 -25t21 -79q0 -57 -21.5 -77.5t-78.5 -20.5h-449q-6 -44 -28 -69.5t-70 -25.5q-56 0 -76 25.5t-20 81.5z" />
<glyph unicode="&#x484;" d="M242 1253v129h14q78 0 144.5 18t126 39.5t115.5 39.5t114 18q109 0 171 -50.5t62 -158.5v-35h-133v17q0 52 -29 75t-75 23q-42 0 -92.5 -18t-111 -39.5t-133 -39.5t-157.5 -18h-16z" />
<glyph unicode="&#x485;" d="M481 1462q0 57 34 92t93 35q47 0 72 -19t25 -57q0 -27 -15.5 -40t-34 -21t-34 -17t-15.5 -28q0 -25 28.5 -48t88.5 -44v-76q-122 31 -182 88.5t-60 134.5z" />
<glyph unicode="&#x486;" d="M481 1239v76q60 21 88.5 44t28.5 48q0 19 -15.5 28t-33.5 17t-33.5 21t-15.5 40q0 38 25 57t71 19q59 0 93 -35t34 -92q0 -77 -60 -134.5t-182 -88.5z" />
<glyph unicode="&#x488;" d="M41 492q3 66 36.5 104.5t96.5 38.5q65 0 99.5 -39t37.5 -104h-73q-4 34 -21.5 42.5t-42.5 8.5q-26 0 -41 -8t-18 -43h-74zM145 205q4 63 35 102t96 39t99.5 -39.5t40.5 -101.5h-72q-5 34 -23.5 42.5t-44.5 8.5q-27 0 -42.5 -8t-18.5 -43h-70zM145 774q4 63 35 102t96 39 t99.5 -39.5t40.5 -101.5h-72q-5 32 -23.5 40.5t-44.5 8.5q-27 0 -42.5 -7.5t-18.5 -41.5h-70zM473 47q2 63 35.5 100t99.5 37q65 0 98 -37.5t39 -99.5h-69q-5 32 -23.5 40.5t-44.5 8.5q-28 0 -44 -7.5t-19 -41.5h-72zM473 938q2 63 35.5 101t99.5 38q65 0 98 -38.5 t39 -100.5h-69q-5 32 -23.5 40.5t-44.5 8.5q-28 0 -44 -7.5t-19 -41.5h-72zM807 205q3 63 36.5 102t98.5 39q62 0 97 -39.5t38 -101.5h-73q-4 34 -20.5 42.5t-41.5 8.5q-28 0 -43 -8t-18 -43h-74zM807 774q3 63 36.5 102t98.5 39q62 0 97 -39.5t38 -101.5h-73 q-4 32 -20.5 40.5t-41.5 8.5q-28 0 -43 -7.5t-18 -41.5h-74zM918 492q3 66 35.5 104.5t97.5 38.5q63 0 98.5 -39t38.5 -104h-74q-1 17 -7 27t-14.5 15.5t-19.5 7t-22 1.5q-29 0 -43 -8t-17 -43h-73z" />
<glyph unicode="&#x489;" d="M41 549v82q26 -6 57.5 -12.5t64 -13t62.5 -12t51 -7.5v-103l-16 -16q-46 12 -104.5 34.5t-114.5 47.5zM147 188q41 25 95.5 62t109.5 76l72 -74l-2 -25q-47 -24 -103.5 -51.5t-107.5 -46.5zM205 938l61 63q17 -27 35.5 -56t36.5 -55.5t34 -50t29 -40.5l-71 -72l-25 2 q-29 53 -55.5 108.5t-44.5 100.5zM535 -25q17 87 28.5 144t16.5 92h100l16 -16q-12 -47 -34.5 -106.5t-47.5 -113.5h-79zM535 903q11 48 33.5 106.5t45.5 112.5h84q-7 -28 -14 -59.5t-13.5 -62.5t-11.5 -60t-8 -53h-100zM807 819v25q54 31 109.5 57t99.5 43l63 -59 q-21 -14 -48.5 -32t-55.5 -37t-54 -36.5t-44 -31.5zM825 274l74 72l23 -2q31 -53 56 -108.5t44 -102.5l-59 -63q-18 27 -37 56t-37 56t-34.5 50.5t-29.5 41.5zM952 512v100l19 17q22 -6 48.5 -14.5t55 -19t57.5 -22.5t56 -24v-84q-30 7 -62 14t-63 14t-59.5 12t-51.5 7z" />
<glyph unicode="&#x48a;" d="M137 0v1462h174v-800q0 -26 -0.5 -57t-1.5 -64.5l-2 -67t-3 -65.5q-4 -74 -7 -150h6l578 1204h213v-1296h194l-143 -551h-217l166 385h-172v793q0 57 2.5 128t6.5 136q4 76 9 153h-8l-580 -1210h-215zM231 1896h170q5 -57 18.5 -93t39 -56.5t63 -28.5t90.5 -8 q44 0 80.5 9t63.5 31t44.5 57.5t22.5 88.5h174q-6 -77 -30 -136.5t-70.5 -99.5t-117.5 -60.5t-171 -20.5q-103 0 -173 19.5t-113.5 59t-64.5 99t-26 139.5z" />
<glyph unicode="&#x48b;" d="M178 0v1098h172v-668l-12 -252l457 920h239v-944h183l-123 -535h-183l123 381h-172v647l10 271l-454 -918h-240zM231 1559h170q5 -57 18.5 -93.5t39 -57t63 -28.5t90.5 -8q44 0 80.5 9.5t63.5 31t44.5 57.5t22.5 89h174q-6 -78 -30 -137t-70.5 -99.5t-117.5 -61 t-171 -20.5q-103 0 -173 19.5t-113.5 59.5t-64.5 99.5t-26 139.5z" />
<glyph unicode="&#x48c;" d="M47 1120v164h152v178h186v-178h334v-164h-334v-274h168q152 0 255.5 -33t167 -89.5t91 -132.5t27.5 -163q0 -97 -30 -176t-93 -135t-160 -86.5t-231 -30.5h-381v1120h-152zM385 160h178q175 0 256.5 66t81.5 202q0 70 -23 118.5t-68.5 78.5t-115 43.5t-162.5 13.5h-147 v-522z" />
<glyph unicode="&#x48d;" d="M61 1176v137h156v243h182v-243h279v-137h-279v-529h277q212 0 314 -78t102 -233q0 -77 -23.5 -139t-74 -106t-130 -67.5t-192.5 -23.5h-455v1176h-156zM399 150h260q56 0 102.5 8.5t80 29t52.5 53.5t19 81q0 49 -16.5 82t-49 53t-80.5 28.5t-112 8.5h-256v-344z" />
<glyph unicode="&#x48e;" d="M176 0v1462h404q134 0 231 -28.5t160 -83t93 -134.5t30 -182q0 -61 -12 -118.5t-37.5 -108.5t-66.5 -93.5t-99 -74.5l104 -147l-106 -78l-125 176q-44 -11 -93 -16t-106 -5h-191v-569h-186zM362 727h170q32 0 61.5 1.5t55.5 6.5l-94 135l109 76l118 -170q60 34 89.5 94.5 t29.5 153.5q0 142 -81.5 210.5t-256.5 68.5h-201v-576z" />
<glyph unicode="&#x48f;" d="M158 -492v1590h147l27 -148h8q23 35 53 65.5t69.5 53t89 36t110.5 13.5q97 0 176 -36t135.5 -107.5t87.5 -177.5t31 -246q0 -177 -47.5 -298t-131.5 -190l107 -151l-107 -78l-116 166q-32 -9 -66 -14.5t-69 -5.5q-61 0 -110 13t-88.5 34.5t-70 50.5t-53.5 61h-12 q3 -34 6 -65q2 -26 4 -53.5t2 -43.5v-469h-182zM340 551q0 -101 14 -179.5t48 -132t89.5 -81t139.5 -27.5q18 0 35 1.5t32 6.5l-106 152l108 76l111 -160q92 104 92 346q0 208 -66 311t-208 103q-79 0 -133.5 -23t-88 -70t-49.5 -117t-18 -165v-41z" />
<glyph unicode="&#x490;" d="M246 0v1462h637v301h176v-467h-627v-1296h-186z" />
<glyph unicode="&#x491;" d="M291 0v1098h545v319h182v-456h-545v-961h-182z" />
<glyph unicode="&#x492;" d="M147 643v162h152v657h825v-166h-639v-491h336v-162h-336v-643h-186v643h-152z" />
<glyph unicode="&#x493;" d="M135 481v137h156v480h747v-154h-565v-326h279v-137h-279v-481h-182v481h-156z" />
<glyph unicode="&#x494;" d="M160 0v1462h760v-166h-574v-501q29 5 65 6.5t81 1.5q153 0 273 -46t202.5 -131.5t126 -206.5t43.5 -272q0 -170 -41 -294t-114 -205t-173.5 -120.5t-218.5 -39.5q-49 0 -88 3t-73 9t-64 15.5t-62 21.5v162q63 -23 126.5 -35t135.5 -12q375 0 375 495q0 121 -33.5 213.5 t-95 155.5t-148.5 95t-194 32q-37 0 -67 -2.5t-56 -7.5v-633h-186z" />
<glyph unicode="&#x495;" d="M215 0v1098h680v-154h-500v-317q34 5 73 7.5t81 2.5q125 0 229 -31t178 -100t115 -178.5t41 -266.5q0 -151 -38 -258t-102.5 -174.5t-150.5 -99t-182 -31.5q-41 0 -73.5 3.5t-60 11t-52 19t-50.5 26.5v161q25 -13 49 -24t50 -19.5t56.5 -13t68.5 -4.5q70 0 125 24 t93.5 73.5t58.5 126t20 181.5q0 211 -90.5 312.5t-288.5 101.5q-32 0 -73.5 -3t-76.5 -9v-465h-180z" />
<glyph unicode="&#x496;" d="M0 0l352 754l-340 708h178l328 -708v708h156v-708l321 708h179l-336 -708l272 -588h119v-551h-176v385h-49l-330 741v-741h-156v741l-336 -741h-182z" />
<glyph unicode="&#x497;" d="M0 1098h184l330 -533v533h160v-533l330 533h184l-346 -533l250 -411h116v-535h-161v381h-56l-317 557v-557h-160v557l-317 -557h-195l346 565z" />
<glyph unicode="&#x498;" d="M139 59v170q184 -96 383 -96q355 0 355 283q0 264 -394 264h-190v151h176q180 0 280.5 74t100.5 199q0 103 -70 164t-188 61q-186 0 -354 -121l-93 125q194 150 455 150q209 0 326.5 -99t117.5 -264q0 -137 -89.5 -230t-252.5 -120v-6q178 -23 273.5 -114t95.5 -234 q0 -203 -142 -319.5t-403 -116.5q-242 0 -387 79zM446 -317q14 -4 36.5 -6.5t47.5 -2.5q34 0 60 21.5t26 66.5q0 106 -140 238h129q26 -19 54.5 -45t52 -58t38.5 -69.5t15 -79.5q0 -90 -50 -142t-151 -52q-29 0 -60.5 4t-57.5 12v113z" />
<glyph unicode="&#x499;" d="M201 1042q160 76 370 76q205 0 315.5 -74.5t110.5 -214.5q0 -186 -192 -243v-11q227 -65 227 -272q0 -151 -120.5 -237t-344.5 -86q-235 0 -362 69v166q180 -86 366 -86q283 0 283 180q0 185 -311 185h-150v153h113q172 0 244.5 39.5t72.5 126.5q0 154 -250 154 q-134 0 -309 -72zM444 -317q14 -4 36.5 -6.5t47.5 -2.5q34 0 60 21.5t26 66.5q0 106 -140 238h129q26 -19 54.5 -45t52 -58t38.5 -69.5t15 -79.5q0 -90 -50 -142t-151 -52q-29 0 -60.5 4t-57.5 12v113z" />
<glyph unicode="&#x49a;" d="M211 0v1462h186v-708l566 708h206l-565 -702l463 -594h143v-551h-176v385h-55l-582 741v-741h-186z" />
<glyph unicode="&#x49b;" d="M215 0v1098h180v-533l518 533h222l-527 -527l414 -417h158v-535h-176v381h-62l-547 557v-557h-180z" />
<glyph unicode="&#x49c;" d="M211 0v1462h186v-762l119 164v355h133v-179l322 422h209l-521 -667l539 -795h-211l-338 500v-205h-133v356l-119 -98v-553h-186z" />
<glyph unicode="&#x49d;" d="M215 0v1098h180v-533l133 137v312h125v-185l260 269h222l-527 -527l566 -571h-232l-289 295v-205h-125v332l-133 135v-557h-180z" />
<glyph unicode="&#x49e;" d="M59 1120v164h152v178h186v-178h213v-164h-213v-389l121 168l453 563h209l-521 -637l539 -825h-211l-450 698l-140 -114v-584h-186v1120h-152z" />
<glyph unicode="&#x49f;" d="M59 1237v137h156v182h180v-182h379v-137h-379v-395l-16 -289h4l135 152l395 393h222l-494 -475l522 -623h-213l-426 504l-129 -82v-422h-180v1237h-156z" />
<glyph unicode="&#x4a0;" d="M23 1298v164h485v-760l104 170l373 590h195l-412 -633l430 -829h-203l-350 696l-137 -153v-543h-186v1298h-299z" />
<glyph unicode="&#x4a1;" d="M43 944v154h541v-533l407 533h197l-416 -527l455 -571h-207l-436 557v-557h-181v944h-360z" />
<glyph unicode="&#x4a2;" d="M135 0v1462h187v-616h526v616h186v-1296h176v-551h-176v385h-186v682h-526v-682h-187z" />
<glyph unicode="&#x4a3;" d="M160 0v1098h182v-455h496v455h182v-944h160v-535h-176v381h-166v489h-496v-489h-182z" />
<glyph unicode="&#x4a4;" d="M135 0v1462h187v-616h415v616h469v-164h-282v-1298h-187v682h-415v-682h-187z" />
<glyph unicode="&#x4a5;" d="M160 0v1098h182v-455h442v455h422v-154h-239v-944h-183v489h-442v-489h-182z" />
<glyph unicode="&#x4a6;" d="M106 0v1462h609v-671q18 5 42.5 8.5t49.5 3.5q98 0 168.5 -46t116 -131.5t67 -206.5t21.5 -272q0 -170 -25.5 -294t-72.5 -205t-114 -120.5t-151 -39.5q-54 0 -96.5 9.5t-85.5 29.5v162q38 -16 74.5 -26.5t83.5 -10.5q115 0 165 123.5t50 371.5q0 243 -51.5 369.5 t-163.5 126.5q-51 0 -78 -12v-631h-166v1298h-277v-1298h-166z" />
<glyph unicode="&#x4a7;" d="M127 0v1098h582v-473q21 6 45 9t47 3q78 0 143.5 -28.5t112 -95t72.5 -177t26 -275.5q0 -155 -24 -262.5t-67.5 -174t-104 -96.5t-134.5 -30q-60 0 -106 11t-86 32v162q42 -22 83 -33.5t97 -11.5q50 0 85 23.5t57 72.5t32 125.5t10 183.5t-10 185t-33.5 129t-61.5 75.5 t-95 24.5q-23 0 -45.5 -2t-42.5 -8v-467h-162v944h-258v-944h-162z" />
<glyph unicode="&#x4a8;" d="M84 723q0 193 34.5 336t101.5 237.5t165 141.5t225 47q50 0 96.5 -10t84.5 -25l-56 -154q-28 11 -58.5 18t-64.5 7q-81 0 -143 -34t-104 -106.5t-63 -186t-21 -271.5q0 -157 23 -267.5t67 -180t107 -101t143 -31.5q20 0 29.5 1.5t25.5 5.5q-37 54 -65 112.5t-47 124.5 t-28.5 140.5t-9.5 160.5q0 132 20.5 228t60.5 158t97.5 92t131.5 30t131.5 -27.5t97.5 -86.5t61 -153t21 -227q0 -106 -15.5 -198t-42.5 -167.5t-62.5 -133t-74.5 -94.5q23 -13 50.5 -18t62.5 -5q31 0 60.5 7t60.5 18v-170q-29 -13 -63 -19t-66 -6q-69 0 -134.5 22 t-127.5 74q-41 -17 -83.5 -24.5t-101.5 -7.5q-126 0 -224 47.5t-165 141.5t-102 232.5t-35 321.5zM723 676q0 -144 28 -258t76 -193q30 33 53 83.5t38.5 112.5t23.5 131.5t8 139.5q0 86 -5.5 152t-19 110.5t-35.5 67t-54 22.5t-54 -26t-35 -74t-18.5 -116t-5.5 -152z" />
<glyph unicode="&#x4a9;" d="M115 543q0 129 33.5 235t97 181.5t156 117t210.5 41.5q57 0 96.5 -7.5t71.5 -18.5l-45 -146q-25 8 -53 14.5t-70 6.5q-81 0 -139.5 -28t-96 -82t-55.5 -133.5t-18 -182.5q0 -97 19.5 -173t58 -128.5t96 -80.5t133.5 -28h15t14 2q-34 39 -60 79t-44 85t-27.5 96.5 t-9.5 112.5q0 94 24 162t66 112.5t99 66t122 21.5t120 -19.5t96 -62.5t64 -112t23 -168q0 -70 -13.5 -129.5t-37.5 -109t-56 -89t-69 -69.5q39 -19 92 -19q26 0 54.5 3t56.5 11v-147q-23 -9 -54.5 -12.5t-62.5 -3.5q-65 0 -127 15t-119 52q-38 -14 -79.5 -21t-88.5 -7 q-111 0 -202 38t-155.5 110.5t-100 177t-35.5 237.5zM684 500q0 -52 9.5 -97.5t26 -84t38 -70.5t45.5 -58q57 45 90 125t33 187q0 51 -6.5 93t-21 71t-36.5 45t-53 16q-62 0 -93.5 -61t-31.5 -166z" />
<glyph unicode="&#x4aa;" d="M129 733q0 346 179 548t489 202q220 0 383 -86l-78 -156q-154 78 -305 78q-215 0 -343 -158.5t-128 -429.5q0 -287 120 -437.5t351 -150.5q130 0 327 58v-162q-146 -59 -358 -59q-309 0 -473 196t-164 557zM613 -317q14 -4 36.5 -6.5t47.5 -2.5q34 0 60 21.5t26 66.5 q0 106 -140 238h129q26 -19 54.5 -45t52 -58t38.5 -69.5t15 -79.5q0 -90 -50 -142t-151 -52q-29 0 -60.5 4t-57.5 12v113z" />
<glyph unicode="&#x4ab;" d="M172 543q0 281 145 428t408 147q178 0 336 -59l-62 -158q-150 57 -268 57q-371 0 -371 -413q0 -406 361 -406q157 0 321 62v-160q-134 -61 -329 -61q-257 0 -399 145.5t-142 417.5zM510 -317q14 -4 36.5 -6.5t47.5 -2.5q34 0 60 21.5t26 66.5q0 106 -140 238h129 q26 -19 54.5 -45t52 -58t38.5 -69.5t15 -79.5q0 -90 -50 -142t-151 -52q-29 0 -60.5 4t-57.5 12v113z" />
<glyph unicode="&#x4ac;" d="M102 1298v164h1022v-164h-417v-1132h176v-551h-176v385h-187v1298h-418z" />
<glyph unicode="&#x4ad;" d="M121 944v154h985v-154h-401v-790h159v-535h-182v381h-160v944h-401z" />
<glyph unicode="&#x4ae;" d="M33 1462h203l376 -739l381 739h201l-487 -893v-569h-187v559z" />
<glyph unicode="&#x4af;" d="M82 1098h190l238 -623q12 -32 27.5 -77t29.5 -91.5t26 -89.5t17 -72h6q6 29 17.5 72t26 89.5t30 91.5t27.5 77l239 623h189l-440 -1098v-492h-183v492z" />
<glyph unicode="&#x4b0;" d="M33 1462h203l376 -739l381 739h201l-487 -893v-61h294v-164h-294v-344h-187v344h-295v164h295v51z" />
<glyph unicode="&#x4b1;" d="M82 1098h190l238 -623q12 -32 27.5 -77t29.5 -91.5t26 -89.5t17 -72h6q6 29 17.5 72t26 89.5t30 91.5t27.5 77l239 623h189l-440 -1098h266v-137h-266v-355h-183v355h-266v137h266z" />
<glyph unicode="&#x4b2;" d="M53 0l453 764l-422 698h199l331 -559l334 559h191l-422 -692l358 -604h135v-551h-176v385h-71l-355 635l-366 -635h-189z" />
<glyph unicode="&#x4b3;" d="M96 0l414 563l-393 535h207l290 -410l291 410h207l-395 -535l301 -409h162v-535h-176v381h-80l-310 436l-311 -436h-207z" />
<glyph unicode="&#x4b4;" d="M23 1298v164h657v-164h-236v-1132h404v1296h186v-1296h176v-551h-176v385h-776v1298h-235z" />
<glyph unicode="&#x4b5;" d="M20 944v154h633v-154h-229v-790h414v944h182v-944h160v-535h-176v381h-762v944h-222z" />
<glyph unicode="&#x4b6;" d="M135 879v583h187v-559q0 -57 10 -100.5t35 -72.5t66 -43.5t102 -14.5q77 0 153 15.5t160 43.5v731h186v-1296h176v-551h-176v385h-186v575q-81 -29 -165.5 -48t-168.5 -19q-187 0 -283 95.5t-96 275.5z" />
<glyph unicode="&#x4b7;" d="M152 676v422h182v-410q0 -88 52.5 -131t152.5 -43q78 0 152 22.5t147 65.5v496h182v-944h160v-535h-176v381h-166v463q-39 -25 -78 -43.5t-80 -31.5t-86 -19.5t-96 -6.5q-82 0 -146.5 23.5t-108.5 65.5t-67.5 99.5t-23.5 125.5z" />
<glyph unicode="&#x4b8;" d="M135 879v583h187v-559q0 -57 10 -100.5t35 -72.5t66 -43.5t102 -14.5h12v344h133v-332q51 9 107.5 27t119.5 41v710h187v-1462h-187v598q-65 -25 -119.5 -43t-107.5 -29v-313h-133v295h-33q-187 0 -283 95.5t-96 275.5z" />
<glyph unicode="&#x4b9;" d="M152 676v422h182v-410q0 -88 52.5 -131t152.5 -43h6v301h125v-285q104 29 209 99v469h182v-1098h-182v489q-53 -37 -103.5 -62.5t-105.5 -41.5v-254h-125v231h-47q-82 0 -146.5 23.5t-108.5 65.5t-67.5 99.5t-23.5 125.5z" />
<glyph unicode="&#x4ba;" d="M135 0v1462h187v-598q110 45 204 67.5t189 22.5q183 0 281 -94t98 -276v-584h-187v559q0 116 -50 174t-167 58q-86 0 -173.5 -20t-194.5 -60v-711h-187z" />
<glyph unicode="&#x4bb;" d="M168 0v1098h182v-490q44 31 87.5 54.5t89.5 39.5t96.5 24.5t107.5 8.5q82 0 146.5 -23.5t108.5 -65t67.5 -99t23.5 -125.5v-422h-182v410q0 88 -52.5 131t-152.5 43q-90 0 -173 -29t-167 -86v-469h-182z" />
<glyph unicode="&#x4bc;" d="M-8 903q0 42 8.5 75t19.5 56h156q-6 -15 -13 -46t-7 -66q0 -97 102 -97h21q11 154 41 276t84.5 207.5t135.5 131t193 45.5q125 0 205 -50.5t126.5 -145t64.5 -230t18 -305.5v-90h-672q5 -122 23 -219t55.5 -164t97.5 -102.5t150 -35.5q47 0 86.5 6t75 16t68 24t65.5 30 v-170q-33 -15 -65.5 -28t-70.5 -22t-84 -14t-106 -5q-126 0 -215.5 46.5t-148.5 135t-89 215.5t-38 287q-144 3 -215.5 60t-71.5 179zM475 825h479q0 117 -8 209t-32 156t-67.5 97.5t-115.5 33.5q-64 0 -110 -32.5t-77 -95.5t-47.5 -155.5t-21.5 -212.5z" />
<glyph unicode="&#x4bd;" d="M-43 741q0 39 8.5 70.5t18.5 52.5h149q-6 -14 -13 -43t-7 -63q0 -47 24 -71.5t74 -24.5h27q14 108 51.5 193t96 143.5t134.5 89t166 30.5q99 0 178 -35.5t134 -100t84.5 -155t29.5 -200.5v-113h-692q5 -193 81 -284t228 -91q51 0 94.5 5t83.5 14.5t78.5 24t77.5 32.5 v-162q-40 -19 -78.5 -33t-79 -23t-84 -13t-94.5 -4q-108 0 -197 35t-154.5 103t-103 167.5t-41.5 228.5q-133 2 -203.5 57.5t-70.5 169.5zM424 662h491q0 68 -13.5 124.5t-41.5 96.5t-72 62t-106 22q-115 0 -181 -78t-77 -227z" />
<glyph unicode="&#x4be;" d="M-8 903q0 42 8.5 75t19.5 56h156q-6 -15 -13 -46t-7 -66q0 -97 102 -97h21q11 154 41 276t84.5 207.5t135.5 131t193 45.5q125 0 205 -50.5t126.5 -145t64.5 -230t18 -305.5v-90h-672q5 -122 23 -219t55.5 -164t97.5 -102.5t150 -35.5q47 0 86.5 6t75 16t68 24t65.5 30 v-170q-30 -14 -59.5 -25.5t-63 -20.5t-72.5 -15t-88 -8v-365h-176v381q-90 23 -155 78.5t-108 140.5t-66 198t-29 251q-144 3 -215.5 60t-71.5 179zM475 825h479q0 117 -8 209t-32 156t-67.5 97.5t-115.5 33.5q-64 0 -110 -32.5t-77 -95.5t-47.5 -155.5t-21.5 -212.5z" />
<glyph unicode="&#x4bf;" d="M-43 741q0 39 8.5 70.5t18.5 52.5h149q-6 -14 -13 -43t-7 -63q0 -47 24 -71.5t74 -24.5h27q14 108 51.5 193t96 143.5t134.5 89t166 30.5q99 0 178 -35.5t134 -100t84.5 -155t29.5 -200.5v-113h-692q5 -193 81 -284t228 -91q51 0 94.5 5t83.5 14.5t78.5 24t77.5 32.5 v-162q-66 -32 -132.5 -49t-144.5 -22v-363h-176v373q-84 17 -152 59t-117.5 108t-78 155t-31.5 200q-133 2 -203.5 57.5t-70.5 169.5zM424 662h491q0 68 -13.5 124.5t-41.5 96.5t-72 62t-106 22q-115 0 -181 -78t-77 -227z" />
<glyph unicode="&#x4c0;" d="M225 0v123l295 20v1176l-295 20v123h776v-123l-294 -20v-1176l294 -20v-123h-776z" />
<glyph unicode="&#x4c1;" d="M0 0l373 754l-361 708h178l349 -708v708h155v-708l342 708h178l-356 -708l371 -754h-185l-350 741v-741h-155v741l-357 -741h-182zM231 1897h170q8 -102 50 -144.5t161 -42.5q194 0 211 187h174q-20 -318 -389 -318q-195 0 -281 74t-96 244z" />
<glyph unicode="&#x4c2;" d="M0 1098h184l351 -533v533h159v-533l350 533h185l-367 -533l365 -565h-195l-338 557v-557h-159v557l-338 -557h-195l367 565zM231 1559h170q8 -102 50 -144.5t161 -42.5q194 0 211 187h174q-20 -318 -389 -318q-195 0 -281 74t-96 244z" />
<glyph unicode="&#x4c3;" d="M135 0v1462h187v-708l565 708h207l-559 -680h6q127 0 232 -40.5t180.5 -121t117 -199t41.5 -274.5q0 -170 -41 -294t-114 -205t-173 -120.5t-219 -39.5q-49 0 -88 3t-73 9t-64 15.5t-61 21.5v162q63 -23 126 -35t136 -12q374 0 374 495q0 129 -34.5 222t-92 152.5 t-133.5 87.5t-159 28q-57 0 -98 -7.5t-76 -21.5v-608h-187z" />
<glyph unicode="&#x4c4;" d="M215 0v1098h180v-506l484 506h215l-476 -488q100 -2 190 -32.5t157.5 -95.5t107 -168.5t39.5 -252.5q0 -150 -37 -256.5t-101.5 -174.5t-152.5 -100t-190 -32q-76 0 -128.5 15.5t-99.5 44.5v161q44 -24 96.5 -42.5t118.5 -18.5q149 0 227.5 97.5t78.5 307.5 q0 106 -26 182t-74.5 125t-117 72t-153.5 23q-83 0 -158 -29v-436h-180z" />
<glyph unicode="&#x4c5;" d="M4 2v150q22 -10 51.5 -17.5t61.5 -7.5q48 0 80 31.5t53 80.5t34 107.5t23 112.5q11 57 27.5 157t36 231t41 288t43.5 327h577v-1296h195l-144 -551h-217l166 385h-186v1298h-236q-14 -113 -30 -235t-32.5 -240t-33.5 -224t-33 -187q-20 -103 -46.5 -184t-66 -136.5 t-94.5 -85t-133 -29.5q-35 0 -72 7t-65 18z" />
<glyph unicode="&#x4c6;" d="M31 -2v131q21 -6 49 -6q55 0 99.5 58.5t79 179t60 304t43.5 433.5h654v-944h182l-123 -535h-182l123 381h-182v944h-316q-20 -259 -52 -441t-79.5 -297t-112.5 -167.5t-151 -52.5q-28 0 -52.5 3t-39.5 9z" />
<glyph unicode="&#x4c7;" d="M135 0v1462h187v-616h585v616h187v-1315q0 -170 -37 -294t-103 -205t-156.5 -120.5t-197.5 -39.5q-45 0 -80.5 3t-66 9t-57.5 15.5t-56 21.5v162q56 -23 111 -35t118 -12q164 0 251 120t87 367v543h-585v-682h-187z" />
<glyph unicode="&#x4c8;" d="M160 0v1098h182v-455h545v455h182v-1037q0 -150 -31.5 -256.5t-87 -174.5t-131 -100t-162.5 -32q-75 0 -127.5 15.5t-99.5 44.5v161q43 -24 96 -42.5t119 -18.5q59 0 104.5 22.5t76 71t46 123.5t15.5 180v434h-545v-489h-182z" />
<glyph unicode="&#x4c9;" d="M135 0v1462h187v-616h524v616h186v-1296h195l-144 -551h-217l166 385h-186v682h-524v-682h-187z" />
<glyph unicode="&#x4ca;" d="M160 0v1098h182v-455h492v455h182v-944h182l-123 -535h-182l123 381h-182v489h-492v-489h-182z" />
<glyph unicode="&#x4cb;" d="M135 879v583h187v-559q0 -57 10 -100.5t35 -72.5t66 -43.5t102 -14.5q45 0 88 5t87.5 15t92.5 25t104 35v710h187v-1462h-187v-385h-176v551h176v432q-57 -22 -107.5 -39t-97.5 -28t-93 -17t-95 -6q-187 0 -283 95.5t-96 275.5z" />
<glyph unicode="&#x4cc;" d="M152 676v422h182v-410q0 -88 52.5 -131t152.5 -43q89 0 172.5 29t167.5 86v469h182v-1098h-166v-381h-176v535h160v335q-44 -30 -87.5 -54t-89.5 -40t-96.5 -24.5t-107.5 -8.5q-82 0 -146.5 23.5t-108.5 65.5t-67.5 99.5t-23.5 125.5z" />
<glyph unicode="&#x4cd;" d="M113 0v1462h237l236 -1192h6l239 1192h242v-1296h154l-185 -551h-176l166 385h-108v887q0 52 2 119t5 128q4 71 7 144h-8l-264 -1278h-156l-262 1280h-8q5 -74 9 -147q4 -63 6.5 -132.5t2.5 -126.5v-874h-145z" />
<glyph unicode="&#x4ce;" d="M115 0v1098h204l197 -656q10 -34 20.5 -74.5t19.5 -78t16.5 -68.5t11.5 -47q5 17 12 47.5t15.5 67.5t18 76t19.5 73l203 660h201v-944h145l-123 -535h-168l123 381h-123v897q-4 -21 -12 -55.5t-16.5 -71.5t-17 -71t-13.5 -52l-199 -647h-131l-196 647q-4 14 -12 45 t-17 67.5t-18 74t-15 63.5v-897h-145z" />
<glyph unicode="&#x4cf;" d="M225 0v123l295 20v1176l-295 20v123h776v-123l-294 -20v-1176l294 -20v-123h-776z" />
<glyph unicode="&#x4d0;" d="M33 0l483 1468h195l485 -1468h-192l-144 453h-491l-146 -453h-190zM230 1897h170q8 -102 50 -144.5t161 -42.5q194 0 211 187h174q-20 -318 -389 -318q-195 0 -281 74t-96 244zM422 618h385l-133 424q-39 124 -62 226q-20 -99 -46 -183z" />
<glyph unicode="&#x4d1;" d="M135 307q0 332 510 348l203 7v69q0 236 -244 236q-147 0 -328 -82l-63 137q196 96 383 96q227 0 328.5 -87t101.5 -279v-752h-131l-37 152h-8q-77 -97 -158 -134.5t-209 -37.5q-163 0 -255.5 86t-92.5 241zM235 1559h170q8 -102 50 -144.5t161 -42.5q194 0 211 187h174 q-20 -318 -389 -318q-195 0 -281 74t-96 244zM324 305q0 -178 200 -178q147 0 234.5 81.5t87.5 229.5v99l-162 -7q-196 -8 -278 -61.5t-82 -163.5z" />
<glyph unicode="&#x4d2;" d="M33 0l483 1468h195l485 -1468h-192l-144 453h-491l-146 -453h-190zM330 1733q0 102 96 102t96 -102q0 -103 -96 -103t-96 103zM422 618h385l-133 424q-39 124 -62 226q-20 -99 -46 -183zM705 1733q0 102 96 102t96 -102q0 -103 -96 -103t-96 103z" />
<glyph unicode="&#x4d3;" d="M135 307q0 332 510 348l203 7v69q0 236 -244 236q-147 0 -328 -82l-63 137q196 96 383 96q227 0 328.5 -87t101.5 -279v-752h-131l-37 152h-8q-77 -97 -158 -134.5t-209 -37.5q-163 0 -255.5 86t-92.5 241zM324 305q0 -178 200 -178q147 0 234.5 81.5t87.5 229.5v99 l-162 -7q-196 -8 -278 -61.5t-82 -163.5zM342 1395q0 102 96 102t96 -102q0 -103 -96 -103t-96 103zM717 1395q0 102 96 102t96 -102q0 -103 -96 -103t-96 103z" />
<glyph unicode="&#x4d4;" d="M0 0l338 1462h872v-164h-477v-452h438v-162h-438v-520h477v-164h-653v453h-289l-96 -453h-172zM305 618h252v680h-106z" />
<glyph unicode="&#x4d5;" d="M45 307q0 332 328 348l149 7v69q0 236 -139 236q-107 0 -211 -82l-57 137q131 96 276 96q188 0 246 -178q78 178 240 178q137 0 223 -135.5t86 -355.5v-113h-496q3 -192 67 -283.5t169 -91.5q111 0 233 76v-162q-107 -73 -241 -73q-222 0 -316 229q-105 -229 -301 -229 q-115 0 -185.5 86.5t-70.5 240.5zM215 305q0 -83 32 -130.5t87 -47.5q82 0 134 82.5t52 228.5v99l-88 -7q-217 -17 -217 -225zM694 662h316q0 141 -40.5 223t-111.5 82q-68 0 -113 -78t-51 -227z" />
<glyph unicode="&#x4d6;" d="M217 0v1462h842v-164h-656v-452h617v-162h-617v-520h656v-164h-842zM254 1897h170q8 -102 50 -144.5t161 -42.5q194 0 211 187h174q-20 -318 -389 -318q-195 0 -281 74t-96 244z" />
<glyph unicode="&#x4d7;" d="M133 541q0 266 135.5 421.5t362.5 155.5q212 0 338.5 -134t126.5 -357v-113h-774q8 -375 344 -375q195 0 370 76v-160q-166 -75 -364 -75q-245 0 -392 149.5t-147 411.5zM247 1559h170q8 -102 50 -144.5t161 -42.5q194 0 211 187h174q-20 -318 -389 -318q-195 0 -281 74 t-96 244zM326 662h573q0 305 -272 305q-275 0 -301 -305z" />
<glyph unicode="&#x4d8;" d="M84 719v82h866q-6 122 -33.5 218.5t-77.5 163.5t-122.5 102.5t-169.5 35.5q-111 0 -200.5 -22t-168.5 -54v170q38 15 78 28t86.5 22.5t102 14.5t122.5 5q141 0 249.5 -54t182 -153t111 -238.5t37.5 -310.5q0 -174 -36.5 -312.5t-107 -235.5t-174.5 -149t-239 -52 q-137 0 -233 51.5t-157 147.5t-88.5 232.5t-27.5 307.5zM279 639q2 -117 19.5 -209t55 -155.5t97 -97.5t145.5 -34q77 0 139.5 32.5t107.5 95.5t72 155.5t33 212.5h-669z" />
<glyph unicode="&#x4d9;" d="M133 471v113h774q-5 193 -90.5 283.5t-253.5 90.5q-56 0 -104.5 -5t-93 -14.5t-86.5 -23.5t-86 -32v159q43 20 84.5 34t85 23.5t91.5 14t103 4.5q119 0 218 -37t170.5 -108t111 -176t39.5 -240q0 -136 -36 -243t-101.5 -181t-157.5 -113.5t-203 -39.5q-108 0 -194.5 35.5 t-146.5 100t-92 155t-32 200.5zM330 436q0 -68 16 -124.5t49 -96.5t84.5 -62t122.5 -22q133 0 211 78t90 227h-573z" />
<glyph unicode="&#x4da;" d="M84 719v82h866q-6 122 -33.5 218.5t-77.5 163.5t-122.5 102.5t-169.5 35.5q-111 0 -200.5 -22t-168.5 -54v170q38 15 78 28t86.5 22.5t102 14.5t122.5 5q141 0 249.5 -54t182 -153t111 -238.5t37.5 -310.5q0 -174 -36.5 -312.5t-107 -235.5t-174.5 -149t-239 -52 q-137 0 -233 51.5t-157 147.5t-88.5 232.5t-27.5 307.5zM279 639q2 -117 19.5 -209t55 -155.5t97 -97.5t145.5 -34q77 0 139.5 32.5t107.5 95.5t72 155.5t33 212.5h-669zM332 1733q0 102 96 102t96 -102q0 -103 -96 -103t-96 103zM707 1733q0 102 96 102t96 -102 q0 -103 -96 -103t-96 103z" />
<glyph unicode="&#x4db;" d="M133 471v113h774q-5 193 -90.5 283.5t-253.5 90.5q-56 0 -104.5 -5t-93 -14.5t-86.5 -23.5t-86 -32v159q43 20 84.5 34t85 23.5t91.5 14t103 4.5q119 0 218 -37t170.5 -108t111 -176t39.5 -240q0 -136 -36 -243t-101.5 -181t-157.5 -113.5t-203 -39.5q-108 0 -194.5 35.5 t-146.5 100t-92 155t-32 200.5zM330 436q0 -68 16 -124.5t49 -96.5t84.5 -62t122.5 -22q133 0 211 78t90 227h-573zM332 1395q0 102 96 102t96 -102q0 -103 -96 -103t-96 103zM707 1395q0 102 96 102t96 -102q0 -103 -96 -103t-96 103z" />
<glyph unicode="&#x4dc;" d="M0 0l373 754l-361 708h178l349 -708v708h155v-708l342 708h178l-356 -708l371 -754h-185l-350 741v-741h-155v741l-357 -741h-182zM330 1733q0 102 96 102t96 -102q0 -103 -96 -103t-96 103zM705 1733q0 102 96 102t96 -102q0 -103 -96 -103t-96 103z" />
<glyph unicode="&#x4dd;" d="M0 1098h184l351 -533v533h159v-533l350 533h185l-367 -533l365 -565h-195l-338 557v-557h-159v557l-338 -557h-195l367 565zM330 1395q0 102 96 102t96 -102q0 -103 -96 -103t-96 103zM705 1395q0 102 96 102t96 -102q0 -103 -96 -103t-96 103z" />
<glyph unicode="&#x4de;" d="M139 59v170q184 -96 383 -96q355 0 355 283q0 264 -394 264h-190v151h176q180 0 280.5 74t100.5 199q0 103 -70 164t-188 61q-186 0 -354 -121l-93 125q194 150 455 150q209 0 326.5 -99t117.5 -264q0 -137 -89.5 -230t-252.5 -120v-6q178 -23 273.5 -114t95.5 -234 q0 -203 -142 -319.5t-403 -116.5q-242 0 -387 79zM311 1733q0 102 96 102t96 -102q0 -103 -96 -103t-96 103zM686 1733q0 102 96 102t96 -102q0 -103 -96 -103t-96 103z" />
<glyph unicode="&#x4df;" d="M201 1042q160 76 370 76q205 0 315.5 -74.5t110.5 -214.5q0 -186 -192 -243v-11q227 -65 227 -272q0 -151 -120.5 -237t-344.5 -86q-235 0 -362 69v166q180 -86 366 -86q283 0 283 180q0 185 -311 185h-150v153h113q172 0 244.5 39.5t72.5 126.5q0 154 -250 154 q-134 0 -309 -72zM327 1395q0 102 96 102t96 -102q0 -103 -96 -103t-96 103zM702 1395q0 102 96 102t96 -102q0 -103 -96 -103t-96 103z" />
<glyph unicode="&#x4e0;" d="M158 59v170q43 -23 91 -41t97.5 -30t99 -18.5t95.5 -6.5q178 0 266 74t88 209t-103.5 199.5t-289.5 64.5h-123v151l422 465h-602v166h829v-145l-442 -490q115 -4 208 -31t159 -77t101.5 -125.5t35.5 -177.5q0 -96 -33.5 -176t-101.5 -138t-170.5 -90t-239.5 -32 q-110 0 -206 17t-181 62z" />
<glyph unicode="&#x4e1;" d="M170 -422l2 166q33 -16 75 -31.5t91 -27.5t104.5 -19.5t114.5 -7.5q77 0 141 24t110 68.5t71.5 108t25.5 141.5q0 86 -29.5 147.5t-83.5 101.5t-129.5 58.5t-166.5 18.5h-119v125l438 493h-618v154h829v-133l-442 -496q104 -7 195 -39t158.5 -89t106.5 -139t39 -190 q0 -110 -38 -202.5t-107.5 -159.5t-168.5 -104.5t-222 -37.5q-122 0 -218.5 18t-158.5 52z" />
<glyph unicode="&#x4e2;" d="M137 0v1462h174v-800q0 -142 -7 -254l-7 -150h6l578 1204h213v-1462h-172v793q0 140 18 417h-8l-580 -1210h-215zM328 1579v150h575v-150h-575z" />
<glyph unicode="&#x4e3;" d="M160 0v1098h172v-668l-13 -252l517 920h233v-1098h-172v647l10 271l-514 -918h-233zM328 1241v150h575v-150h-575z" />
<glyph unicode="&#x4e4;" d="M137 0v1462h174v-800q0 -142 -7 -254l-7 -150h6l578 1204h213v-1462h-172v793q0 140 18 417h-8l-580 -1210h-215zM332 1733q0 102 96 102t96 -102q0 -103 -96 -103t-96 103zM707 1733q0 102 96 102t96 -102q0 -103 -96 -103t-96 103z" />
<glyph unicode="&#x4e5;" d="M160 0v1098h172v-668l-13 -252l517 920h233v-1098h-172v647l10 271l-514 -918h-233zM332 1395q0 102 96 102t96 -102q0 -103 -96 -103t-96 103zM707 1395q0 102 96 102t96 -102q0 -103 -96 -103t-96 103z" />
<glyph unicode="&#x4e6;" d="M84 735q0 750 534 750q256 0 392.5 -195.5t136.5 -556.5t-138 -557t-393 -196q-532 0 -532 755zM281 733q0 -590 335 -590q173 0 253.5 145t80.5 445q0 303 -81.5 445.5t-250.5 142.5q-337 0 -337 -588zM332 1733q0 102 96 102t96 -102q0 -103 -96 -103t-96 103z M707 1733q0 102 96 102t96 -102q0 -103 -96 -103t-96 103z" />
<glyph unicode="&#x4e7;" d="M115 551q0 263 135.5 415t365.5 152q218 0 357 -155t139 -412q0 -265 -137 -418t-365 -153q-216 0 -355.5 155.5t-139.5 415.5zM303 551q0 -420 311 -420q310 0 310 420q0 416 -312 416q-309 0 -309 -416zM323 1395q0 102 96 102t96 -102q0 -103 -96 -103t-96 103z M698 1395q0 102 96 102t96 -102q0 -103 -96 -103t-96 103z" />
<glyph unicode="&#x4e8;" d="M84 735q0 170 30 308.5t94.5 236.5t166 151.5t243.5 53.5q135 0 234.5 -53.5t165 -152t97.5 -237t32 -309.5q0 -169 -32 -308t-98 -238t-166 -153t-235 -54q-142 0 -242.5 54t-165 153t-94.5 238.5t-30 309.5zM283 664q4 -122 24 -219t60 -164t101.5 -102.5t147.5 -35.5 q87 0 148.5 35.5t101 102.5t59 164t23.5 219h-665zM283 825h665q-5 117 -26 209t-60.5 156t-99.5 97.5t-144 33.5q-85 0 -146 -33.5t-101.5 -97.5t-61.5 -156t-26 -209z" />
<glyph unicode="&#x4e9;" d="M115 551q0 136 36.5 241.5t102.5 178t158.5 110t203.5 37.5q103 0 193.5 -37.5t157.5 -110t106 -178t39 -241.5q0 -137 -37 -243.5t-103.5 -179t-158.5 -110.5t-203 -38q-103 0 -193 38t-157 110.5t-106 179t-39 243.5zM305 487q11 -179 89 -267.5t220 -88.5 q282 0 308 356h-617zM307 641h613q-35 326 -308 326t-305 -326z" />
<glyph unicode="&#x4ea;" d="M84 735q0 170 30 308.5t94.5 236.5t166 151.5t243.5 53.5q135 0 234.5 -53.5t165 -152t97.5 -237t32 -309.5q0 -169 -32 -308t-98 -238t-166 -153t-235 -54q-142 0 -242.5 54t-165 153t-94.5 238.5t-30 309.5zM283 664q4 -122 24 -219t60 -164t101.5 -102.5t147.5 -35.5 q87 0 148.5 35.5t101 102.5t59 164t23.5 219h-665zM283 825h665q-5 117 -26 209t-60.5 156t-99.5 97.5t-144 33.5q-85 0 -146 -33.5t-101.5 -97.5t-61.5 -156t-26 -209zM332 1733q0 102 96 102t96 -102q0 -103 -96 -103t-96 103zM707 1733q0 102 96 102t96 -102 q0 -103 -96 -103t-96 103z" />
<glyph unicode="&#x4eb;" d="M115 551q0 136 36.5 241.5t102.5 178t158.5 110t203.5 37.5q103 0 193.5 -37.5t157.5 -110t106 -178t39 -241.5q0 -137 -37 -243.5t-103.5 -179t-158.5 -110.5t-203 -38q-103 0 -193 38t-157 110.5t-106 179t-39 243.5zM305 487q11 -179 89 -267.5t220 -88.5 q282 0 308 356h-617zM307 641h613q-35 326 -308 326t-305 -326zM323 1395q0 102 96 102t96 -102q0 -103 -96 -103t-96 103zM698 1395q0 102 96 102t96 -102q0 -103 -96 -103t-96 103z" />
<glyph unicode="&#x4ec;" d="M68 1397q161 86 383 86q304 0 476.5 -194.5t172.5 -530.5q0 -373 -171 -575.5t-487 -202.5q-212 0 -358 59v162q197 -58 328 -58q473 0 489 541h-629v162h625q-19 222 -137.5 347.5t-308.5 125.5q-152 0 -306 -78zM210 1733q0 102 96 102t96 -102q0 -103 -96 -103 t-96 103zM585 1733q0 102 96 102t96 -102q0 -103 -96 -103t-96 103z" />
<glyph unicode="&#x4ed;" d="M184 1059q153 59 332 59q267 0 406 -146t139 -429q0 -271 -143 -417t-408 -146q-187 0 -320 61v160q163 -62 316 -62q351 0 368 348h-538v154h536q-27 317 -364 317q-108 0 -262 -57zM282 1395q0 102 96 102t96 -102q0 -103 -96 -103t-96 103zM657 1395q0 102 96 102 t96 -102q0 -103 -96 -103t-96 103z" />
<glyph unicode="&#x4ee;" d="M27 1462h204l383 -809q12 -25 20 -47q8 -25 17 -45h2l39 109l312 792h196l-428 -1030q-76 -183 -136 -268.5t-149 -134.5t-215 -49q-104 0 -178 30v185q85 -45 178 -45q110 0 170.5 51.5t114.5 173.5zM334 1579v150h575v-150h-575z" />
<glyph unicode="&#x4ef;" d="M82 1098h188l262 -654q82 -205 89 -290h6q23 112 90 292l239 652h189l-475 -1241q-67 -174 -156 -261.5t-246 -87.5q-86 0 -168 17v145q62 -12 136 -12q96 0 149.5 41t95.5 141l58 150zM328 1241v150h575v-150h-575z" />
<glyph unicode="&#x4f0;" d="M27 1462h204l383 -809q12 -25 20 -47q8 -25 17 -45h2l39 109l312 792h196l-428 -1030q-76 -183 -136 -268.5t-149 -134.5t-215 -49q-104 0 -178 30v185q85 -45 178 -45q110 0 170.5 51.5t114.5 173.5zM329 1733q0 102 96 102t96 -102q0 -103 -96 -103t-96 103zM704 1733 q0 102 96 102t96 -102q0 -103 -96 -103t-96 103z" />
<glyph unicode="&#x4f1;" d="M82 1098h188l262 -654q82 -205 89 -290h6q23 112 90 292l239 652h189l-475 -1241q-67 -174 -156 -261.5t-246 -87.5q-86 0 -168 17v145q62 -12 136 -12q96 0 149.5 41t95.5 141l58 150zM338 1395q0 102 96 102t96 -102q0 -103 -96 -103t-96 103zM713 1395q0 102 96 102 t96 -102q0 -103 -96 -103t-96 103z" />
<glyph unicode="&#x4f2;" d="M27 1462h204l383 -809q12 -25 20 -47q8 -25 17 -45h2l39 109l312 792h196l-428 -1030q-76 -183 -136 -268.5t-149 -134.5t-215 -49q-104 0 -178 30v185q85 -45 178 -45q110 0 170.5 51.5t114.5 173.5zM328 1579v27q94 133 174 301h198v-21q-112 -173 -272 -307h-100z M690 1579v27q87 118 174 301h199v-21q-112 -173 -272 -307h-101z" />
<glyph unicode="&#x4f3;" d="M82 1098h188l262 -654q82 -205 89 -290h6q23 112 90 292l239 652h189l-475 -1241q-67 -174 -156 -261.5t-246 -87.5q-86 0 -168 17v145q62 -12 136 -12q96 0 149.5 41t95.5 141l58 150zM340 1241v27q94 133 174 301h198v-21q-112 -173 -272 -307h-100zM702 1241v27 q87 118 174 301h199v-21q-112 -173 -272 -307h-101z" />
<glyph unicode="&#x4f4;" d="M135 879v583h187v-559q0 -130 51.5 -180.5t161.5 -50.5q153 0 372 80v710h187v-1462h-187v598q-227 -90 -393 -90q-379 0 -379 371zM332 1733q0 102 96 102t96 -102q0 -103 -96 -103t-96 103zM707 1733q0 102 96 102t96 -102q0 -103 -96 -103t-96 103z" />
<glyph unicode="&#x4f5;" d="M152 676v422h182v-410q0 -174 205 -174q171 0 340 115v469h182v-1098h-182v489q-181 -127 -381 -127q-160 0 -253 87.5t-93 226.5zM325 1395q0 102 96 102t96 -102q0 -103 -96 -103t-96 103zM700 1395q0 102 96 102t96 -102q0 -103 -96 -103t-96 103z" />
<glyph unicode="&#x4f6;" d="M299 0v1462h825v-166h-639v-1130h177v-551h-177v385h-186z" />
<glyph unicode="&#x4f7;" d="M291 0v1098h747v-154h-565v-790h160v-535h-176v381h-166z" />
<glyph unicode="&#x4f8;" d="M96 0v1462h166v-616h47q541 0 541 -418q0 -208 -131.5 -318t-382.5 -110h-240zM262 160h78q338 0 338 268q0 133 -85.5 193.5t-283.5 60.5h-47v-522zM332 1733q0 102 96 102t96 -102q0 -103 -96 -103t-96 103zM707 1733q0 102 96 102t96 -102q0 -103 -96 -103t-96 103z M967 0v1462h166v-1462h-166z" />
<glyph unicode="&#x4f9;" d="M113 0v1098h161v-451h134q415 0 415 -311q0 -336 -420 -336h-290zM274 150h138q254 0 254 172q0 90 -59 131t-199 41h-134v-344zM332 1395q0 102 96 102t96 -102q0 -103 -96 -103t-96 103zM707 1395q0 102 96 102t96 -102q0 -103 -96 -103t-96 103zM952 0v1098h162v-1098 h-162z" />
<glyph unicode="&#x4fa;" d="M147 643v162h152v657h825v-166h-639v-491h336v-162h-336v-477h156v-295q0 -132 -55 -203t-180 -71q-39 0 -70.5 8.5t-52.5 17.5v150q14 -7 43 -14t63 -7q47 0 71.5 24.5t24.5 73.5v150h-186v643h-152z" />
<glyph unicode="&#x4fb;" d="M135 481v137h156v480h747v-154h-565v-326h279v-137h-279v-315h156v-295q0 -132 -55 -203t-181 -71q-38 0 -69.5 8.5t-53.5 17.5v150q14 -7 43.5 -14t63.5 -7q46 0 71 24.5t25 73.5v150h-182v481h-156z" />
<glyph unicode="&#x4fc;" d="M53 0l453 764l-422 698h199l331 -559l334 559h191l-422 -692l457 -770h-211l-355 635l-366 -635h-189zM870 -227q14 -7 43.5 -14t63.5 -7q46 0 71 24.5t25 73.5v316h156v-295q-1 -66 -14 -117t-41.5 -86t-73 -53t-107.5 -18q-38 0 -69.5 8.5t-53.5 17.5v150z" />
<glyph unicode="&#x4fd;" d="M96 0l414 563l-393 535h207l290 -410l291 410h207l-395 -535l413 -563h-206l-310 436l-311 -436h-207zM784 -227q14 -7 43.5 -14t63.5 -7q46 0 71 24.5t25 73.5v304h156v-283q-1 -66 -14 -117t-41.5 -86t-73 -53t-107.5 -18q-38 0 -69.5 8.5t-53.5 17.5v150z" />
<glyph unicode="&#x4fe;" d="M53 0l410 692h-289v162h277l-367 608h199l331 -559l334 559h191l-371 -608h285v-162h-291l412 -692h-211l-355 635l-366 -635h-189z" />
<glyph unicode="&#x4ff;" d="M96 0l371 498h-301v137h297l-346 463h207l290 -410l291 410h207l-348 -463h301v-137h-305l370 -498h-206l-310 436l-311 -436h-207z" />
<glyph unicode="&#x500;" d="M137 428q0 87 27.5 163t91 132.5t167 89.5t255.5 33h149v616h187v-1462h-363q-133 0 -230 30.5t-160 86.5t-93.5 135t-30.5 176zM330 428q0 -136 81.5 -202t256.5 -66h159v522h-129q-93 0 -162 -13.5t-114.5 -43.5t-68.5 -78.5t-23 -118.5z" />
<glyph unicode="&#x501;" d="M137 547q0 270 115 420.5t315 150.5q206 0 322 -160h12q-12 129 -12 162v436h182v-1556h-147l-27 147h-8q-113 -167 -322 -167q-201 0 -315.5 149.5t-114.5 417.5zM326 545q0 -414 274 -414q152 0 218.5 88.5t70.5 286.5v41q0 227 -69.5 323.5t-221.5 96.5 q-272 0 -272 -422z" />
<glyph unicode="&#x502;" d="M49 406q0 103 24.5 184.5t76.5 138.5t132.5 87t192.5 30h82v616h174v-1102q0 -114 32.5 -165.5t100.5 -51.5q30 0 52 11.5t36.5 37t21.5 67t7 101.5v488h174v-488q0 -84 -15 -154t-48.5 -120.5t-88 -78t-133.5 -27.5q-92 0 -146.5 43.5t-88.5 130.5q-35 -79 -96 -125.5 t-158 -46.5q-165 0 -248.5 104.5t-83.5 319.5zM229 401q0 -128 39 -193t133 -65q48 0 78 17.5t47.5 47.5t24 69.5t6.5 82.5v322h-80q-66 0 -113 -15t-77 -48.5t-44 -87t-14 -130.5z" />
<glyph unicode="&#x503;" d="M49 547q0 141 21 248t59.5 179t92 108t118.5 36q82 0 134 -37t83 -102h8q-2 34 -4 65q-2 26 -3 53.5t-1 43.5v415h174v-1134q0 -61 4.5 -114.5t17.5 -92.5t38 -61.5t65 -22.5q66 0 95.5 62t29.5 192v315h174v-319q0 -105 -17 -181t-51 -125t-84.5 -72t-117.5 -23 q-110 0 -174.5 49.5t-98.5 152.5h-4q-19 -41 -40.5 -78t-51.5 -64.5t-71.5 -43.5t-100.5 -16q-154 0 -224.5 143t-70.5 424zM229 545q0 -209 38.5 -311.5t121.5 -102.5q46 0 77.5 23t51 70t29 117.5t10.5 164.5v41q0 101 -8.5 179.5t-28 132t-51.5 81t-80 27.5 q-83 0 -121.5 -108.5t-38.5 -313.5z" />
<glyph unicode="&#x504;" d="M35 1372q65 54 140.5 82.5t178.5 28.5q81 0 141.5 -27t100 -75.5t59 -115t19.5 -145.5q0 -73 -15 -131t-43 -100.5t-68 -71.5t-89 -45v-6q57 -13 99 -38.5t70 -67t42 -102t14 -144.5q0 -74 7 -125.5t22.5 -84t39 -47t56.5 -14.5q66 0 95.5 57.5t29.5 190.5v457h174v-467 q0 -107 -20 -183t-58.5 -124.5t-93 -71t-123.5 -22.5t-125 19t-95.5 66t-61 126.5t-21.5 199.5q0 77 -8 131.5t-29 89.5t-57 51.5t-92 16.5h-156v151h156q83 0 128.5 67t45.5 192q0 124 -44 181.5t-130 57.5q-60 0 -107 -16.5t-100 -57.5z" />
<glyph unicode="&#x505;" d="M43 1042q65 36 143 55t179 19q81 0 141 -21t99.5 -57.5t59 -86.5t19.5 -107q0 -55 -15 -98t-43 -75t-68 -53.5t-89 -35.5v-4q53 -6 93.5 -21t68.5 -43t43.5 -70.5t19.5 -103.5q3 -54 10.5 -91.5t22 -61t37 -34t55.5 -10.5q66 0 95.5 57.5t29.5 190.5v309h174v-319 q0 -107 -20 -183t-58 -124.5t-93 -71t-124 -22.5t-122.5 14t-91.5 48.5t-59.5 93t-27.5 147.5q-3 56 -12 96t-29.5 65.5t-55.5 37.5t-91 12h-139v153h139q83 0 128.5 43t45.5 123q0 82 -37.5 119t-124.5 37q-66 0 -122.5 -18t-119.5 -50z" />
<glyph unicode="&#x506;" d="M39 1333q38 31 87 58t107 47.5t123.5 32.5t137.5 12q109 0 192 -27t139 -75.5t84.5 -115t28.5 -145.5q0 -73 -25.5 -133t-71 -104t-108 -72.5t-137.5 -40.5v-6q87 -11 156 -39.5t116 -73t72 -104t25 -131.5v-250h176v-551h-176v385h-187v416q0 68 -28 117.5t-79.5 82 t-126 48.5t-167.5 16h-191v151h176q92 0 163 19.5t119.5 55.5t73.5 86.5t25 111.5q0 54 -18.5 95.5t-52.5 70.5t-81.5 44t-105.5 15q-110 0 -194.5 -33.5t-159.5 -87.5z" />
<glyph unicode="&#x507;" d="M80 1042q93 39 193.5 57.5t215.5 18.5q99 0 179 -18t136.5 -54t87 -89t30.5 -123q0 -53 -14 -93.5t-39.5 -70t-61 -50t-78.5 -34.5v-11q54 -13 96 -35t71 -55t44.5 -78.5t15.5 -107.5v-145h160v-535h-176v381h-166v299q0 47 -13.5 83.5t-44.5 61t-82 37.5t-126 13h-236 v153h203q62 0 112 9t86 28.5t55.5 51.5t19.5 77q0 77 -70 115.5t-201 38.5q-47 0 -88 -5t-81 -14t-80 -22.5t-85 -30.5z" />
<glyph unicode="&#x508;" d="M0 2v154q14 -8 27 -12.5t30 -4.5q25 0 40.5 30t26 76.5t17.5 103t13 110.5q7 59 16.5 157t21 227t24.5 285.5t28 333.5h487v-1071q0 -129 29.5 -188.5t95.5 -59.5q68 0 96.5 59.5t28.5 188.5v457h174v-467q0 -105 -21 -181t-60 -125t-93.5 -72t-122.5 -23q-67 0 -122 22 t-95 70t-62 124.5t-22 184.5v917h-164q-9 -116 -19 -238.5t-20.5 -239.5t-20 -222t-18.5 -186q-10 -103 -23.5 -183.5t-37.5 -135.5t-63 -84t-101 -29q-51 0 -90 22z" />
<glyph unicode="&#x509;" d="M0 -2v131q8 -3 16.5 -4.5t16.5 -1.5q37 0 67.5 58.5t54.5 179t42.5 304t31.5 433.5h502v-707q0 -135 27.5 -197.5t99.5 -62.5q65 0 94 61.5t29 198.5v309h174v-319q0 -105 -18 -181t-54.5 -125t-91.5 -72t-129 -23q-71 0 -127.5 18.5t-96 62t-60.5 114.5t-21 175v594 h-174q-10 -186 -24.5 -329t-33.5 -249.5t-43 -179t-53 -117t-63.5 -64t-75.5 -19.5q-26 0 -50.5 3t-39.5 9z" />
<glyph unicode="&#x50a;" d="M121 0v1462h166v-616h278v616h166v-1071q0 -129 31 -188.5t100 -59.5t98 59.5t29 188.5v457h166v-467q0 -105 -18.5 -181t-55.5 -125t-92.5 -72t-130.5 -23t-130 22t-91 70t-54 124.5t-18 184.5v301h-278v-682h-166z" />
<glyph unicode="&#x50b;" d="M123 0v1098h162v-455h290v455h162v-707q0 -131 27.5 -195.5t99.5 -64.5q63 0 92 65t29 195v309h162v-319q0 -105 -17.5 -181t-52.5 -125t-87.5 -72t-123.5 -23q-67 0 -121 18.5t-92 62t-58 114.5t-20 175v139h-290v-489h-162z" />
<glyph unicode="&#x50c;" d="M117 733q0 172 40 311t115.5 236.5t183.5 150t244 52.5q115 0 205.5 -22t165.5 -64l-72 -162q-58 34 -134.5 59t-170.5 25q-86 0 -156 -40.5t-120 -116.5t-77.5 -185t-27.5 -246q0 -132 22.5 -240.5t67 -185.5t110.5 -119.5t153 -42.5q82 0 136.5 27.5t87.5 83 t46.5 140.5t13.5 200h-278v164h463v-142q0 -167 -26 -287.5t-81.5 -198t-142 -114t-207.5 -36.5q-138 0 -243 52.5t-175.5 150t-106.5 237t-36 313.5z" />
<glyph unicode="&#x50d;" d="M113 549q0 131 35.5 236t105.5 179t174 114t242 40q111 0 197 -18.5t163 -57.5l-61 -145q-60 29 -134 51.5t-165 22.5t-160.5 -29t-115.5 -83.5t-69.5 -133t-23.5 -176.5q0 -93 18.5 -170.5t60 -133.5t107.5 -87t160 -31q81 0 136 22.5t88 62.5t47 96.5t14 123.5h-297 v154h481v-68q0 -130 -25 -230t-81.5 -168.5t-146 -104t-218.5 -35.5q-135 0 -235 39.5t-166 113t-98.5 179t-32.5 237.5z" />
<glyph unicode="&#x50e;" d="M20 1298v164h1022v-164h-417v-907q0 -129 41 -188.5t133 -59.5t133 59.5t41 188.5v457h182v-467q0 -105 -25 -181t-71.5 -125t-112.5 -72t-147 -23q-80 0 -146.5 19.5t-114 66t-74 123.5t-26.5 192v917h-418z" />
<glyph unicode="&#x50f;" d="M41 944v154h821v-154h-319v-553q0 -65 10.5 -114t35 -81.5t64.5 -48.5t99 -16q105 0 152.5 65t47.5 195v309h183v-319q0 -105 -23.5 -181t-71 -125t-119 -72t-167.5 -23q-91 0 -164 23t-124 72t-78.5 124t-27.5 180v565h-319z" />
<glyph unicode="&#x510;" d="M166 403q0 72 25 133.5t72 108.5t115.5 77.5t156.5 41.5v6q-75 12 -135 40.5t-102 72.5t-64.5 104t-22.5 133q0 79 30 145.5t87.5 115t142 75.5t193.5 27q71 0 132.5 -12t114 -32.5t97.5 -47.5t84 -58l-93 -125q-37 27 -75.5 49.5t-80 38t-87 24.5t-97.5 9 q-57 0 -104.5 -15t-81.5 -44t-53 -70.5t-19 -95.5q0 -61 22 -111.5t65.5 -86.5t109 -55.5t152.5 -19.5h194v-151h-190q-186 0 -290 -66.5t-104 -201.5q0 -137 85 -208t249 -71q109 0 210.5 24.5t185.5 67.5v-170q-42 -19 -86 -33t-93.5 -23.5t-105 -14t-119.5 -4.5 q-128 0 -225.5 30t-163 85.5t-98.5 133.5t-33 174z" />
<glyph unicode="&#x511;" d="M201 299q0 193 237 268v11q-202 66 -202 249q0 135 112 213t301 78q216 0 383 -76l-63 -147q-161 72 -316 72q-243 0 -243 -154q0 -166 276 -166h154v-153h-160q-301 0 -301 -185q0 -180 283 -180q196 0 366 86v-160q-134 -75 -377 -75q-211 0 -330.5 84t-119.5 235z" />
<glyph unicode="&#x512;" d="M4 2v150q57 -25 113 -25q102 0 157 180.5t181 1154.5h639v-1462h-187v1298h-297q-117 -977 -205.5 -1149t-263.5 -172q-71 0 -137 25z" />
<glyph unicode="&#x513;" d="M31 -2v131q21 -6 49 -6q111 0 178.5 237.5t103.5 737.5h678v-1098h-182v944h-340q-37 -493 -126 -725.5t-269 -232.5q-62 0 -92 12z" />
<glyph unicode="&#x1e00;" d="M33 0l483 1468h195l485 -1468h-192l-144 453h-491l-146 -453h-190zM389 -340q0 51 16 90.5t45.5 67.5t70.5 42.5t91 14.5q48 0 90 -14.5t73 -42t49 -67t18 -89.5q0 -51 -17.5 -91.5t-48.5 -68.5t-73 -42.5t-91 -14.5q-50 0 -91 14.5t-70.5 42.5t-45.5 67.5t-16 90.5z M422 618h385l-133 424q-39 124 -62 226q-20 -99 -46 -183zM500 -340q0 -53 28.5 -83t83.5 -30q50 0 81.5 30t31.5 83t-31.5 83t-81.5 30q-49 0 -80.5 -30t-31.5 -83z" />
<glyph unicode="&#x1e01;" d="M135 307q0 332 510 348l203 7v69q0 236 -244 236q-147 0 -328 -82l-63 137q196 96 383 96q227 0 328.5 -87t101.5 -279v-752h-131l-37 152h-8q-77 -97 -158 -134.5t-209 -37.5q-163 0 -255.5 86t-92.5 241zM324 305q0 -178 200 -178q147 0 234.5 81.5t87.5 229.5v99 l-162 -7q-196 -8 -278 -61.5t-82 -163.5zM382 -340q0 51 16 90.5t45.5 67.5t70.5 42.5t91 14.5q48 0 90 -14.5t73 -42t49 -67t18 -89.5q0 -51 -17.5 -91.5t-48.5 -68.5t-73 -42.5t-91 -14.5q-50 0 -91 14.5t-70.5 42.5t-45.5 67.5t-16 90.5zM493 -340q0 -53 28.5 -83 t83.5 -30q50 0 81.5 30t31.5 83t-31.5 83t-81.5 30q-49 0 -80.5 -30t-31.5 -83z" />
<glyph unicode="&#x1e3e;" d="M113 0v1462h247l248 -1192h6l250 1192h252v-1462h-153v887q0 102 14 391h-8l-283 -1278h-154l-278 1280h-8q18 -266 18 -406v-874h-151zM518 1581v27q94 133 174 301h219v-21q-112 -173 -272 -307h-121z" />
<glyph unicode="&#x1e3f;" d="M92 0v1098h127l27 -148h10q67 168 201 168q163 0 213 -182h6q76 182 219 182q128 0 186 -92.5t58 -308.5v-717h-162v707q0 146 -26.5 203t-88.5 57q-87 0 -126.5 -83t-39.5 -278v-606h-161v707q0 260 -125 260q-84 0 -120 -79.5t-36 -318.5v-569h-162zM545 1241v27 q94 133 174 301h219v-21q-112 -173 -272 -307h-121z" />
<glyph unicode="&#x1e80;" d="M2 1462h170l88 -663q23 -176 40 -378t17 -241q24 151 70 312l141 516h177l145 -521q61 -219 72 -307q2 53 65 619l70 663h170l-187 -1462h-190l-168 580q-40 138 -66 282q-32 -173 -65 -284l-156 -578h-190zM337 1886v21h219q86 -178 174 -301v-27h-121 q-166 142 -272 307z" />
<glyph unicode="&#x1e81;" d="M-4 1098h162l98 -543q34 -186 57 -393h6q31 185 68 358l133 578h193l127 -578q43 -195 67 -358h6q31 242 60 393l102 543h158l-225 -1098h-195l-131 596l-68 330h-6l-65 -334l-135 -592h-189zM304 1548v21h219q86 -178 174 -301v-27h-121q-166 142 -272 307z" />
<glyph unicode="&#x1e82;" d="M2 1462h170l88 -663q23 -176 40 -378t17 -241q24 151 70 312l141 516h177l145 -521q61 -219 72 -307q2 53 65 619l70 663h170l-187 -1462h-190l-168 580q-40 138 -66 282q-32 -173 -65 -284l-156 -578h-190zM500 1579v27q94 133 174 301h219v-21q-112 -173 -272 -307 h-121z" />
<glyph unicode="&#x1e83;" d="M-4 1098h162l98 -543q34 -186 57 -393h6q31 185 68 358l133 578h193l127 -578q43 -195 67 -358h6q31 242 60 393l102 543h158l-225 -1098h-195l-131 596l-68 330h-6l-65 -334l-135 -592h-189zM522 1241v27q94 133 174 301h219v-21q-112 -173 -272 -307h-121z" />
<glyph unicode="&#x1e84;" d="M2 1462h170l88 -663q23 -176 40 -378t17 -241q24 151 70 312l141 516h177l145 -521q61 -219 72 -307q2 53 65 619l70 663h170l-187 -1462h-190l-168 580q-40 138 -66 282q-32 -173 -65 -284l-156 -578h-190zM334 1733q0 102 96 102t96 -102q0 -103 -96 -103t-96 103z M709 1733q0 102 96 102t96 -102q0 -103 -96 -103t-96 103z" />
<glyph unicode="&#x1e85;" d="M-4 1098h162l98 -543q34 -186 57 -393h6q31 185 68 358l133 578h193l127 -578q43 -195 67 -358h6q31 242 60 393l102 543h158l-225 -1098h-195l-131 596l-68 330h-6l-65 -334l-135 -592h-189zM329 1395q0 102 96 102t96 -102q0 -103 -96 -103t-96 103zM704 1395 q0 102 96 102t96 -102q0 -103 -96 -103t-96 103z" />
<glyph unicode="&#x1ea0;" d="M33 0l483 1468h195l485 -1468h-192l-144 453h-491l-146 -453h-190zM422 618h385l-133 424q-39 124 -62 226q-20 -99 -46 -183zM508 -246q0 60 30.5 87.5t75.5 27.5q44 0 75.5 -27.5t31.5 -87.5q0 -29 -8.5 -50.5t-23 -35.5t-34 -21t-41.5 -7q-45 0 -75.5 27.5t-30.5 86.5 z" />
<glyph unicode="&#x1ea1;" d="M135 307q0 332 510 348l203 7v69q0 236 -244 236q-147 0 -328 -82l-63 137q196 96 383 96q227 0 328.5 -87t101.5 -279v-752h-131l-37 152h-8q-77 -97 -158 -134.5t-209 -37.5q-163 0 -255.5 86t-92.5 241zM324 305q0 -178 200 -178q147 0 234.5 81.5t87.5 229.5v99 l-162 -7q-196 -8 -278 -61.5t-82 -163.5zM489 -246q0 60 30.5 87.5t75.5 27.5q44 0 75.5 -27.5t31.5 -87.5q0 -29 -8.5 -50.5t-23 -35.5t-34 -21t-41.5 -7q-45 0 -75.5 27.5t-30.5 86.5z" />
<glyph unicode="&#x1ea2;" d="M33 0l483 1468h195l485 -1468h-192l-144 453h-491l-146 -453h-190zM422 618h385l-133 424q-39 124 -62 226q-20 -99 -46 -183zM461 1901v108q16 3 41 5.5t66 2.5q133 0 199.5 -45.5t66.5 -142.5q0 -39 -13.5 -68t-36 -49.5t-52.5 -33.5t-64 -21l-10 -111h-113l-14 176 q37 6 66.5 14t50.5 20t32.5 28.5t11.5 40.5t-10 40t-28 25.5t-43 13t-54 3.5q-28 0 -54 -1.5t-42 -4.5z" />
<glyph unicode="&#x1ea3;" d="M135 307q0 332 510 348l203 7v69q0 236 -244 236q-147 0 -328 -82l-63 137q196 96 383 96q227 0 328.5 -87t101.5 -279v-752h-131l-37 152h-8q-77 -97 -158 -134.5t-209 -37.5q-163 0 -255.5 86t-92.5 241zM324 305q0 -178 200 -178q147 0 234.5 81.5t87.5 229.5v99 l-162 -7q-196 -8 -278 -61.5t-82 -163.5zM453 1563v108q16 3 41 5.5t66 2.5q133 0 199.5 -45.5t66.5 -142.5q0 -39 -13.5 -68t-36 -49.5t-52.5 -33.5t-64 -21l-10 -111h-113l-14 176q37 6 66.5 14t50.5 20t32.5 28.5t11.5 40.5t-10 40t-28 25.5t-43 13t-54 3.5 q-28 0 -54 -1.5t-42 -4.5z" />
<glyph unicode="&#x1ea4;" d="M33 0l483 1468h195l485 -1468h-192l-144 453h-491l-146 -453h-190zM309 1579v27q51 59 109 125t106 135h193q48 -69 106 -135t109 -125v-27h-100q-51 34 -105 76t-106 90q-54 -48 -107 -90t-104 -76h-101zM422 618h385l-133 424q-39 124 -62 226q-20 -99 -46 -183z M854 1774v26q20 26 36 48t31 45t29.5 49t30.5 59h180v-21q-45 -60 -98 -111.5t-108 -94.5h-101z" />
<glyph unicode="&#x1ea5;" d="M135 307q0 332 510 348l203 7v69q0 236 -244 236q-147 0 -328 -82l-63 137q196 96 383 96q227 0 328.5 -87t101.5 -279v-752h-131l-37 152h-8q-77 -97 -158 -134.5t-209 -37.5q-163 0 -255.5 86t-92.5 241zM313 1241v27q51 59 109 125t106 135h193q48 -69 106 -135 t109 -125v-27h-100q-51 34 -105 76t-106 90q-54 -48 -107 -90t-104 -76h-101zM324 305q0 -178 200 -178q147 0 234.5 81.5t87.5 229.5v99l-162 -7q-196 -8 -278 -61.5t-82 -163.5zM858 1436v26q20 26 36 48t31 45t29.5 49t30.5 59h180v-21q-45 -60 -98 -111.5t-108 -94.5 h-101z" />
<glyph unicode="&#x1ea6;" d="M33 0l483 1468h195l485 -1468h-192l-144 453h-491l-146 -453h-190zM80 1980v21h181q16 -33 30.5 -59t29 -49t31 -45t36.5 -48v-26h-101q-55 43 -108.5 94.5t-98.5 111.5zM310 1579v27q51 59 109 125t106 135h192q48 -69 106 -135t109 -125v-27h-100q-51 34 -104 76 t-107 90q-53 -48 -106.5 -90t-104.5 -76h-100zM422 618h385l-133 424q-39 124 -62 226q-20 -99 -46 -183z" />
<glyph unicode="&#x1ea7;" d="M85 1642v21h181q16 -33 30.5 -59t29 -49t31 -45t36.5 -48v-26h-101q-55 43 -108.5 94.5t-98.5 111.5zM135 307q0 332 510 348l203 7v69q0 236 -244 236q-147 0 -328 -82l-63 137q196 96 383 96q227 0 328.5 -87t101.5 -279v-752h-131l-37 152h-8q-77 -97 -158 -134.5 t-209 -37.5q-163 0 -255.5 86t-92.5 241zM315 1241v27q51 59 109 125t106 135h192q48 -69 106 -135t109 -125v-27h-100q-51 34 -104 76t-107 90q-53 -48 -106.5 -90t-104.5 -76h-100zM324 305q0 -178 200 -178q147 0 234.5 81.5t87.5 229.5v99l-162 -7q-196 -8 -278 -61.5 t-82 -163.5z" />
<glyph unicode="&#x1ea8;" d="M33 0l483 1468h195l485 -1468h-192l-144 453h-491l-146 -453h-190zM309 1579v27q51 59 109 125t106 135h193q48 -69 106 -135t109 -125v-27h-101q-51 34 -104.5 76t-106.5 90q-54 -48 -106.5 -90t-103.5 -76h-101zM422 618h385l-133 424q-39 124 -62 226 q-20 -99 -46 -183zM817 2034v82q21 6 80 6q99 0 149 -34.5t50 -107.5q0 -29 -10 -50.5t-27.5 -36.5t-40 -25.5t-47.5 -16.5l-6 -81h-86l-11 131q56 9 88.5 24.5t32.5 52.5q0 19 -7.5 31t-21 19t-32 9.5t-39.5 2.5q-22 0 -41.5 -1.5t-30.5 -4.5z" />
<glyph unicode="&#x1ea9;" d="M135 307q0 332 510 348l203 7v69q0 236 -244 236q-147 0 -328 -82l-63 137q196 96 383 96q227 0 328.5 -87t101.5 -279v-752h-131l-37 152h-8q-77 -97 -158 -134.5t-209 -37.5q-163 0 -255.5 86t-92.5 241zM313 1241v27q51 59 109 125t106 135h193q48 -69 106 -135 t109 -125v-27h-101q-51 34 -104.5 76t-106.5 90q-54 -48 -106.5 -90t-103.5 -76h-101zM324 305q0 -178 200 -178q147 0 234.5 81.5t87.5 229.5v99l-162 -7q-196 -8 -278 -61.5t-82 -163.5zM821 1696v82q21 6 80 6q99 0 149 -34.5t50 -107.5q0 -29 -10 -50.5t-27.5 -36.5 t-40 -25.5t-47.5 -16.5l-6 -81h-86l-11 131q56 9 88.5 24.5t32.5 52.5q0 19 -7.5 31t-21 19t-32 9.5t-39.5 2.5q-22 0 -41.5 -1.5t-30.5 -4.5z" />
<glyph unicode="&#x1eaa;" d="M33 0l483 1468h195l485 -1468h-192l-144 453h-491l-146 -453h-190zM299 1923q5 48 19 88.5t38 70t57 46t74 16.5q38 0 75 -14t71.5 -31t65.5 -31t57 -14q40 0 61 21.5t35 70.5h92q-4 -48 -18.5 -88.5t-38.5 -70t-57 -46t-74 -16.5q-36 0 -72 14t-70.5 31t-66 31t-60.5 14 q-40 0 -61 -21t-35 -71h-92zM309 1579v27q51 59 109 125t106 135h193q48 -69 106 -135t109 -125v-27h-101q-51 34 -104 76t-107 90q-52 -48 -106 -90t-105 -76h-100zM422 618h385l-133 424q-39 124 -62 226q-20 -99 -46 -183z" />
<glyph unicode="&#x1eab;" d="M135 307q0 332 510 348l203 7v69q0 236 -244 236q-147 0 -328 -82l-63 137q196 96 383 96q227 0 328.5 -87t101.5 -279v-752h-131l-37 152h-8q-77 -97 -158 -134.5t-209 -37.5q-163 0 -255.5 86t-92.5 241zM303 1585q5 48 19 88.5t38 70t57 46t74 16.5q38 0 75 -14 t71.5 -31t65.5 -31t57 -14q40 0 61 21.5t35 70.5h92q-4 -48 -18.5 -88.5t-38.5 -70t-57 -46t-74 -16.5q-36 0 -72 14t-70.5 31t-66 31t-60.5 14q-40 0 -61 -21t-35 -71h-92zM313 1241v27q51 59 109 125t106 135h193q48 -69 106 -135t109 -125v-27h-101q-51 34 -104 76 t-107 90q-52 -48 -106 -90t-105 -76h-100zM324 305q0 -178 200 -178q147 0 234.5 81.5t87.5 229.5v99l-162 -7q-196 -8 -278 -61.5t-82 -163.5z" />
<glyph unicode="&#x1eac;" d="M33 0l483 1468h195l485 -1468h-192l-144 453h-491l-146 -453h-190zM283 1579v27q25 29 59 67q139 155 176 234h193q37 -79 176 -234l59 -67v-27h-121q-85 56 -211 186q-133 -136 -211 -186h-120zM422 618h385l-133 424q-39 124 -62 226q-20 -99 -46 -183zM508 -246 q0 60 30.5 87.5t75.5 27.5q44 0 75.5 -27.5t31.5 -87.5q0 -29 -8.5 -50.5t-23 -35.5t-34 -21t-41.5 -7q-45 0 -75.5 27.5t-30.5 86.5z" />
<glyph unicode="&#x1ead;" d="M135 307q0 332 510 348l203 7v69q0 236 -244 236q-147 0 -328 -82l-63 137q196 96 383 96q227 0 328.5 -87t101.5 -279v-752h-131l-37 152h-8q-77 -97 -158 -134.5t-209 -37.5q-163 0 -255.5 86t-92.5 241zM291 1241v27q25 29 59 67q139 155 176 234h193q37 -79 176 -234 l59 -67v-27h-121q-85 56 -211 186q-133 -136 -211 -186h-120zM324 305q0 -178 200 -178q147 0 234.5 81.5t87.5 229.5v99l-162 -7q-196 -8 -278 -61.5t-82 -163.5zM489 -246q0 60 30.5 87.5t75.5 27.5q44 0 75.5 -27.5t31.5 -87.5q0 -29 -8.5 -50.5t-23 -35.5t-34 -21 t-41.5 -7q-45 0 -75.5 27.5t-30.5 86.5z" />
<glyph unicode="&#x1eae;" d="M33 0l483 1468h195l485 -1468h-192l-144 453h-491l-146 -453h-190zM313 1845h109q4 -43 17.5 -67.5t37.5 -37.5t58 -16.5t77 -3.5q36 0 69 4.5t58.5 18t42.5 38t21 64.5h112q-4 -60 -26 -109.5t-60 -84t-93 -53.5t-126 -19q-146 0 -218 69.5t-79 196.5zM422 618h385 l-133 424q-39 124 -62 226q-20 -99 -46 -183zM549 1839v27q20 25 36 47t31 45t29.5 49.5t30.5 59.5h180v-21q-45 -60 -98 -111.5t-109 -95.5h-100z" />
<glyph unicode="&#x1eaf;" d="M135 307q0 332 510 348l203 7v69q0 236 -244 236q-147 0 -328 -82l-63 137q196 96 383 96q227 0 328.5 -87t101.5 -279v-752h-131l-37 152h-8q-77 -97 -158 -134.5t-209 -37.5q-163 0 -255.5 86t-92.5 241zM312 1507h109q4 -43 17.5 -67.5t37.5 -37.5t58 -16.5t77 -3.5 q36 0 69 4.5t58.5 18t42.5 38t21 64.5h112q-4 -60 -26 -109.5t-60 -84t-93 -53.5t-126 -19q-146 0 -218 69.5t-79 196.5zM324 305q0 -178 200 -178q147 0 234.5 81.5t87.5 229.5v99l-162 -7q-196 -8 -278 -61.5t-82 -163.5zM548 1501v27q20 25 36 47t31 45t29.5 49.5 t30.5 59.5h180v-21q-45 -60 -98 -111.5t-109 -95.5h-100z" />
<glyph unicode="&#x1eb0;" d="M33 0l483 1468h195l485 -1468h-192l-144 453h-491l-146 -453h-190zM313 1845h109q4 -43 17.5 -67.5t37.5 -37.5t58 -16.5t77 -3.5q36 0 69 4.5t58.5 18t42.5 38t21 64.5h112q-4 -60 -26 -109.5t-60 -84t-93 -53.5t-126 -19q-146 0 -218 69.5t-79 196.5zM356 2046v21h181 q16 -33 30.5 -59.5t29 -49.5t31 -45t36.5 -47v-27h-101q-56 44 -109 95.5t-98 111.5zM422 618h385l-133 424q-39 124 -62 226q-20 -99 -46 -183z" />
<glyph unicode="&#x1eb1;" d="M135 307q0 332 510 348l203 7v69q0 236 -244 236q-147 0 -328 -82l-63 137q196 96 383 96q227 0 328.5 -87t101.5 -279v-752h-131l-37 152h-8q-77 -97 -158 -134.5t-209 -37.5q-163 0 -255.5 86t-92.5 241zM312 1507h109q4 -43 17.5 -67.5t37.5 -37.5t58 -16.5t77 -3.5 q36 0 69 4.5t58.5 18t42.5 38t21 64.5h112q-4 -60 -26 -109.5t-60 -84t-93 -53.5t-126 -19q-146 0 -218 69.5t-79 196.5zM324 305q0 -178 200 -178q147 0 234.5 81.5t87.5 229.5v99l-162 -7q-196 -8 -278 -61.5t-82 -163.5zM355 1708v21h181q16 -33 30.5 -59.5t29 -49.5 t31 -45t36.5 -47v-27h-101q-56 44 -109 95.5t-98 111.5z" />
<glyph unicode="&#x1eb2;" d="M33 0l483 1468h195l485 -1468h-192l-144 453h-491l-146 -453h-190zM313 1845h109q4 -43 17.5 -67.5t37.5 -37.5t58 -16.5t77 -3.5q36 0 69 4.5t58.5 18t42.5 38t21 64.5h112q-4 -60 -26 -109.5t-60 -84t-93 -53.5t-126 -19q-146 0 -218 69.5t-79 196.5zM422 618h385 l-133 424q-39 124 -62 226q-20 -99 -46 -183zM481 2048v82q11 3 30 4.5t50 1.5q99 0 149 -34.5t50 -106.5q0 -29 -10 -50.5t-27.5 -37t-40 -25.5t-47.5 -16l-6 -41h-86l-11 90q56 9 88.5 25t32.5 53t-28.5 49t-71.5 12q-22 0 -41.5 -1.5t-30.5 -4.5z" />
<glyph unicode="&#x1eb3;" d="M135 307q0 332 510 348l203 7v69q0 236 -244 236q-147 0 -328 -82l-63 137q196 96 383 96q227 0 328.5 -87t101.5 -279v-752h-131l-37 152h-8q-77 -97 -158 -134.5t-209 -37.5q-163 0 -255.5 86t-92.5 241zM312 1507h109q4 -43 17.5 -67.5t37.5 -37.5t58 -16.5t77 -3.5 q36 0 69 4.5t58.5 18t42.5 38t21 64.5h112q-4 -60 -26 -109.5t-60 -84t-93 -53.5t-126 -19q-146 0 -218 69.5t-79 196.5zM324 305q0 -178 200 -178q147 0 234.5 81.5t87.5 229.5v99l-162 -7q-196 -8 -278 -61.5t-82 -163.5zM480 1710v82q11 3 30 4.5t50 1.5q99 0 149 -34.5 t50 -106.5q0 -29 -10 -50.5t-27.5 -37t-40 -25.5t-47.5 -16l-6 -41h-86l-11 90q56 9 88.5 25t32.5 53t-28.5 49t-71.5 12q-22 0 -41.5 -1.5t-30.5 -4.5z" />
<glyph unicode="&#x1eb4;" d="M33 0l483 1468h195l485 -1468h-192l-144 453h-491l-146 -453h-190zM291 1923q5 48 19 88.5t38 70t57 46t74 16.5q38 0 75 -14t71.5 -31t65.5 -31t57 -14q40 0 61 21.5t35 70.5h92q-4 -48 -18.5 -88.5t-38.5 -70t-57 -46t-74 -16.5q-36 0 -72 14t-70.5 31t-66 31t-60.5 14 q-40 0 -61 -21t-35 -71h-92zM305 1845h109q4 -43 17.5 -67.5t37.5 -37.5t57.5 -16.5t77.5 -3.5q36 0 68.5 4.5t58 18t42.5 38t22 64.5h112q-4 -60 -26 -109.5t-60 -84t-93 -53.5t-126 -19q-146 0 -218.5 69.5t-78.5 196.5zM422 618h385l-133 424q-39 124 -62 226 q-20 -99 -46 -183z" />
<glyph unicode="&#x1eb5;" d="M135 307q0 332 510 348l203 7v69q0 236 -244 236q-147 0 -328 -82l-63 137q196 96 383 96q227 0 328.5 -87t101.5 -279v-752h-131l-37 152h-8q-77 -97 -158 -134.5t-209 -37.5q-163 0 -255.5 86t-92.5 241zM290 1585q5 48 19 88.5t38 70t57 46t74 16.5q38 0 75 -14 t71.5 -31t65.5 -31t57 -14q40 0 61 21.5t35 70.5h92q-4 -48 -18.5 -88.5t-38.5 -70t-57 -46t-74 -16.5q-36 0 -72 14t-70.5 31t-66 31t-60.5 14q-40 0 -61 -21t-35 -71h-92zM304 1507h109q4 -43 17.5 -67.5t37.5 -37.5t57.5 -16.5t77.5 -3.5q36 0 68.5 4.5t58 18t42.5 38 t22 64.5h112q-4 -60 -26 -109.5t-60 -84t-93 -53.5t-126 -19q-146 0 -218.5 69.5t-78.5 196.5zM324 305q0 -178 200 -178q147 0 234.5 81.5t87.5 229.5v99l-162 -7q-196 -8 -278 -61.5t-82 -163.5z" />
<glyph unicode="&#x1eb6;" d="M33 0l483 1468h195l485 -1468h-192l-144 453h-491l-146 -453h-190zM310 1856h109q7 -76 46.5 -100.5t143.5 -24.5q181 0 191 125h112q-9 -127 -89 -202t-216 -75q-280 0 -297 277zM422 618h385l-133 424q-39 124 -62 226q-20 -99 -46 -183zM508 -246q0 60 30.5 87.5 t75.5 27.5q44 0 75.5 -27.5t31.5 -87.5q0 -29 -8.5 -50.5t-23 -35.5t-34 -21t-41.5 -7q-45 0 -75.5 27.5t-30.5 86.5z" />
<glyph unicode="&#x1eb7;" d="M135 307q0 332 510 348l203 7v69q0 236 -244 236q-147 0 -328 -82l-63 137q196 96 383 96q227 0 328.5 -87t101.5 -279v-752h-131l-37 152h-8q-77 -97 -158 -134.5t-209 -37.5q-163 0 -255.5 86t-92.5 241zM302 1518h109q7 -76 46.5 -100.5t143.5 -24.5q181 0 191 125 h112q-9 -127 -89 -202t-216 -75q-280 0 -297 277zM324 305q0 -178 200 -178q147 0 234.5 81.5t87.5 229.5v99l-162 -7q-196 -8 -278 -61.5t-82 -163.5zM489 -246q0 60 30.5 87.5t75.5 27.5q44 0 75.5 -27.5t31.5 -87.5q0 -29 -8.5 -50.5t-23 -35.5t-34 -21t-41.5 -7 q-45 0 -75.5 27.5t-30.5 86.5z" />
<glyph unicode="&#x1eb8;" d="M217 0v1462h842v-164h-656v-452h617v-162h-617v-520h656v-164h-842zM531 -246q0 60 30.5 87.5t75.5 27.5q44 0 75.5 -27.5t31.5 -87.5q0 -29 -8.5 -50.5t-23 -35.5t-34 -21t-41.5 -7q-45 0 -75.5 27.5t-30.5 86.5z" />
<glyph unicode="&#x1eb9;" d="M133 541q0 266 135.5 421.5t362.5 155.5q212 0 338.5 -134t126.5 -357v-113h-774q8 -375 344 -375q195 0 370 76v-160q-166 -75 -364 -75q-245 0 -392 149.5t-147 411.5zM326 662h573q0 305 -272 305q-275 0 -301 -305zM531 -246q0 60 30.5 87.5t75.5 27.5 q44 0 75.5 -27.5t31.5 -87.5q0 -29 -8.5 -50.5t-23 -35.5t-34 -21t-41.5 -7q-45 0 -75.5 27.5t-30.5 86.5z" />
<glyph unicode="&#x1eba;" d="M217 0v1462h842v-164h-656v-452h617v-162h-617v-520h656v-164h-842zM467 1901v108q16 3 41 5.5t66 2.5q133 0 199.5 -45.5t66.5 -142.5q0 -39 -13.5 -68t-36 -49.5t-52.5 -33.5t-64 -21l-10 -111h-113l-14 176q37 6 66.5 14t50.5 20t32.5 28.5t11.5 40.5t-10 40t-28 25.5 t-43 13t-54 3.5q-28 0 -54 -1.5t-42 -4.5z" />
<glyph unicode="&#x1ebb;" d="M133 541q0 266 135.5 421.5t362.5 155.5q212 0 338.5 -134t126.5 -357v-113h-774q8 -375 344 -375q195 0 370 76v-160q-166 -75 -364 -75q-245 0 -392 149.5t-147 411.5zM326 662h573q0 305 -272 305q-275 0 -301 -305zM485 1563v108q16 3 41 5.5t66 2.5 q133 0 199.5 -45.5t66.5 -142.5q0 -39 -13.5 -68t-36 -49.5t-52.5 -33.5t-64 -21l-10 -111h-113l-14 176q37 6 66.5 14t50.5 20t32.5 28.5t11.5 40.5t-10 40t-28 25.5t-43 13t-54 3.5q-28 0 -54 -1.5t-42 -4.5z" />
<glyph unicode="&#x1ebc;" d="M217 0v1462h842v-164h-656v-452h617v-162h-617v-520h656v-164h-842zM279 1579q25 264 211 264q58 0 161 -56q102 -56 136 -56q80 0 106 114h105q-27 -264 -211 -264q-57 0 -157 57q-100 56 -140 56q-82 0 -107 -115h-104z" />
<glyph unicode="&#x1ebd;" d="M133 541q0 266 135.5 421.5t362.5 155.5q212 0 338.5 -134t126.5 -357v-113h-774q8 -375 344 -375q195 0 370 76v-160q-166 -75 -364 -75q-245 0 -392 149.5t-147 411.5zM287 1241q25 264 211 264q58 0 161 -56q102 -56 136 -56q80 0 106 114h105q-27 -264 -211 -264 q-57 0 -157 57q-100 56 -140 56q-82 0 -107 -115h-104zM326 662h573q0 305 -272 305q-275 0 -301 -305z" />
<glyph unicode="&#x1ebe;" d="M217 0v1462h842v-164h-656v-452h617v-162h-617v-520h656v-164h-842zM317 1579v27q51 59 109 125t106 135h193q48 -69 106 -135t109 -125v-27h-100q-51 34 -105 76t-106 90q-54 -48 -107 -90t-104 -76h-101zM862 1774v26q20 26 36 48t31 45t29.5 49t30.5 59h180v-21 q-45 -60 -98 -111.5t-108 -94.5h-101z" />
<glyph unicode="&#x1ebf;" d="M133 541q0 266 135.5 421.5t362.5 155.5q212 0 338.5 -134t126.5 -357v-113h-774q8 -375 344 -375q195 0 370 76v-160q-166 -75 -364 -75q-245 0 -392 149.5t-147 411.5zM305 1241v27q51 59 109 125t106 135h193q48 -69 106 -135t109 -125v-27h-100q-51 34 -105 76 t-106 90q-54 -48 -107 -90t-104 -76h-101zM326 662h573q0 305 -272 305q-275 0 -301 -305zM850 1436v26q20 26 36 48t31 45t29.5 49t30.5 59h180v-21q-45 -60 -98 -111.5t-108 -94.5h-101z" />
<glyph unicode="&#x1ec0;" d="M89 1980v21h181q16 -33 30.5 -59t29 -49t31 -45t36.5 -48v-26h-101q-55 43 -108.5 94.5t-98.5 111.5zM217 0v1462h842v-164h-656v-452h617v-162h-617v-520h656v-164h-842zM319 1579v27q51 59 109 125t106 135h192q48 -69 106 -135t109 -125v-27h-100q-51 34 -104 76 t-107 90q-53 -48 -106.5 -90t-104.5 -76h-100z" />
<glyph unicode="&#x1ec1;" d="M76 1642v21h181q16 -33 30.5 -59t29 -49t31 -45t36.5 -48v-26h-101q-55 43 -108.5 94.5t-98.5 111.5zM133 541q0 266 135.5 421.5t362.5 155.5q212 0 338.5 -134t126.5 -357v-113h-774q8 -375 344 -375q195 0 370 76v-160q-166 -75 -364 -75q-245 0 -392 149.5 t-147 411.5zM306 1241v27q51 59 109 125t106 135h192q48 -69 106 -135t109 -125v-27h-100q-51 34 -104 76t-107 90q-53 -48 -106.5 -90t-104.5 -76h-100zM326 662h573q0 305 -272 305q-275 0 -301 -305z" />
<glyph unicode="&#x1ec2;" d="M217 0v1462h842v-164h-656v-452h617v-162h-617v-520h656v-164h-842zM317 1579v27q51 59 109 125t106 135h193q48 -69 106 -135t109 -125v-27h-101q-51 34 -104.5 76t-106.5 90q-54 -48 -106.5 -90t-103.5 -76h-101zM825 2034v82q21 6 80 6q99 0 149 -34.5t50 -107.5 q0 -29 -10 -50.5t-27.5 -36.5t-40 -25.5t-47.5 -16.5l-6 -81h-86l-11 131q56 9 88.5 24.5t32.5 52.5q0 19 -7.5 31t-21 19t-32 9.5t-39.5 2.5q-22 0 -41.5 -1.5t-30.5 -4.5z" />
<glyph unicode="&#x1ec3;" d="M133 541q0 266 135.5 421.5t362.5 155.5q212 0 338.5 -134t126.5 -357v-113h-774q8 -375 344 -375q195 0 370 76v-160q-166 -75 -364 -75q-245 0 -392 149.5t-147 411.5zM305 1241v27q51 59 109 125t106 135h193q48 -69 106 -135t109 -125v-27h-101q-51 34 -104.5 76 t-106.5 90q-54 -48 -106.5 -90t-103.5 -76h-101zM326 662h573q0 305 -272 305q-275 0 -301 -305zM813 1696v82q21 6 80 6q99 0 149 -34.5t50 -107.5q0 -29 -10 -50.5t-27.5 -36.5t-40 -25.5t-47.5 -16.5l-6 -81h-86l-11 131q56 9 88.5 24.5t32.5 52.5q0 19 -7.5 31t-21 19 t-32 9.5t-39.5 2.5q-22 0 -41.5 -1.5t-30.5 -4.5z" />
<glyph unicode="&#x1ec4;" d="M217 0v1462h842v-164h-656v-452h617v-162h-617v-520h656v-164h-842zM307 1923q5 48 19 88.5t38 70t57 46t74 16.5q38 0 75 -14t71.5 -31t65.5 -31t57 -14q40 0 61 21.5t35 70.5h92q-4 -48 -18.5 -88.5t-38.5 -70t-57 -46t-74 -16.5q-36 0 -72 14t-70.5 31t-66 31 t-60.5 14q-40 0 -61 -21t-35 -71h-92zM317 1579v27q51 59 109 125t106 135h193q48 -69 106 -135t109 -125v-27h-101q-51 34 -104 76t-107 90q-52 -48 -106 -90t-105 -76h-100z" />
<glyph unicode="&#x1ec5;" d="M133 541q0 266 135.5 421.5t362.5 155.5q212 0 338.5 -134t126.5 -357v-113h-774q8 -375 344 -375q195 0 370 76v-160q-166 -75 -364 -75q-245 0 -392 149.5t-147 411.5zM295 1585q5 48 19 88.5t38 70t57 46t74 16.5q38 0 75 -14t71.5 -31t65.5 -31t57 -14q40 0 61 21.5 t35 70.5h92q-4 -48 -18.5 -88.5t-38.5 -70t-57 -46t-74 -16.5q-36 0 -72 14t-70.5 31t-66 31t-60.5 14q-40 0 -61 -21t-35 -71h-92zM305 1241v27q51 59 109 125t106 135h193q48 -69 106 -135t109 -125v-27h-101q-51 34 -104 76t-107 90q-52 -48 -106 -90t-105 -76h-100z M326 662h573q0 305 -272 305q-275 0 -301 -305z" />
<glyph unicode="&#x1ec6;" d="M217 0v1462h842v-164h-656v-452h617v-162h-617v-520h656v-164h-842zM318 1579v27q25 29 59 67q139 155 176 234h193q37 -79 176 -234l59 -67v-27h-121q-85 56 -211 186q-133 -136 -211 -186h-120zM531 -246q0 60 30.5 87.5t75.5 27.5q44 0 75.5 -27.5t31.5 -87.5 q0 -29 -8.5 -50.5t-23 -35.5t-34 -21t-41.5 -7q-45 0 -75.5 27.5t-30.5 86.5z" />
<glyph unicode="&#x1ec7;" d="M133 541q0 266 135.5 421.5t362.5 155.5q212 0 338.5 -134t126.5 -357v-113h-774q8 -375 344 -375q195 0 370 76v-160q-166 -75 -364 -75q-245 0 -392 149.5t-147 411.5zM299 1241v27q25 29 59 67q139 155 176 234h193q37 -79 176 -234l59 -67v-27h-121q-85 56 -211 186 q-133 -136 -211 -186h-120zM326 662h573q0 305 -272 305q-275 0 -301 -305zM531 -246q0 60 30.5 87.5t75.5 27.5q44 0 75.5 -27.5t31.5 -87.5q0 -29 -8.5 -50.5t-23 -35.5t-34 -21t-41.5 -7q-45 0 -75.5 27.5t-30.5 86.5z" />
<glyph unicode="&#x1ec8;" d="M225 0v123l295 20v1176l-295 20v123h776v-123l-294 -20v-1176l294 -20v-123h-776zM459 1901v108q16 3 41 5.5t66 2.5q133 0 199.5 -45.5t66.5 -142.5q0 -39 -13.5 -68t-36 -49.5t-52.5 -33.5t-64 -21l-10 -111h-113l-14 176q37 6 66.5 14t50.5 20t32.5 28.5t11.5 40.5 t-10 40t-28 25.5t-43 13t-54 3.5q-28 0 -54 -1.5t-42 -4.5z" />
<glyph unicode="&#x1ec9;" d="M197 0v123l344 20v811l-269 21v123h451v-955l352 -20v-123h-878zM475 1563v108q16 3 41 5.5t66 2.5q133 0 199.5 -45.5t66.5 -142.5q0 -39 -13.5 -68t-36 -49.5t-52.5 -33.5t-64 -21l-10 -111h-113l-14 176q37 6 66.5 14t50.5 20t32.5 28.5t11.5 40.5t-10 40t-28 25.5 t-43 13t-54 3.5q-28 0 -54 -1.5t-42 -4.5z" />
<glyph unicode="&#x1eca;" d="M225 0v123l295 20v1176l-295 20v123h776v-123l-294 -20v-1176l294 -20v-123h-776zM508 -246q0 60 30.5 87.5t75.5 27.5q44 0 75.5 -27.5t31.5 -87.5q0 -29 -8.5 -50.5t-23 -35.5t-34 -21t-41.5 -7q-45 0 -75.5 27.5t-30.5 86.5z" />
</font>
</defs>
</svg>
